<?xml version="1.0" standalone="no"?>
<!DOCTYPE svg PUBLIC "-//W3C//DTD SVG 20010904//EN"
 "http://www.w3.org/TR/2001/REC-SVG-20010904/DTD/svg10.dtd">
<svg version="1.0" xmlns="http://www.w3.org/2000/svg"
 width="211.000000pt" height="239.000000pt" viewBox="0 0 211.000000 239.000000"
 preserveAspectRatio="xMidYMid meet">
<metadata>
Created by potrace 1.15, written by Peter Selinger 2001-2017
</metadata>
<g transform="translate(0.000000,239.000000) scale(0.100000,-0.100000)"
fill="#000000" stroke="none">
<path d="M995 2371 c-58 -35 -69 -57 -73 -137 l-4 -73 -29 14 c-63 33 -152 7
-184 -54 -33 -65 -22 -100 72 -238 48 -71 99 -146 115 -167 27 -38 28 -43 28
-158 0 -65 -3 -118 -6 -118 -3 0 -51 26 -106 57 l-101 57 -87 182 c-95 197
-108 213 -183 221 -78 9 -147 -50 -147 -124 0 -18 -2 -33 -3 -33 -2 0 -28 13
-58 30 -63 35 -111 38 -157 10 -96 -59 -93 -178 6 -241 25 -16 50 -30 56 -32
6 -2 -9 -22 -32 -44 -38 -36 -42 -44 -42 -89 0 -61 27 -108 75 -131 31 -15 50
-15 232 -1 l198 14 98 -55 c53 -31 98 -60 99 -66 0 -5 -44 -35 -98 -67 l-99
-56 -195 15 c-176 14 -199 14 -232 0 -50 -21 -78 -68 -78 -131 0 -43 4 -53 41
-89 23 -23 37 -43 32 -44 -38 -14 -103 -67 -116 -96 -33 -69 -10 -145 54 -179
48 -26 91 -22 159 12 l60 30 0 -30 c0 -102 119 -164 208 -110 28 17 49 52 122
203 l88 182 100 58 c56 31 104 57 107 57 3 0 5 -53 5 -118 l0 -119 -38 -54
c-168 -239 -192 -280 -192 -322 0 -104 107 -170 199 -124 l31 15 0 -65 c0 -78
22 -122 74 -147 42 -20 76 -20 121 -2 51 22 75 68 75 145 0 61 1 63 23 56 12
-4 46 -10 75 -12 50 -5 54 -3 92 35 39 39 46 58 40 122 -2 26 -9 37 -146 237
l-84 121 0 116 c0 64 3 116 8 116 16 -1 205 -116 213 -130 5 -8 45 -91 90
-183 93 -195 108 -211 197 -204 41 3 59 10 82 32 30 29 56 97 45 115 -9 15 -3
13 56 -20 89 -49 176 -33 214 39 37 73 8 153 -75 198 -27 16 -50 30 -50 33 0
3 13 13 29 23 42 25 66 91 52 145 -12 43 -56 88 -96 98 -13 3 -110 -1 -216 -9
l-194 -15 -95 55 c-52 30 -99 58 -103 62 -5 5 38 35 95 68 l103 60 170 -14
c216 -18 257 -15 296 23 60 58 58 147 -6 203 l-35 30 25 16 c14 8 36 22 50 31
87 52 83 188 -6 236 -49 26 -94 23 -156 -12 -29 -16 -54 -30 -55 -30 -2 0 -4
16 -5 36 -4 74 -68 128 -143 121 -75 -6 -92 -25 -167 -180 -37 -78 -77 -159
-88 -181 -16 -33 -38 -51 -118 -98 -54 -32 -103 -58 -108 -58 -5 0 -9 52 -9
115 l0 116 115 166 c110 160 120 181 115 243 -6 81 -131 142 -196 95 -12 -8
-24 -11 -28 -8 -3 3 -6 34 -6 67 0 73 -22 115 -73 139 -46 22 -85 21 -122 -2z
m101 -65 c17 -13 19 -31 24 -192 l5 -178 43 66 c24 37 54 78 67 92 44 48 115
24 115 -38 0 -23 -30 -74 -115 -196 l-114 -165 -1 -187 c0 -106 4 -188 9 -188
5 0 82 42 171 93 l161 92 85 180 c47 99 92 186 101 193 25 18 68 15 88 -8 27
-30 21 -69 -24 -159 -23 -44 -39 -81 -37 -81 2 0 66 36 142 80 76 44 149 80
161 80 57 0 84 -82 40 -117 -13 -10 -78 -49 -145 -88 -72 -41 -117 -72 -109
-76 6 -3 50 -9 97 -12 76 -5 87 -8 107 -32 29 -33 29 -47 -1 -82 l-24 -27
-207 16 -207 16 -165 -95 c-90 -53 -161 -99 -156 -104 4 -4 79 -49 166 -99
l157 -91 118 11 c64 6 159 12 211 13 91 2 94 1 114 -25 17 -23 18 -30 8 -57
-15 -36 -52 -51 -130 -52 -118 -2 -117 -7 25 -88 71 -41 137 -81 147 -89 39
-34 6 -112 -47 -112 -13 0 -80 32 -148 71 -67 39 -130 75 -139 80 -12 6 -3
-23 28 -92 l46 -101 -20 -26 c-22 -29 -61 -39 -90 -23 -11 5 -58 92 -106 193
l-88 183 -162 93 c-89 50 -166 92 -170 92 -4 0 -7 -85 -7 -188 l0 -188 115
-166 c121 -175 134 -207 96 -242 -12 -11 -31 -16 -53 -14 -28 3 -40 13 -81 73
-81 119 -77 123 -77 -72 0 -166 -1 -172 -22 -187 -28 -20 -58 -20 -84 -2 -17
13 -19 31 -24 188 l-5 173 -44 -65 c-24 -36 -53 -75 -64 -88 -24 -26 -72 -29
-99 -5 -35 32 -22 63 97 237 l115 168 0 189 c0 104 -3 189 -6 189 -12 0 -322
-180 -332 -193 -5 -6 -44 -86 -87 -177 -43 -91 -85 -173 -93 -182 -19 -23 -70
-23 -94 -1 -28 25 -22 66 23 154 22 45 39 83 37 84 -2 2 -64 -32 -138 -75 -77
-45 -147 -79 -163 -80 -52 0 -85 62 -54 103 6 9 75 53 152 97 77 44 135 80
130 80 -6 0 -52 5 -104 10 -72 7 -99 13 -114 28 -44 44 -9 112 57 112 17 0
109 -7 205 -15 l174 -15 169 97 c92 53 167 97 165 98 -1 1 -76 45 -167 97
l-165 95 -208 -15 c-208 -16 -208 -16 -229 5 -26 26 -26 69 -1 94 14 15 39 21
103 25 47 4 91 10 98 14 9 4 -36 35 -123 85 -132 75 -155 95 -155 131 0 25 40
64 65 64 12 0 75 -31 141 -68 178 -102 165 -97 154 -68 -5 13 -23 52 -40 86
-38 74 -37 117 1 139 16 9 36 12 53 7 25 -6 39 -29 118 -194 l91 -188 168 -96
169 -97 0 193 0 193 -115 166 c-63 93 -115 177 -115 190 0 38 27 67 64 67 38
0 45 -7 115 -109 l51 -75 0 172 c0 159 2 174 20 192 23 23 58 26 86 6z"/>
</g>
</svg>
