<?xml version="1.0" standalone="no"?>
<!DOCTYPE svg PUBLIC "-//W3C//DTD SVG 20010904//EN"
 "http://www.w3.org/TR/2001/REC-SVG-20010904/DTD/svg10.dtd">
<svg version="1.0" xmlns="http://www.w3.org/2000/svg"
 width="225.000000pt" height="225.000000pt" viewBox="0 0 225.000000 225.000000"
 preserveAspectRatio="xMidYMid meet">
<metadata>
Created by potrace 1.15, written by Peter Selinger 2001-2017
</metadata>
<g transform="translate(0.000000,225.000000) scale(0.100000,-0.100000)"
fill="#000000" stroke="none">
<path d="M250 2191 c-7 -13 -10 -283 -10 -805 l0 -784 -52 -18 c-76 -25 -151
-103 -174 -179 -39 -137 19 -270 150 -337 63 -33 174 -31 242 4 130 68 185
213 134 350 -30 80 -111 152 -192 172 l-28 6 0 793 c0 603 -3 796 -12 805 -18
18 -46 14 -58 -7z m118 -1690 c102 -53 141 -169 90 -271 -50 -98 -173 -138
-268 -88 -185 99 -120 376 88 378 33 0 67 -7 90 -19z"/>
<path d="M1103 2203 c-10 -4 -13 -92 -13 -393 l0 -387 -32 -7 c-54 -11 -119
-49 -159 -94 -93 -107 -92 -268 3 -377 43 -49 78 -71 143 -90 l40 -12 5 -393
c4 -352 7 -394 22 -403 12 -8 21 -7 32 2 14 12 16 60 16 406 l0 392 38 11 c83
25 164 102 191 181 19 59 14 160 -13 216 -29 63 -102 129 -167 150 l-49 17 0
382 c0 417 -1 422 -57 399z m106 -883 c79 -40 130 -137 115 -218 -9 -50 -20
-70 -63 -115 -97 -102 -266 -74 -332 56 -31 60 -24 152 16 209 59 82 177 113
264 68z"/>
<path d="M1876 2194 c-68 -22 -147 -102 -171 -173 -21 -64 -17 -159 10 -211
36 -72 115 -136 188 -154 l27 -6 0 -793 c0 -603 3 -796 12 -805 18 -18 46 -14
58 7 7 13 10 283 10 805 l0 784 49 17 c137 45 218 198 177 338 -45 154 -207
240 -360 191z m185 -87 c112 -60 143 -211 62 -308 -119 -141 -353 -54 -353
131 0 151 158 247 291 177z"/>
</g>
</svg>
