<?xml version="1.0" standalone="no"?>
<!DOCTYPE svg PUBLIC "-//W3C//DTD SVG 20010904//EN"
 "http://www.w3.org/TR/2001/REC-SVG-20010904/DTD/svg10.dtd">
<svg version="1.0" xmlns="http://www.w3.org/2000/svg"
 width="520.000000pt" height="97.000000pt" viewBox="0 0 520.000000 97.000000"
 preserveAspectRatio="xMidYMid meet">
<metadata>
Created by potrace 1.15, written by Peter Selinger 2001-2017
</metadata>
<g transform="translate(0.000000,97.000000) scale(0.100000,-0.100000)"
fill="#000000" stroke="none">
<path d="M4625 767 l-46 -146 -152 -3 -152 -3 121 -88 121 -89 -44 -140 c-24
-77 -43 -141 -41 -143 2 -2 54 35 117 81 63 46 118 84 123 84 4 0 61 -38 125
-85 64 -46 118 -83 120 -81 1 1 -17 63 -42 136 -25 74 -45 137 -45 141 0 5 54
47 120 96 l121 88 -153 5 -152 5 -47 144 -47 144 -47 -146z"/>
<path d="M421 760 l-44 -140 -152 -2 -152 -3 118 -85 c65 -47 118 -92 119
-100 0 -9 -20 -75 -44 -148 -25 -73 -43 -132 -41 -132 3 0 57 38 121 85 64 47
120 85 125 85 5 0 51 -31 102 -68 50 -38 104 -76 118 -86 l27 -17 -44 138
c-24 76 -42 143 -40 149 3 7 57 49 121 95 l116 84 -154 3 -154 2 -43 140 c-24
77 -46 140 -49 140 -3 0 -26 -63 -50 -140z"/>
<path d="M1513 880 c-6 -14 -28 -78 -49 -142 l-38 -118 -152 -2 -151 -3 118
-85 c65 -47 118 -92 119 -100 0 -9 -20 -75 -44 -148 -25 -73 -43 -132 -41
-132 3 0 57 38 121 85 64 47 121 85 126 85 5 0 57 -35 116 -78 59 -44 112 -82
118 -85 7 -4 2 24 -11 66 -13 39 -33 103 -45 140 -15 47 -18 72 -11 81 5 6 60
48 121 91 l111 80 -154 3 -153 2 -45 143 c-41 126 -47 139 -56 117z"/>
<path d="M2563 880 c-6 -14 -28 -78 -49 -142 l-38 -118 -152 -2 -152 -3 119
-85 c65 -47 119 -92 119 -100 0 -8 -20 -75 -44 -147 -24 -73 -42 -133 -39
-133 2 0 56 38 119 85 64 47 120 85 125 85 5 0 58 -35 117 -78 140 -102 133
-98 122 -65 -63 192 -80 255 -71 267 5 6 60 48 121 91 l111 80 -153 3 -153 3
-46 142 c-41 126 -47 139 -56 117z"/>
<path d="M3613 880 c-6 -14 -28 -78 -49 -142 l-38 -118 -152 -2 -152 -3 123
-88 122 -89 -44 -136 c-25 -76 -47 -140 -50 -144 -11 -19 14 -3 118 72 60 45
116 83 124 86 7 3 66 -33 131 -80 65 -47 119 -84 121 -83 1 2 -17 64 -42 138
-25 74 -43 139 -41 145 3 7 57 50 121 96 l117 83 -153 5 -152 5 -47 140 c-42
124 -49 137 -57 115z"/>
</g>
</svg>
