<?xml version="1.0" standalone="no"?>
<!DOCTYPE svg PUBLIC "-//W3C//DTD SVG 20010904//EN"
 "http://www.w3.org/TR/2001/REC-SVG-20010904/DTD/svg10.dtd">
<svg version="1.0" xmlns="http://www.w3.org/2000/svg"
 width="128.000000pt" height="128.000000pt" viewBox="0 0 128.000000 128.000000"
 preserveAspectRatio="xMidYMid meet">
<metadata>
Created by potrace 1.15, written by Peter Selinger 2001-2017
</metadata>
<g transform="translate(0.000000,128.000000) scale(0.100000,-0.100000)"
fill="#000000" stroke="none">
<path d="M112 1220 c-18 -11 -41 -34 -52 -52 -19 -32 -20 -52 -20 -528 0 -476
1 -496 20 -528 11 -18 34 -41 52 -52 32 -19 52 -20 528 -20 476 0 496 1 528
20 18 11 41 34 52 52 19 32 20 52 20 528 0 476 -1 496 -20 528 -11 18 -34 41
-52 52 -32 19 -52 20 -528 20 -476 0 -496 -1 -528 -20z m316 -266 c30 -34 28
-60 -7 -95 -36 -35 -61 -37 -97 -6 -45 39 -34 106 21 127 28 12 56 3 83 -26z
m22 -434 l0 -230 -80 0 -80 0 0 230 0 230 80 0 80 0 0 -230z m220 200 c0 -32
14 -40 27 -16 25 45 142 61 209 29 65 -31 77 -71 82 -270 l5 -173 -72 0 -71 0
0 154 c0 181 -6 198 -79 200 -35 1 -47 -4 -67 -27 -23 -27 -24 -34 -24 -178
l0 -149 -65 0 -65 0 0 230 0 230 60 0 60 0 0 -30z"/>
</g>
</svg>
