<?xml version="1.0" standalone="no"?>
<!DOCTYPE svg PUBLIC "-//W3C//DTD SVG 20010904//EN"
 "http://www.w3.org/TR/2001/REC-SVG-20010904/DTD/svg10.dtd">
<svg version="1.0" xmlns="http://www.w3.org/2000/svg"
 width="30.000000pt" height="30.000000pt" viewBox="0 0 30.000000 30.000000"
 preserveAspectRatio="xMidYMid meet">
<metadata>
Created by potrace 1.15, written by Peter Selinger 2001-2017
</metadata>
<g transform="translate(0.000000,30.000000) scale(0.100000,-0.100000)"
fill="#000000" stroke="none">
<path d="M22 258 c-16 -16 -16 -200 0 -216 17 -17 239 -17 256 0 16 16 16 200
0 216 -17 17 -239 17 -256 0z m128 -138 c5 0 32 16 60 36 l50 36 0 -61 0 -61
-110 0 -110 0 0 61 0 61 50 -36 c28 -20 55 -36 60 -36z"/>
</g>
</svg>
