<?xml version="1.0" standalone="no"?>
<!DOCTYPE svg PUBLIC "-//W3C//DTD SVG 20010904//EN"
 "http://www.w3.org/TR/2001/REC-SVG-20010904/DTD/svg10.dtd">
<svg version="1.0" xmlns="http://www.w3.org/2000/svg"
 width="128.000000pt" height="128.000000pt" viewBox="0 0 128.000000 128.000000"
 preserveAspectRatio="xMidYMid meet">
<metadata>
Created by potrace 1.15, written by Peter Selinger 2001-2017
</metadata>
<g transform="translate(0.000000,128.000000) scale(0.100000,-0.100000)"
fill="#000000" stroke="none">
<path d="M754 1255 c-16 -24 -16 -30 -3 -53 11 -20 29 -29 84 -42 172 -40 290
-157 325 -325 15 -69 28 -88 64 -87 47 0 59 19 53 89 -16 202 -238 424 -441
440 -61 5 -65 4 -82 -22z"/>
<path d="M138 1209 c-74 -39 -94 -102 -72 -229 64 -369 297 -671 640 -832 88
-41 228 -81 325 -93 70 -9 134 16 170 66 22 31 24 46 27 162 4 144 -2 167 -53
217 -25 24 -51 37 -92 46 -32 7 -87 20 -123 29 -79 21 -131 11 -185 -37 l-35
-30 -38 27 c-57 42 -120 105 -159 158 l-35 47 31 35 c47 54 57 106 36 185 -9
36 -22 91 -29 123 -9 38 -22 68 -42 88 -50 53 -72 59 -206 59 -103 -1 -129 -4
-160 -21z m273 -106 c6 -6 17 -37 24 -70 7 -32 19 -79 26 -105 l13 -47 -52
-55 c-29 -30 -52 -63 -52 -73 0 -31 81 -145 160 -223 78 -79 192 -160 223
-160 10 0 43 23 73 52 l55 52 47 -13 c26 -7 73 -19 105 -26 33 -7 64 -18 70
-24 17 -17 21 -180 5 -211 -18 -35 -54 -36 -173 -5 -381 96 -678 407 -749 785
-18 92 -15 117 17 130 30 13 193 8 208 -7z"/>
<path d="M753 1044 c-25 -38 -3 -73 62 -96 63 -22 111 -70 133 -133 23 -65 58
-87 96 -62 73 49 -25 231 -157 293 -70 32 -112 32 -134 -2z"/>
</g>
</svg>
