<?xml version="1.0" standalone="no"?>
<!DOCTYPE svg PUBLIC "-//W3C//DTD SVG 20010904//EN"
 "http://www.w3.org/TR/2001/REC-SVG-20010904/DTD/svg10.dtd">
<svg version="1.0" xmlns="http://www.w3.org/2000/svg"
 width="128.000000pt" height="128.000000pt" viewBox="0 0 128.000000 128.000000"
 preserveAspectRatio="xMidYMid meet">
<metadata>
Created by potrace 1.15, written by Peter Selinger 2001-2017
</metadata>
<g transform="translate(0.000000,128.000000) scale(0.100000,-0.100000)"
fill="#000000" stroke="none">
<path d="M112 1220 c-18 -11 -41 -34 -52 -52 -19 -32 -20 -52 -20 -528 0 -476
1 -496 20 -528 11 -18 34 -41 52 -52 32 -19 52 -20 528 -20 476 0 496 1 528
20 18 11 41 34 52 52 19 32 20 52 20 528 0 476 -1 496 -20 528 -11 18 -34 41
-52 52 -32 19 -52 20 -528 20 -476 0 -496 -1 -528 -20z m623 -195 c79 -13 169
-84 200 -159 21 -50 21 -144 -1 -213 -22 -70 -89 -146 -149 -169 -58 -22 -137
-15 -168 15 -13 11 -26 21 -29 21 -3 0 -14 -30 -24 -67 -19 -72 -51 -142 -83
-183 l-21 -25 0 77 c0 50 9 114 27 185 18 75 27 136 27 200 1 82 3 94 25 117
33 35 57 41 87 21 23 -15 25 -22 22 -63 -2 -26 -13 -77 -23 -114 -19 -67 -19
-68 1 -95 17 -23 30 -29 68 -31 44 -3 51 0 85 36 20 21 43 58 50 83 57 187
-13 302 -183 303 -79 0 -130 -20 -178 -71 -56 -59 -75 -162 -41 -226 16 -30
18 -45 8 -75 -8 -23 -63 15 -85 59 -28 54 -28 142 -2 202 26 58 85 117 146
145 48 23 143 42 181 36 11 -2 38 -6 60 -9z"/>
</g>
</svg>
