<?xml version="1.0" standalone="no"?>
<!DOCTYPE svg PUBLIC "-//W3C//DTD SVG 20010904//EN"
 "http://www.w3.org/TR/2001/REC-SVG-20010904/DTD/svg10.dtd">
<svg version="1.0" xmlns="http://www.w3.org/2000/svg"
 width="36.000000pt" height="36.000000pt" viewBox="0 0 36.000000 36.000000"
 preserveAspectRatio="xMidYMid meet">
<metadata>
Created by potrace 1.15, written by Peter Selinger 2001-2017
</metadata>
<g transform="translate(0.000000,36.000000) scale(0.100000,-0.100000)"
fill="#000000" stroke="none">
<path d="M93 288 c-36 -40 -46 -70 -51 -160 l-5 -88 52 0 51 0 0 80 c0 74 -1
80 -21 80 -16 0 -19 4 -13 23 3 12 13 29 20 38 18 20 18 49 1 49 -8 0 -23 -10
-34 -22z"/>
<path d="M226 280 c-29 -36 -40 -80 -41 -170 l0 -65 50 0 50 0 3 73 c3 67 1
74 -18 79 -24 6 -26 31 -5 59 18 24 19 54 1 54 -8 0 -26 -14 -40 -30z"/>
</g>
</svg>
