<?xml version="1.0" standalone="no"?>
<!DOCTYPE svg PUBLIC "-//W3C//DTD SVG 20010904//EN"
 "http://www.w3.org/TR/2001/REC-SVG-20010904/DTD/svg10.dtd">
<svg version="1.0" xmlns="http://www.w3.org/2000/svg"
 width="225.000000pt" height="225.000000pt" viewBox="0 0 225.000000 225.000000"
 preserveAspectRatio="xMidYMid meet">
<metadata>
Created by potrace 1.15, written by Peter Selinger 2001-2017
</metadata>
<g transform="translate(0.000000,225.000000) scale(0.100000,-0.100000)"
fill="#000000" stroke="none">
<path d="M985 2240 c-247 -33 -451 -131 -634 -305 -458 -436 -466 -1152 -17
-1601 519 -519 1372 -414 1754 217 195 321 212 726 45 1067 -210 429 -679 683
-1148 622z m350 -79 c494 -102 844 -531 845 -1032 0 -283 -97 -528 -293 -736
l-48 -51 -82 55 c-129 88 -308 162 -435 179 l-50 6 -37 -58 c-21 -33 -54 -88
-73 -123 -40 -73 -33 -76 -100 46 -23 43 -53 91 -66 108 l-23 29 -69 -13
c-145 -29 -308 -100 -430 -187 l-62 -43 -49 52 c-196 208 -293 453 -293 736 1
499 350 927 840 1032 117 24 307 25 425 0z"/>
<path d="M1015 2060 c-276 -60 -470 -293 -469 -565 0 -74 6 -106 32 -182 50
-147 167 -363 339 -628 l59 -90 150 -1 151 0 49 75 c300 469 396 689 379 865
-29 299 -260 520 -555 531 -52 2 -113 0 -135 -5z m235 -323 c182 -86 221 -326
77 -470 -57 -57 -117 -81 -202 -81 -85 0 -145 24 -202 81 -61 61 -87 124 -87
208 1 215 219 353 414 262z"/>
</g>
</svg>
