<?xml version="1.0" standalone="no"?>
<!DOCTYPE svg PUBLIC "-//W3C//DTD SVG 20010904//EN"
 "http://www.w3.org/TR/2001/REC-SVG-20010904/DTD/svg10.dtd">
<svg version="1.0" xmlns="http://www.w3.org/2000/svg"
 width="225.000000pt" height="225.000000pt" viewBox="0 0 225.000000 225.000000"
 preserveAspectRatio="xMidYMid meet">
<metadata>
Created by potrace 1.15, written by Peter Selinger 2001-2017
</metadata>
<g transform="translate(0.000000,225.000000) scale(0.100000,-0.100000)"
fill="#000000" stroke="none">
<path d="M1022 2148 c-5 -7 -15 -45 -22 -85 -11 -59 -17 -73 -37 -82 -35 -16
-39 -15 -102 29 -31 22 -66 40 -76 40 -25 0 -135 -109 -135 -133 0 -10 18 -45
41 -77 31 -45 39 -64 34 -82 -12 -38 -23 -45 -82 -53 -106 -13 -104 -10 -101
-122 3 -111 -4 -102 110 -123 50 -10 58 -14 67 -43 10 -28 8 -35 -19 -72 -49
-65 -62 -93 -51 -113 13 -24 117 -122 130 -122 5 0 39 20 75 45 66 45 76 47
124 19 1 0 7 -30 13 -65 18 -103 24 -109 124 -109 99 0 109 8 120 101 8 65 11
70 46 86 23 10 32 7 89 -33 35 -24 70 -44 79 -44 24 0 131 111 131 136 0 11
-18 47 -40 78 -37 53 -40 61 -30 90 10 31 13 33 87 44 43 7 80 16 84 20 4 4 9
44 12 89 7 107 0 117 -96 132 -68 11 -74 14 -85 43 -10 28 -8 35 29 89 22 32
42 65 45 74 7 17 -111 145 -134 145 -8 0 -42 -20 -76 -44 -59 -42 -63 -43 -93
-31 -29 12 -32 19 -43 87 -7 40 -17 79 -22 86 -7 8 -40 12 -98 12 -58 0 -91
-4 -98 -12z m133 -115 c18 -106 19 -107 94 -136 38 -15 72 -27 77 -27 4 0 34
18 65 40 54 38 57 39 73 21 22 -24 21 -26 -19 -82 -41 -58 -42 -67 -12 -139
32 -79 30 -77 107 -90 67 -11 70 -13 70 -40 0 -31 -5 -34 -80 -45 -63 -10 -69
-15 -96 -81 -14 -32 -27 -64 -30 -69 -2 -6 14 -39 37 -74 l42 -62 -20 -21 -21
-20 -55 41 c-64 47 -73 48 -127 21 -22 -11 -46 -20 -54 -20 -24 0 -44 -40 -51
-102 -7 -57 -8 -58 -40 -58 -32 0 -32 1 -43 66 -11 68 -25 94 -49 94 -7 0 -31
9 -53 20 -53 27 -62 26 -126 -17 l-55 -36 -21 21 -21 21 37 50 c20 28 36 59
36 69 0 20 -43 129 -56 142 -5 5 -39 15 -74 22 -63 13 -65 14 -65 43 0 29 2
30 65 40 70 12 90 20 90 37 0 6 12 37 26 68 l26 58 -41 60 -40 59 23 22 22 21
54 -40 c29 -22 56 -40 59 -40 10 0 137 53 147 61 7 6 15 31 18 57 11 76 15 82
46 82 26 0 30 -4 35 -37z"/>
<path d="M1025 1781 c-88 -40 -145 -142 -131 -235 10 -62 61 -134 116 -164 38
-20 56 -23 117 -20 61 3 78 8 115 35 114 82 124 247 21 345 -61 58 -161 74
-238 39z m156 -86 c96 -50 88 -189 -14 -239 -50 -24 -98 -15 -144 27 -88 81
-30 227 90 227 21 0 51 -7 68 -15z"/>
<path d="M525 986 c-81 -21 -397 -156 -424 -181 -17 -17 -7 -60 15 -69 10 -4
80 22 173 63 236 105 268 114 381 109 113 -5 139 -16 227 -99 50 -46 76 -62
129 -78 87 -27 173 -41 259 -41 92 0 139 -22 143 -67 3 -26 -2 -35 -25 -50
-24 -16 -50 -18 -223 -17 -162 0 -211 4 -288 22 -51 12 -99 19 -107 16 -22 -9
-30 -53 -14 -69 8 -8 60 -23 116 -34 82 -17 139 -21 301 -21 111 0 212 4 226
9 13 6 125 76 248 157 276 182 341 210 382 165 36 -40 4 -68 -304 -268 -482
-313 -521 -335 -589 -334 -65 0 -102 16 -341 138 -264 136 -271 137 -406 51
-77 -49 -89 -61 -92 -87 -3 -25 1 -31 22 -37 20 -5 44 6 108 45 46 28 93 51
105 51 12 0 133 -55 269 -122 l246 -123 86 0 c71 0 95 4 129 23 69 36 301 183
565 358 210 139 250 169 272 207 14 24 26 59 26 78 0 83 -88 141 -181 120 -37
-8 -46 -7 -82 17 -35 23 -52 27 -118 28 -60 1 -85 6 -111 22 -92 57 -169 40
-368 -83 l-151 -94 -61 19 c-46 14 -74 31 -112 69 -28 27 -73 61 -101 75 -90
44 -228 58 -330 32z m1064 -85 c11 -7 3 -16 -30 -36 -24 -16 -68 -43 -97 -61
-53 -34 -94 -41 -151 -25 -23 6 -18 11 51 54 42 26 91 54 109 62 38 16 97 19
118 6z m209 -37 c12 -4 22 -10 22 -14 0 -8 -300 -204 -303 -199 -5 7 -27 60
-27 64 0 5 220 141 240 148 21 8 41 8 68 1z"/>
</g>
</svg>
