<?xml version="1.0" standalone="no"?>
<!DOCTYPE svg PUBLIC "-//W3C//DTD SVG 20010904//EN"
 "http://www.w3.org/TR/2001/REC-SVG-20010904/DTD/svg10.dtd">
<svg version="1.0" xmlns="http://www.w3.org/2000/svg"
 width="232.000000pt" height="217.000000pt" viewBox="0 0 232.000000 217.000000"
 preserveAspectRatio="xMidYMid meet">
<metadata>
Created by potrace 1.15, written by Peter Selinger 2001-2017
</metadata>
<g transform="translate(0.000000,217.000000) scale(0.100000,-0.100000)"
fill="#000000" stroke="none">
<path d="M819 2153 c-39 -24 -60 -66 -57 -113 2 -47 35 -14 -367 -368 -215
-191 -243 -212 -275 -212 -119 0 -163 -158 -59 -214 34 -18 47 -45 262 -532
219 -497 226 -514 212 -541 -32 -60 -9 -129 51 -158 46 -22 93 -14 137 24 26
23 118 52 527 169 465 132 497 140 536 130 53 -14 99 3 125 46 23 37 25 95 4
122 -8 10 -15 26 -15 35 0 9 67 271 150 582 83 312 150 569 150 572 0 3 9 5
20 5 28 0 88 56 95 90 9 40 -11 95 -42 120 -37 29 -103 27 -140 -4 l-28 -23
-553 96 -553 97 -20 32 c-33 56 -109 77 -160 45z m704 -213 c629 -109 570 -97
559 -117 -5 -9 -146 -72 -312 -140 l-303 -123 -32 20 c-18 11 -50 20 -71 20
-36 0 -46 7 -120 83 -45 45 -124 130 -177 189 -91 101 -96 109 -85 133 6 14
13 25 15 25 2 0 239 -41 526 -90z m-640 5 l59 -1 167 -187 168 -186 -16 -50
-16 -50 -183 -75 -183 -76 -28 21 c-19 14 -43 21 -76 21 -41 0 -52 -5 -84 -36
l-37 -37 -202 31 c-111 16 -204 30 -206 30 -2 0 -13 19 -25 42 l-21 43 28 26
c15 15 148 133 296 263 200 176 274 235 285 229 9 -4 42 -8 74 -8z m1217 -194
c0 -10 -76 -133 -169 -274 l-169 -255 -52 -3 -52 -4 -91 103 c-91 103 -92 104
-88 150 1 26 4 48 5 50 2 2 606 250 614 251 1 1 2 -7 2 -18z m-5 -278 c-133
-512 -237 -899 -245 -907 -12 -12 -15 5 -51 233 -28 185 -30 205 -15 213 42
23 58 105 32 157 -15 28 -13 31 156 287 94 142 173 253 175 247 2 -6 -21 -110
-52 -230z m-725 -100 c19 3 44 7 55 10 16 5 37 -14 102 -87 143 -161 150 -157
-233 -101 -170 25 -328 48 -352 52 -85 12 -76 18 153 113 l160 66 40 -29 c31
-22 48 -28 75 -24z m-911 -100 l193 -28 19 -37 c16 -31 38 -52 77 -73 4 -3
-106 -884 -113 -894 -3 -6 -16 -11 -28 -11 -19 0 -48 59 -240 495 l-217 494
42 44 c24 25 50 43 58 42 8 -2 102 -16 209 -32z m806 -119 c334 -48 345 -52
345 -99 0 -15 -129 -144 -435 -436 -240 -228 -440 -416 -446 -418 -6 -1 -18 4
-28 13 -16 15 -15 36 35 438 63 499 61 488 79 488 8 0 29 16 47 35 25 27 39
34 58 30 14 -2 169 -25 345 -51z m494 -380 c25 -158 30 -209 21 -212 -7 -3
-27 -17 -44 -32 -28 -25 -31 -34 -32 -87 l0 -58 -460 -132 c-252 -73 -467
-133 -477 -133 -12 0 -17 6 -15 18 2 10 204 210 450 445 l447 426 38 -13 38
-13 34 -209z"/>
</g>
</svg>
