<?xml version="1.0" standalone="no"?>
<!DOCTYPE svg PUBLIC "-//W3C//DTD SVG 20010904//EN"
 "http://www.w3.org/TR/2001/REC-SVG-20010904/DTD/svg10.dtd">
<svg version="1.0" xmlns="http://www.w3.org/2000/svg"
 width="225.000000pt" height="225.000000pt" viewBox="0 0 225.000000 225.000000"
 preserveAspectRatio="xMidYMid meet">
<metadata>
Created by potrace 1.15, written by Peter Selinger 2001-2017
</metadata>
<g transform="translate(0.000000,225.000000) scale(0.100000,-0.100000)"
fill="#000000" stroke="none">
<path d="M530 2155 c-111 -31 -200 -83 -286 -169 -128 -128 -187 -270 -187
-452 0 -109 14 -175 58 -269 82 -178 227 -302 410 -350 69 -18 211 -20 287 -4
70 14 184 69 245 118 l50 39 156 -156 156 -157 -34 -70 c-155 -313 82 -676
406 -624 217 35 370 261 331 492 -51 303 -368 454 -606 287 l-54 -38 -157 158
-157 157 36 50 c81 113 123 267 112 411 -7 91 -42 211 -82 279 -74 127 -201
233 -337 281 -91 32 -261 40 -347 17z m283 -44 c90 -24 133 -44 212 -104 101
-76 184 -206 216 -337 17 -74 16 -211 -4 -287 -13 -51 -57 -154 -73 -172 -1
-2 -29 19 -61 46 -123 106 -231 143 -418 143 -184 0 -325 -48 -437 -149 -49
-43 -51 -44 -65 -25 -47 61 -83 194 -83 309 0 169 57 303 179 425 149 148 337
201 534 151z m1054 -1276 c149 -67 244 -249 215 -413 -6 -34 -20 -83 -32 -109
l-20 -47 -38 36 c-131 126 -381 125 -525 -2 l-35 -30 -23 53 c-33 75 -38 211
-10 289 73 208 281 307 468 223z"/>
<path d="M595 1876 c-34 -15 -92 -76 -106 -113 -25 -67 -1 -160 58 -215 85
-81 232 -59 296 44 81 131 -13 299 -167 298 -28 -1 -65 -7 -81 -14z"/>
<path d="M1683 706 c-49 -22 -75 -70 -70 -130 4 -42 10 -55 41 -83 63 -58 151
-39 187 43 16 36 18 50 10 82 -21 77 -100 118 -168 88z"/>
</g>
</svg>
