<?xml version="1.0" standalone="no"?>
<!DOCTYPE svg PUBLIC "-//W3C//DTD SVG 20010904//EN"
 "http://www.w3.org/TR/2001/REC-SVG-20010904/DTD/svg10.dtd">
<svg version="1.0" xmlns="http://www.w3.org/2000/svg"
 width="128.000000pt" height="128.000000pt" viewBox="0 0 128.000000 128.000000"
 preserveAspectRatio="xMidYMid meet">
<metadata>
Created by potrace 1.15, written by Peter Selinger 2001-2017
</metadata>
<g transform="translate(0.000000,128.000000) scale(0.100000,-0.100000)"
fill="#000000" stroke="none">
<path d="M112 1220 c-18 -11 -41 -34 -52 -52 -19 -32 -20 -52 -20 -528 0 -476
1 -496 20 -528 11 -18 34 -41 52 -52 32 -19 52 -20 528 -20 476 0 496 1 528
20 18 11 41 34 52 52 19 32 20 52 20 528 0 476 -1 496 -20 528 -11 18 -34 41
-52 52 -32 19 -52 20 -528 20 -476 0 -496 -1 -528 -20z m768 -292 c38 -24 59
-24 104 -1 l29 15 -23 -32 c-12 -17 -29 -34 -36 -37 -30 -11 -12 -20 23 -12
21 4 39 6 41 5 1 -2 -13 -17 -33 -34 -30 -27 -35 -38 -35 -76 0 -129 -91 -285
-212 -362 -104 -66 -262 -84 -390 -44 -79 24 -95 40 -41 40 51 0 99 15 148 44
41 26 40 28 -19 41 -16 3 -44 21 -63 40 -34 34 -44 58 -20 49 7 -2 23 -1 36 4
20 7 19 9 -19 26 -27 12 -48 31 -65 60 -35 59 -33 68 12 60 l36 -7 -31 39
c-36 45 -47 87 -38 139 l7 36 45 -41 c58 -54 173 -108 247 -116 l57 -7 0 44
c0 53 27 102 72 129 46 28 122 27 168 -2z"/>
</g>
</svg>
