<?xml version="1.0" standalone="no"?>
<!DOCTYPE svg PUBLIC "-//W3C//DTD SVG 20010904//EN"
 "http://www.w3.org/TR/2001/REC-SVG-20010904/DTD/svg10.dtd">
<svg version="1.0" xmlns="http://www.w3.org/2000/svg"
 width="128.000000pt" height="128.000000pt" viewBox="0 0 128.000000 128.000000"
 preserveAspectRatio="xMidYMid meet">
<metadata>
Created by potrace 1.15, written by Peter Selinger 2001-2017
</metadata>
<g transform="translate(0.000000,128.000000) scale(0.100000,-0.100000)"
fill="#000000" stroke="none">
<path d="M112 1220 c-18 -11 -41 -34 -52 -52 -19 -32 -20 -52 -20 -528 0 -476
1 -496 20 -528 11 -18 34 -41 52 -52 32 -19 52 -20 528 -20 476 0 496 1 528
20 18 11 41 34 52 52 19 32 20 52 20 528 0 476 -1 496 -20 528 -11 18 -34 41
-52 52 -32 19 -52 20 -528 20 -476 0 -496 -1 -528 -20z m857 -316 c16 -10 35
-29 41 -43 30 -64 30 -378 0 -442 -6 -14 -26 -34 -43 -45 -30 -18 -54 -19
-322 -19 -384 0 -380 -2 -395 188 -9 109 2 279 20 318 28 60 88 69 437 64 199
-3 237 -6 262 -21z"/>
<path d="M550 649 c0 -91 3 -120 13 -117 29 7 215 113 211 119 -5 8 -208 119
-218 119 -3 0 -6 -54 -6 -121z"/>
</g>
</svg>
