<?xml version="1.0" standalone="no"?>
<!DOCTYPE svg PUBLIC "-//W3C//DTD SVG 20010904//EN"
 "http://www.w3.org/TR/2001/REC-SVG-20010904/DTD/svg10.dtd">
<svg version="1.0" xmlns="http://www.w3.org/2000/svg"
 width="2000.000000pt" height="2000.000000pt" viewBox="0 0 2000.000000 2000.000000"
 preserveAspectRatio="xMidYMid meet">
<metadata>
Created by potrace 1.11, written by Peter Selinger 2001-2013
</metadata>
<g transform="translate(0.000000,2000.000000) scale(0.100000,-0.100000)"
fill="#000000" stroke="none">
<path d="M11365 18880 c-4 -6 29 -10 92 -9 86 2 92 3 48 9 -72 12 -133 12
-140 0z"/>
<path d="M12028 18843 c7 -3 16 -2 19 1 4 3 -2 6 -13 5 -11 0 -14 -3 -6 -6z"/>
<path d="M10983 18752 c-29 -2 -53 -8 -53 -13 0 -6 8 -9 18 -8 70 7 108 -15
82 -46 -8 -9 -8 -15 0 -20 6 -3 8 -9 6 -13 -2 -4 34 -6 80 -4 46 2 84 8 84 13
0 5 10 9 23 10 21 0 21 1 2 8 -11 5 -21 4 -23 0 -2 -5 -40 -9 -84 -9 -69 0
-79 2 -74 16 3 9 6 20 6 25 0 5 6 9 14 9 8 0 17 6 19 13 4 10 6 10 6 0 1 -9
19 -13 54 -14 l52 -2 -40 -7 -40 -7 37 -2 c21 0 43 5 52 14 23 23 174 21 192
-2 12 -16 15 -16 27 -3 6 8 19 16 27 18 12 3 13 1 3 -9 -15 -15 -17 -39 -4
-39 5 0 12 12 16 27 4 19 9 23 14 14 7 -11 10 -11 14 0 4 10 6 9 6 -3 1 -10 6
-18 12 -18 5 0 8 4 4 9 -7 13 3 18 55 25 29 4 38 3 25 -3 -15 -6 -6 -9 37 -12
31 -2 55 -2 53 1 -2 3 14 6 36 6 21 1 36 -2 33 -7 -3 -5 1 -9 8 -9 7 0 19 -9
26 -21 12 -19 15 -20 31 -5 34 30 121 10 90 -21 -7 -7 -6 -12 5 -16 18 -7 28
6 30 37 1 11 7 20 14 19 15 -4 16 9 1 24 -7 7 -32 9 -65 6 -34 -4 -59 -1 -68
6 -19 16 -571 27 -580 12 -4 -6 -29 -9 -64 -6 -94 8 -144 10 -199 7z"/>
<path d="M10850 18719 c0 -5 -19 -9 -42 -9 -36 0 -45 -4 -59 -28 -9 -15 -25
-28 -37 -29 -29 -2 -28 14 1 20 14 3 8 5 -15 6 -20 0 -39 -3 -43 -8 -3 -5 -17
-6 -33 -2 -35 10 -52 4 -45 -17 9 -25 24 -32 63 -32 27 0 31 3 20 10 -10 7 6
8 52 4 80 -8 138 1 138 21 0 11 12 15 45 15 38 0 45 3 45 20 0 10 -8 23 -17
29 -23 11 -73 11 -73 0z"/>
<path d="M11268 18713 c17 -2 47 -2 65 0 17 2 3 4 -33 4 -36 0 -50 -2 -32 -4z"/>
<path d="M12168 18709 c-6 -4 -46 -5 -89 -2 -78 5 -79 4 -79 -20 0 -22 5 -25
58 -32 31 -4 74 -7 95 -6 50 1 64 0 117 -3 74 -4 81 -6 76 -14 -2 -4 13 -6 35
-4 21 2 39 8 39 13 0 5 -8 8 -17 7 -10 -1 -29 0 -42 0 -20 2 -22 5 -13 14 24
24 12 36 -40 41 -105 11 -130 12 -140 6z"/>
<path d="M11711 18688 c0 -10 -9 -18 -18 -18 -14 0 -13 -3 5 -16 28 -19 30
-17 21 21 -4 17 -7 22 -8 13z"/>
<path d="M12456 18661 c-3 -5 3 -11 13 -14 14 -3 18 -1 14 9 -6 16 -19 18 -27
5z"/>
<path d="M12530 18660 c-33 -7 -33 -7 15 -9 28 -1 61 -4 75 -8 23 -6 24 -6 8
10 -17 18 -40 19 -98 7z"/>
<path d="M11835 18650 c-3 -5 -1 -10 4 -10 6 0 11 5 11 10 0 6 -2 10 -4 10 -3
0 -8 -4 -11 -10z"/>
<path d="M11875 18650 c3 -5 8 -10 11 -10 2 0 4 5 4 10 0 6 -5 10 -11 10 -5 0
-7 -4 -4 -10z"/>
<path d="M10978 18643 c7 -3 16 -2 19 1 4 3 -2 6 -13 5 -11 0 -14 -3 -6 -6z"/>
<path d="M12663 18643 c9 -2 23 -2 30 0 6 3 -1 5 -18 5 -16 0 -22 -2 -12 -5z"/>
<path d="M12298 18628 c5 -5 16 -8 23 -6 8 3 3 7 -10 11 -17 4 -21 3 -13 -5z"/>
<path d="M12544 18628 c-3 -4 4 -8 15 -8 11 0 22 4 26 9 3 6 -4 9 -16 8 -11
-1 -23 -5 -25 -9z"/>
<path d="M11680 18616 c0 -13 12 -16 60 -16 33 0 60 4 60 10 0 6 -20 10 -44
10 -24 0 -51 3 -60 6 -11 4 -16 1 -16 -10z"/>
<path d="M12708 18623 c-14 -4 -16 -8 -8 -24 8 -14 21 -19 50 -19 25 0 40 -5
40 -12 0 -10 2 -10 8 -1 4 6 25 13 46 15 58 5 59 28 2 28 -24 0 -48 5 -51 10
-6 10 -55 12 -87 3z"/>
<path d="M11840 18610 c0 -5 9 -10 20 -10 11 0 20 5 20 10 0 6 -9 10 -20 10
-11 0 -20 -4 -20 -10z"/>
<path d="M12660 18604 c0 -8 5 -12 10 -9 6 3 10 10 10 16 0 5 -4 9 -10 9 -5 0
-10 -7 -10 -16z"/>
<path d="M10400 18589 c0 -19 5 -21 45 -17 44 3 46 2 43 -22 -3 -22 -9 -25
-45 -28 -35 -3 -43 -7 -43 -23 0 -18 6 -20 85 -18 l85 2 0 41 c0 23 5 47 11
53 22 22 -1 29 -90 31 -87 2 -91 2 -91 -19z"/>
<path d="M10602 18578 c3 -7 13 -15 24 -17 16 -3 17 -1 5 13 -16 19 -34 21
-29 4z"/>
<path d="M12303 18582 c-38 -6 -26 -22 17 -22 22 0 40 4 40 9 0 11 -28 18 -57
13z"/>
<path d="M12460 18574 c0 -8 5 -12 10 -9 6 3 10 10 10 16 0 5 -4 9 -10 9 -5 0
-10 -7 -10 -16z"/>
<path d="M10275 18564 c-6 -9 -22 -17 -35 -18 -18 -1 -26 -8 -28 -23 -3 -19 1
-23 24 -23 15 0 36 8 46 17 18 16 19 16 24 -4 3 -12 12 -24 18 -26 10 -4 11 4
6 32 -11 62 -33 80 -55 45z"/>
<path d="M11840 18570 c0 -5 9 -10 20 -10 11 0 20 5 20 10 0 6 -9 10 -20 10
-11 0 -20 -4 -20 -10z"/>
<path d="M12935 18571 c-43 -5 -50 -9 -51 -28 -1 -24 -9 -23 128 -9 36 4 49 2
56 -10 5 -9 15 -12 25 -8 24 9 21 22 -5 26 -27 4 -35 25 -11 31 25 6 -82 4
-142 -2z"/>
<path d="M10368 18563 c7 -3 16 -2 19 1 4 3 -2 6 -13 5 -11 0 -14 -3 -6 -6z"/>
<path d="M10580 18520 c0 -13 7 -20 19 -20 11 0 21 -5 23 -11 2 -6 21 -9 43
-7 l40 3 -54 28 c-65 32 -71 33 -71 7z"/>
<path d="M12560 18530 c0 -5 5 -10 10 -10 6 0 10 5 10 10 0 6 -4 10 -10 10 -5
0 -10 -4 -10 -10z"/>
<path d="M13183 18532 c-8 -5 -9 -13 -3 -22 7 -12 12 -12 22 -2 14 14 -1 35
-19 24z"/>
<path d="M10136 18493 c7 -36 -7 -48 -52 -44 -18 1 -35 -2 -39 -8 -3 -6 -15
-11 -26 -11 -21 0 -26 -26 -6 -33 18 -6 -10 -37 -33 -37 -30 0 -89 -58 -82
-82 4 -17 1 -19 -17 -13 -19 6 -20 4 -10 -18 14 -32 47 -25 56 12 7 30 20 41
49 41 31 0 50 26 34 45 -11 13 -8 15 19 15 17 0 31 5 31 10 0 6 4 10 10 10 13
0 9 -52 -5 -63 -6 -5 -2 -6 8 -3 10 3 23 6 28 6 9 0 39 52 39 70 0 5 -22 10
-52 10 -58 0 -56 18 3 25 94 12 125 20 143 37 20 18 20 18 -2 18 -11 0 -24 5
-27 10 -3 6 -16 10 -29 10 -12 0 -27 5 -34 12 -10 10 -11 6 -6 -19z"/>
<path d="M10760 18510 c0 -5 -3 -9 -7 -9 -21 3 -33 -2 -33 -16 0 -17 -2 -17
63 -19 27 -1 50 2 53 6 3 4 -20 8 -51 8 -31 0 -54 4 -51 8 3 5 23 8 46 7 32
-2 38 1 29 12 -13 15 -49 18 -49 3z"/>
<path d="M12285 18510 c-3 -5 3 -10 14 -10 12 0 21 5 21 10 0 6 -6 10 -14 10
-8 0 -18 -4 -21 -10z"/>
<path d="M12640 18510 c0 -6 32 -10 75 -10 43 0 75 4 75 10 0 6 -32 10 -75 10
-43 0 -75 -4 -75 -10z"/>
<path d="M10860 18490 c0 -5 5 -10 11 -10 5 0 7 5 4 10 -3 6 -8 10 -11 10 -2
0 -4 -4 -4 -10z"/>
<path d="M12640 18473 c0 -12 3 -14 8 -6 4 7 39 13 82 16 l75 3 -82 2 c-73 2
-83 0 -83 -15z"/>
<path d="M10262 18474 c10 -9 58 -12 52 -3 -3 5 -17 9 -31 9 -15 0 -24 -3 -21
-6z"/>
<path d="M10888 18469 c-8 -6 4 -9 31 -9 24 0 41 3 37 7 -10 10 -53 11 -68 2z"/>
<path d="M12898 18473 c12 -2 32 -2 45 0 12 2 2 4 -23 4 -25 0 -35 -2 -22 -4z"/>
<path d="M11120 18450 c0 -5 14 -10 30 -10 17 0 30 -4 30 -10 0 -5 5 -10 10
-10 6 0 10 9 10 20 0 17 -7 20 -40 20 -22 0 -40 -4 -40 -10z"/>
<path d="M12000 18450 c0 -5 14 -10 30 -10 17 0 30 5 30 10 0 6 -13 10 -30 10
-16 0 -30 -4 -30 -10z"/>
<path d="M12620 18388 c0 -36 -3 -68 -7 -71 -5 -2 -2 -2 5 0 8 1 53 4 100 5
68 1 77 2 42 7 -49 7 -45 -1 -49 97 -1 19 -8 23 -46 26 l-45 3 0 -67z"/>
<path d="M12582 18420 c0 -14 2 -19 5 -12 2 6 2 18 0 25 -3 6 -5 1 -5 -13z"/>
<path d="M12297 18423 c-12 -11 -8 -23 8 -23 8 0 15 7 15 15 0 16 -12 20 -23
8z"/>
<path d="M10560 18410 c0 -5 18 -10 40 -10 22 0 40 5 40 10 0 6 -18 10 -40 10
-22 0 -40 -4 -40 -10z"/>
<path d="M11000 18410 c0 -5 7 -10 15 -10 8 0 15 5 15 10 0 6 -7 10 -15 10 -8
0 -15 -4 -15 -10z"/>
<path d="M12000 18416 c0 -2 7 -6 15 -10 8 -3 15 -1 15 4 0 6 -7 10 -15 10 -8
0 -15 -2 -15 -4z"/>
<path d="M12235 18410 c-19 -8 -19 -9 3 -9 12 -1 22 4 22 9 0 6 -1 10 -2 9 -2
0 -12 -4 -23 -9z"/>
<path d="M12800 18384 c0 -12 9 -14 42 -12 59 4 63 28 4 28 -35 0 -46 -4 -46
-16z"/>
<path d="M12110 18382 c-19 -2 -39 -8 -44 -13 -6 -5 -23 -9 -38 -9 -15 0 -28
-4 -28 -10 0 -5 9 -10 20 -10 11 0 20 -4 20 -10 0 -5 9 -10 20 -10 11 0 20 -4
20 -10 0 -6 34 -10 83 -10 70 0 88 3 107 20 13 11 29 20 37 20 26 0 12 15 -30
33 -40 16 -69 18 -167 9z m138 -7 c13 -3 22 -13 22 -24 0 -26 -36 -38 -111
-36 -49 1 -71 6 -84 18 -21 21 -21 21 30 33 52 12 114 16 143 9z"/>
<path d="M12104 18349 c-11 -18 18 -29 71 -26 52 3 75 11 75 28 0 13 -137 11
-146 -2z"/>
<path d="M14114 18365 c11 -8 27 -15 35 -15 13 1 12 4 -3 15 -11 8 -27 15 -35
15 -13 -1 -12 -4 3 -15z"/>
<path d="M10047 18343 c-4 -3 -7 -11 -7 -17 0 -6 5 -5 12 2 6 6 9 14 7 17 -3
3 -9 2 -12 -2z"/>
<path d="M10380 18290 c0 -5 5 -10 10 -10 6 0 10 5 10 10 0 6 -4 10 -10 10 -5
0 -10 -4 -10 -10z"/>
<path d="M12590 18281 c0 -6 5 -13 10 -16 6 -3 10 1 10 9 0 9 -4 16 -10 16 -5
0 -10 -4 -10 -9z"/>
<path d="M9978 18258 c-11 -11 -14 -20 -7 -24 14 -8 32 10 27 28 -2 11 -7 10
-20 -4z"/>
<path d="M12000 18250 c0 -5 18 -10 40 -10 22 0 40 5 40 10 0 6 -18 10 -40 10
-22 0 -40 -4 -40 -10z"/>
<path d="M12220 18250 c0 -5 23 -10 51 -10 31 0 48 4 44 10 -3 6 -26 10 -51
10 -24 0 -44 -4 -44 -10z"/>
<path d="M10071 18224 c0 -11 3 -14 6 -6 3 7 2 16 -1 19 -3 4 -6 -2 -5 -13z"/>
<path d="M9817 18211 c3 -12 9 -21 14 -21 5 0 9 -8 9 -18 0 -10 3 -21 6 -25
13 -13 11 -87 -3 -87 -8 0 -13 13 -13 38 0 43 -6 53 -26 45 -16 -6 -20 -83 -4
-83 11 0 13 -33 4 -68 -5 -17 -11 -21 -26 -16 -18 6 -19 2 -13 -53 12 -112 15
-123 35 -143 12 -12 20 -32 18 -48 -2 -36 10 -72 25 -72 7 0 21 -14 32 -30 11
-16 23 -30 26 -30 8 0 -2 -52 -13 -66 -11 -15 34 -100 50 -96 7 1 12 -10 12
-27 0 -17 11 -40 28 -58 35 -39 67 -93 67 -117 0 -11 6 -21 13 -24 17 -5 15
33 -3 48 -8 7 -15 23 -15 36 0 12 -4 25 -9 28 -4 3 -6 17 -4 31 4 16 0 27 -10
31 -10 3 -15 17 -15 36 1 24 5 29 20 25 22 -6 34 11 19 26 -6 6 -11 20 -11 32
0 27 -18 45 -47 45 -25 0 -30 -19 -12 -51 10 -20 10 -20 -15 -4 -27 18 -33 44
-15 62 12 12 3 37 -10 28 -13 -7 -21 65 -11 86 17 31 11 48 -17 55 -41 10 -45
14 -32 30 10 12 10 15 -2 12 -8 -2 -13 4 -11 14 1 9 -6 22 -17 28 -14 7 -21
23 -23 53 -2 27 -7 41 -15 40 -16 -4 -16 7 1 29 7 10 16 15 19 11 4 -3 7 3 7
14 0 11 9 30 20 43 11 13 20 18 20 12 0 -17 19 -15 37 3 19 20 36 82 26 98
-12 19 -10 55 2 50 7 -2 12 8 12 27 0 16 -4 30 -9 30 -4 0 -8 -6 -8 -14 0 -8
-5 -16 -12 -18 -7 -3 -11 -23 -10 -54 0 -27 -1 -42 -4 -34 -16 44 -17 45 -24
20 -7 -23 -8 -23 -9 -3 -1 12 7 27 17 32 9 6 12 11 5 11 -18 0 -8 33 13 41 18
7 17 8 -3 8 -12 1 -25 -4 -28 -10 -9 -14 -30 -6 -30 12 0 7 -8 15 -17 17 -12
2 -15 -2 -11 -17z m197 -679 c2 -4 -7 -9 -20 -10 -15 -1 -22 2 -19 8 7 12 32
13 39 2z"/>
<path d="M10003 18188 c2 -36 6 -43 25 -46 20 -3 22 1 22 42 0 42 -2 46 -24
46 -22 0 -24 -4 -23 -42z"/>
<path d="M12410 18180 c0 -5 5 -10 10 -10 6 0 10 5 10 10 0 6 -4 10 -10 10 -5
0 -10 -4 -10 -10z"/>
<path d="M14630 18170 c0 -6 7 -10 15 -10 8 0 15 2 15 4 0 2 -7 6 -15 10 -8 3
-15 1 -15 -4z"/>
<path d="M12422 18140 c0 -14 2 -19 5 -12 2 6 2 18 0 25 -3 6 -5 1 -5 -13z"/>
<path d="M9960 18083 c0 -32 -4 -62 -8 -68 -13 -19 -52 -35 -82 -35 -16 0 -30
-4 -30 -10 0 -14 66 -12 92 3 42 23 48 35 48 89 0 30 5 59 12 66 9 9 7 12 -10
12 -20 0 -22 -5 -22 -57z"/>
<path d="M14645 18130 c3 -5 8 -10 11 -10 2 0 4 5 4 10 0 6 -5 10 -11 10 -5 0
-7 -4 -4 -10z"/>
<path d="M12320 18100 c0 -5 4 -10 9 -10 6 0 13 5 16 10 3 6 -1 10 -9 10 -9 0
-16 -4 -16 -10z"/>
<path d="M10020 18090 c0 -5 5 -10 10 -10 6 0 10 5 10 10 0 6 -4 10 -10 10 -5
0 -10 -4 -10 -10z"/>
<path d="M12190 18071 c-23 -6 -25 -11 -22 -52 2 -24 6 -52 9 -62 4 -17 6 -17
23 -2 11 10 18 29 17 44 -1 14 2 38 6 54 8 28 7 29 -33 18z"/>
<path d="M12288 18073 c7 -3 16 -2 19 1 4 3 -2 6 -13 5 -11 0 -14 -3 -6 -6z"/>
<path d="M9900 17906 c0 -8 5 -18 10 -21 6 -3 10 3 10 14 0 12 -4 21 -10 21
-5 0 -10 -6 -10 -14z"/>
<path d="M11855 17891 c-3 -5 -1 -12 5 -16 5 -3 10 1 10 9 0 18 -6 21 -15 7z"/>
<path d="M9881 17864 c0 -11 3 -14 6 -6 3 7 2 16 -1 19 -3 4 -6 -2 -5 -13z"/>
<path d="M11820 17830 c0 -5 5 -10 10 -10 6 0 10 5 10 10 0 6 -4 10 -10 10 -5
0 -10 -4 -10 -10z"/>
<path d="M9969 17760 c-7 -35 -4 -48 7 -38 3 4 4 21 2 40 l-3 33 -6 -35z"/>
<path d="M11761 17774 c0 -11 3 -14 6 -6 3 7 2 16 -1 19 -3 4 -6 -2 -5 -13z"/>
<path d="M15409 17776 c14 -17 49 -27 56 -17 5 8 -37 31 -57 31 -7 0 -7 -4 1
-14z"/>
<path d="M11602 17740 c0 -14 2 -19 5 -12 2 6 2 18 0 25 -3 6 -5 1 -5 -13z"/>
<path d="M11795 17750 c-3 -5 -1 -10 4 -10 6 0 11 5 11 10 0 6 -2 10 -4 10 -3
0 -8 -4 -11 -10z"/>
<path d="M11728 17743 c7 -3 16 -2 19 1 4 3 -2 6 -13 5 -11 0 -14 -3 -6 -6z"/>
<path d="M9690 17705 c0 -8 5 -15 10 -15 6 0 10 7 10 15 0 8 -4 15 -10 15 -5
0 -10 -7 -10 -15z"/>
<path d="M11493 17663 c9 -2 25 -2 35 0 9 3 1 5 -18 5 -19 0 -27 -2 -17 -5z"/>
<path d="M9990 17653 c0 -4 5 -15 10 -23 7 -11 12 -12 21 -3 8 8 6 14 -10 22
-12 7 -21 8 -21 4z"/>
<path d="M10079 17653 c-1 -5 0 -16 1 -26 1 -9 -2 -17 -7 -16 -21 4 -22 -2 -6
-20 12 -12 30 -18 51 -16 17 1 52 2 77 3 53 2 62 22 10 22 -29 0 -37 5 -45 26
-6 14 -15 22 -20 19 -6 -4 -8 -12 -5 -18 3 -7 -2 -2 -11 11 -16 21 -43 30 -45
15z m28 -9 c-3 -3 -12 -4 -19 -1 -8 3 -5 6 6 6 11 1 17 -2 13 -5z m43 -54 c0
-5 -10 -10 -22 -10 -19 0 -20 2 -8 10 19 13 30 13 30 0z"/>
<path d="M11620 17630 c0 -5 5 -10 10 -10 6 0 10 5 10 10 0 6 -4 10 -10 10 -5
0 -10 -4 -10 -10z"/>
<path d="M9740 17600 c0 -5 5 -10 10 -10 6 0 10 5 10 10 0 6 -4 10 -10 10 -5
0 -10 -4 -10 -10z"/>
<path d="M10880 17590 c0 -6 33 -10 80 -10 47 0 80 4 80 10 0 6 -33 10 -80 10
-47 0 -80 -4 -80 -10z"/>
<path d="M10000 17570 c0 -5 9 -10 20 -10 11 0 20 5 20 10 0 6 -9 10 -20 10
-11 0 -20 -4 -20 -10z"/>
<path d="M10180 17550 c0 -5 6 -10 14 -10 8 0 21 -3 30 -6 11 -4 16 -1 16 10
0 11 -9 16 -30 16 -16 0 -30 -4 -30 -10z"/>
<path d="M10180 17510 c0 -5 14 -10 31 -10 17 0 28 4 24 10 -3 6 -17 10 -31
10 -13 0 -24 -4 -24 -10z"/>
<path d="M10980 17510 c0 -5 6 -10 14 -10 8 0 21 -3 30 -6 11 -4 16 -1 16 10
0 11 -9 16 -30 16 -16 0 -30 -4 -30 -10z"/>
<path d="M11320 17490 l-45 -7 48 -1 c26 -1 47 3 47 8 0 6 -1 9 -2 8 -2 0 -23
-4 -48 -8z"/>
<path d="M11080 17460 c0 -11 4 -20 9 -20 5 0 7 9 4 20 -3 11 -7 20 -9 20 -2
0 -4 -9 -4 -20z"/>
<path d="M10841 17403 c0 -21 4 -47 9 -58 6 -14 9 -4 9 38 1 32 -3 57 -9 57
-5 0 -10 -17 -9 -37z"/>
<path d="M16035 17400 c-3 -5 1 -10 10 -10 9 0 13 5 10 10 -3 6 -8 10 -10 10
-2 0 -7 -4 -10 -10z"/>
<path d="M11085 17390 c-3 -5 -1 -10 4 -10 6 0 11 5 11 10 0 6 -2 10 -4 10 -3
0 -8 -4 -11 -10z"/>
<path d="M9891 17344 c0 -11 3 -14 6 -6 3 7 2 16 -1 19 -3 4 -6 -2 -5 -13z"/>
<path d="M10118 17353 c7 -3 16 -2 19 1 4 3 -2 6 -13 5 -11 0 -14 -3 -6 -6z"/>
<path d="M10801 17344 c0 -11 3 -14 6 -6 3 7 2 16 -1 19 -3 4 -6 -2 -5 -13z"/>
<path d="M10096 17322 c-4 -7 -12 -10 -17 -6 -5 3 -8 -7 -7 -24 2 -34 26 -38
34 -6 8 30 1 53 -10 36z"/>
<path d="M10130 17322 c0 -5 7 -15 15 -22 8 -7 15 -8 15 -2 0 5 -7 15 -15 22
-8 7 -15 8 -15 2z"/>
<path d="M10988 17313 c7 -3 16 -2 19 1 4 3 -2 6 -13 5 -11 0 -14 -3 -6 -6z"/>
<path d="M10890 17280 c-13 -8 -13 -10 2 -10 9 0 20 5 23 10 8 13 -5 13 -25 0z"/>
<path d="M10121 17258 c-11 -17 -10 -22 1 -29 17 -11 38 -11 38 0 0 5 -8 12
-17 15 -14 6 -15 9 -4 15 7 5 9 11 4 14 -5 3 -15 -4 -22 -15z"/>
<path d="M10360 17274 c0 -3 6 -12 14 -20 20 -19 26 -18 26 6 0 13 -7 20 -20
20 -11 0 -20 -3 -20 -6z"/>
<path d="M10648 17273 c7 -3 16 -2 19 1 4 3 -2 6 -13 5 -11 0 -14 -3 -6 -6z"/>
<path d="M10660 17240 c0 -5 6 -10 14 -10 8 0 18 5 21 10 3 6 -3 10 -14 10
-12 0 -21 -4 -21 -10z"/>
<path d="M10738 17233 c12 -2 32 -2 45 0 12 2 2 4 -23 4 -25 0 -35 -2 -22 -4z"/>
<path d="M10818 17233 c7 -3 16 -2 19 1 4 3 -2 6 -13 5 -11 0 -14 -3 -6 -6z"/>
<path d="M10873 17233 c9 -2 25 -2 35 0 9 3 1 5 -18 5 -19 0 -27 -2 -17 -5z"/>
<path d="M10117 17193 c-13 -12 -7 -33 8 -33 8 0 15 9 15 20 0 20 -11 26 -23
13z"/>
<path d="M10203 17154 c-37 -16 -45 -27 -37 -47 7 -18 32 -16 45 4 7 11 9 11
9 -4 0 -10 4 -16 9 -13 7 5 14 79 8 75 -1 0 -16 -7 -34 -15z"/>
<path d="M10280 17150 c0 -5 5 -10 10 -10 6 0 10 5 10 10 0 6 -4 10 -10 10 -5
0 -10 -4 -10 -10z"/>
<path d="M9986 17135 c4 -8 10 -15 15 -15 4 0 6 7 3 15 -4 8 -10 15 -15 15 -4
0 -6 -7 -3 -15z"/>
<path d="M16395 17130 c3 -5 8 -10 11 -10 2 0 4 5 4 10 0 6 -5 10 -11 10 -5 0
-7 -4 -4 -10z"/>
<path d="M10300 17120 c-1 -8 -3 -25 -6 -37 -3 -18 1 -23 16 -23 11 0 20 7 20
16 0 9 -5 12 -12 8 -7 -4 -8 -3 -4 4 4 7 2 20 -3 29 -8 14 -11 15 -11 3z"/>
<path d="M10245 17086 c-18 -13 -18 -14 8 -9 15 3 27 9 27 14 0 13 -13 11 -35
-5z"/>
<path d="M10210 17041 c-12 -24 -4 -30 33 -26 30 4 60 23 53 34 -3 4 -20 8
-40 9 -26 2 -38 -2 -46 -17z"/>
<path d="M10400 17046 c0 -17 -72 -28 -83 -12 -4 6 -6 -4 -5 -22 2 -31 4 -32
38 -29 34 3 105 59 92 72 -11 11 -42 4 -42 -9z"/>
<path d="M16520 17020 c0 -5 7 -10 16 -10 8 0 12 5 9 10 -3 6 -10 10 -16 10
-5 0 -9 -4 -9 -10z"/>
<path d="M10342 16839 c2 -6 8 -10 13 -10 5 0 11 4 13 10 2 6 -4 11 -13 11 -9
0 -15 -5 -13 -11z"/>
<path d="M16798 16774 c3 -15 8 -22 14 -16 9 9 1 42 -12 42 -4 0 -5 -12 -2
-26z"/>
<path d="M16912 16671 c4 -13 18 -16 19 -4 0 4 -5 9 -11 12 -7 2 -11 -2 -8 -8z"/>
<path d="M16965 16620 c3 -5 8 -10 11 -10 2 0 4 5 4 10 0 6 -5 10 -11 10 -5 0
-7 -4 -4 -10z"/>
<path d="M17150 16370 c0 -5 5 -10 10 -10 6 0 10 5 10 10 0 6 -4 10 -10 10 -5
0 -10 -4 -10 -10z"/>
<path d="M11485 16360 c-3 -5 1 -10 10 -10 9 0 13 5 10 10 -3 6 -8 10 -10 10
-2 0 -7 -4 -10 -10z"/>
<path d="M12080 16160 c0 -5 5 -10 10 -10 6 0 10 5 10 10 0 6 -4 10 -10 10 -5
0 -10 -4 -10 -10z"/>
<path d="M17380 16069 c0 -5 5 -7 10 -4 6 3 10 8 10 11 0 2 -4 4 -10 4 -5 0
-10 -5 -10 -11z"/>
<path d="M12460 16020 c0 -5 4 -10 9 -10 6 0 13 5 16 10 3 6 -1 10 -9 10 -9 0
-16 -4 -16 -10z"/>
<path d="M17430 16010 c0 -5 5 -10 11 -10 5 0 7 5 4 10 -3 6 -8 10 -11 10 -2
0 -4 -4 -4 -10z"/>
<path d="M4951 15973 c6 -10 27 -28 48 -41 45 -29 130 -109 196 -187 136 -159
229 -364 275 -600 l21 -110 -1 -3404 c0 -2133 -4 -3441 -10 -3505 -6 -55 -12
-126 -15 -156 -9 -84 -44 -276 -67 -360 -11 -41 -24 -88 -28 -105 -58 -222
-273 -563 -406 -641 -52 -31 -1 -34 547 -32 l544 3 0 4575 0 4575 -558 3
c-530 2 -557 1 -546 -15z"/>
<path d="M6527 15983 c-4 -3 -7 -2058 -7 -4566 0 -3365 3 -4563 11 -4573 16
-20 1169 -21 1169 -1 0 6 -26 25 -58 42 -119 62 -254 178 -353 305 -33 41 -63
80 -68 86 -5 6 -26 42 -48 80 -82 144 -136 309 -163 489 -8 59 -11 500 -8
1705 l3 1625 1454 3 c800 1 1459 -2 1463 -6 4 -4 8 -669 8 -1478 l1 -1469 -27
-130 c-33 -163 -38 -187 -57 -255 -29 -101 -67 -230 -76 -253 -5 -12 -17 -42
-26 -67 -10 -25 -21 -54 -25 -65 -27 -70 -111 -232 -155 -300 -92 -141 -183
-233 -277 -281 -27 -13 -48 -29 -48 -34 0 -6 208 -10 584 -10 518 0 586 2 600
16 15 14 16 440 16 4568 0 3518 -3 4555 -12 4564 -15 15 -1148 18 -1148 3 0
-5 21 -23 48 -39 75 -46 217 -193 279 -288 7 -10 24 -37 39 -58 38 -58 131
-255 164 -350 26 -73 71 -242 100 -376 27 -126 46 -340 61 -708 16 -398 9
-2147 -9 -2180 l-13 -22 -1472 2 -1472 3 -3 1400 c-2 1008 0 1425 8 1490 42
326 157 619 327 830 82 101 180 194 261 247 34 22 62 45 62 49 0 10 -1123 12
-1133 2z"/>
<path d="M10925 15978 c-3 -7 -4 -2067 -3 -4578 l3 -4565 638 -3 c555 -2 637
0 637 13 0 8 -10 20 -22 26 -66 35 -213 182 -284 284 -36 52 -70 126 -94 209
-18 65 -22 94 -17 160 5 81 11 104 72 291 18 55 54 168 80 250 25 83 77 245
115 360 37 116 100 311 140 435 97 305 94 295 151 470 28 85 66 206 85 269 19
62 42 127 50 142 l15 29 862 0 c474 0 867 -4 874 -8 12 -8 16 -19 128 -367 37
-115 71 -219 75 -230 5 -11 35 -103 68 -205 77 -240 275 -845 319 -980 54
-161 62 -196 78 -315 41 -304 -6 -581 -122 -723 -20 -24 -51 -53 -69 -65 -71
-46 -66 -47 435 -47 259 0 472 4 475 9 3 4 -8 48 -24 97 -16 49 -63 195 -105
324 -42 129 -82 253 -90 275 -7 22 -42 132 -79 245 -36 113 -99 309 -139 435
-41 127 -107 331 -147 455 -40 124 -102 315 -137 425 -36 110 -81 250 -100
310 -19 61 -57 178 -84 260 -27 83 -61 188 -75 235 -15 47 -32 101 -39 120 -7
19 -34 103 -61 185 -26 83 -69 215 -95 295 -26 80 -86 267 -134 415 -47 149
-90 281 -95 295 -5 14 -48 147 -95 295 -92 288 -135 420 -170 525 -12 36 -30
92 -40 125 -9 33 -21 69 -25 80 -5 11 -22 65 -39 120 -17 55 -53 168 -80 250
-27 83 -90 278 -141 435 -50 157 -106 330 -125 385 -18 55 -43 134 -55 175
-12 41 -28 91 -35 110 -8 19 -28 83 -46 142 -18 58 -39 114 -46 124 -7 9 -34
21 -60 25 -49 9 -134 25 -283 54 -47 9 -108 21 -135 25 -28 4 -87 15 -130 24
-253 52 -479 96 -495 96 -17 -1 38 -50 56 -50 18 0 223 -122 305 -181 345
-247 546 -515 604 -808 23 -113 16 -241 -18 -341 -14 -41 -53 -163 -87 -270
-34 -107 -72 -226 -85 -265 -13 -38 -42 -131 -65 -205 -22 -74 -49 -160 -59
-190 -36 -108 -90 -277 -136 -425 -26 -82 -55 -175 -65 -205 -10 -30 -46 -143
-80 -250 -34 -107 -74 -233 -90 -280 -15 -47 -46 -146 -69 -220 -23 -74 -46
-148 -52 -165 -11 -33 -28 -85 -71 -225 -16 -52 -38 -120 -48 -150 -11 -30
-46 -143 -80 -250 -34 -107 -74 -233 -89 -280 -16 -47 -36 -112 -46 -145 -9
-33 -30 -98 -45 -145 -16 -47 -65 -202 -110 -345 -45 -143 -92 -291 -105 -330
-12 -38 -44 -137 -70 -220 -26 -82 -58 -181 -70 -220 -36 -105 -132 -416 -139
-449 -4 -15 -14 -39 -23 -53 l-16 -25 -12 24 c-7 12 -18 59 -24 103 -7 44 -16
98 -21 120 -5 22 -17 121 -27 220 -17 170 -18 368 -18 3630 0 3718 -3 3506 51
3720 29 118 56 190 109 300 66 137 113 203 212 299 24 23 43 47 43 54 0 9 -91
12 -420 12 -327 0 -422 -3 -425 -12z m2701 -4288 c118 -355 237 -712 265 -795
27 -82 59 -179 71 -215 11 -36 41 -122 65 -193 34 -101 41 -131 33 -147 -11
-20 -22 -20 -655 -20 -354 0 -650 3 -659 6 -9 3 -16 15 -16 27 0 18 128 419
151 472 8 19 346 1037 454 1368 35 105 53 147 63 145 9 -2 91 -236 228 -648z"/>
<path d="M13098 15863 c7 -3 16 -2 19 1 4 3 -2 6 -13 5 -11 0 -14 -3 -6 -6z"/>
<path d="M17640 15800 c0 -5 5 -10 10 -10 6 0 10 5 10 10 0 6 -4 10 -10 10 -5
0 -10 -4 -10 -10z"/>
<path d="M17680 15746 c0 -9 5 -16 10 -16 6 0 10 4 10 9 0 6 -4 13 -10 16 -5
3 -10 -1 -10 -9z"/>
<path d="M17720 15693 c0 -5 5 -15 10 -23 8 -12 10 -11 10 8 0 12 -4 22 -10
22 -5 0 -10 -3 -10 -7z"/>
<path d="M13935 15510 c3 -5 8 -10 11 -10 2 0 4 5 4 10 0 6 -5 10 -11 10 -5 0
-7 -4 -4 -10z"/>
<path d="M17831 15474 c0 -11 3 -14 6 -6 3 7 2 16 -1 19 -3 4 -6 -2 -5 -13z"/>
<path d="M17870 15414 c0 -8 5 -12 10 -9 6 4 8 11 5 16 -9 14 -15 11 -15 -7z"/>
<path d="M17900 15370 c0 -5 5 -10 11 -10 5 0 7 5 4 10 -3 6 -8 10 -11 10 -2
0 -4 -4 -4 -10z"/>
<path d="M14295 15280 c3 -5 10 -10 16 -10 5 0 9 5 9 10 0 6 -7 10 -16 10 -8
0 -12 -4 -9 -10z"/>
<path d="M18090 14946 c0 -9 5 -16 10 -16 6 0 10 4 10 9 0 6 -4 13 -10 16 -5
3 -10 -1 -10 -9z"/>
<path d="M18180 14730 c0 -11 5 -20 10 -20 6 0 10 9 10 20 0 11 -4 20 -10 20
-5 0 -10 -9 -10 -20z"/>
<path d="M18240 14620 c0 -5 5 -10 11 -10 5 0 7 5 4 10 -3 6 -8 10 -11 10 -2
0 -4 -4 -4 -10z"/>
<path d="M18260 14533 c0 -13 5 -23 10 -23 13 0 13 11 0 30 -8 12 -10 11 -10
-7z"/>
<path d="M15450 14480 c0 -5 7 -10 16 -10 8 0 12 5 9 10 -3 6 -10 10 -16 10
-5 0 -9 -4 -9 -10z"/>
<path d="M18316 14361 c-4 -7 -5 -15 -2 -18 9 -9 19 4 14 18 -4 11 -6 11 -12
0z"/>
<path d="M3346 14194 c-4 -10 -1 -14 6 -12 15 5 23 28 10 28 -5 0 -13 -7 -16
-16z"/>
<path d="M3311 14161 c-7 -5 -11 -17 -9 -29 3 -19 4 -19 21 3 18 25 11 40 -12
26z"/>
<path d="M3225 14070 c-3 -5 -1 -10 4 -10 6 0 11 5 11 10 0 6 -2 10 -4 10 -3
0 -8 -4 -11 -10z"/>
<path d="M15885 14050 c3 -5 11 -10 16 -10 6 0 7 5 4 10 -3 6 -11 10 -16 10
-6 0 -7 -4 -4 -10z"/>
<path d="M13600 14025 c0 -7 22 -79 49 -161 27 -82 88 -270 136 -419 47 -148
90 -279 95 -290 4 -11 29 -87 55 -170 26 -82 65 -202 85 -265 21 -63 70 -216
110 -340 39 -124 77 -241 85 -260 8 -19 26 -73 40 -120 30 -98 190 -595 210
-655 8 -22 64 -195 125 -385 61 -190 129 -397 149 -460 21 -63 55 -169 76
-235 20 -66 61 -192 90 -280 29 -88 94 -288 145 -445 50 -157 104 -323 120
-370 15 -47 58 -179 95 -295 37 -115 99 -304 137 -420 38 -115 75 -232 83
-260 8 -27 25 -81 39 -120 14 -38 26 -78 26 -87 0 -9 6 -29 14 -45 8 -15 33
-89 57 -163 23 -74 65 -207 94 -295 139 -425 195 -601 195 -616 0 -35 41 -39
450 -39 314 0 400 3 399 13 0 6 -25 31 -55 55 -96 76 -307 376 -469 667 -135
244 -205 385 -231 470 -14 44 -28 87 -31 95 -16 42 -99 292 -167 505 -43 132
-82 249 -86 260 -5 11 -79 236 -166 500 -86 264 -205 626 -264 805 -59 179
-114 348 -123 375 -9 28 -21 64 -27 80 -6 17 -37 111 -69 210 -132 406 -306
937 -341 1040 -20 61 -73 220 -117 355 -81 246 -332 1013 -468 1425 -69 211
-73 220 -101 226 -30 7 -282 81 -344 101 -70 23 -100 27 -100 13z"/>
<path d="M3249 14018 c-6 -21 -5 -38 2 -38 5 0 9 9 9 20 0 16 -7 28 -11 18z"/>
<path d="M15995 14010 c3 -5 8 -10 11 -10 2 0 4 5 4 10 0 6 -5 10 -11 10 -5 0
-7 -4 -4 -10z"/>
<path d="M3140 13980 c0 -5 4 -10 9 -10 6 0 13 5 16 10 3 6 -1 10 -9 10 -9 0
-16 -4 -16 -10z"/>
<path d="M3180 13918 c0 -9 5 -20 10 -23 13 -8 13 5 0 25 -8 13 -10 13 -10 -2z"/>
<path d="M18441 13890 c0 -29 1 -32 10 -17 7 11 7 23 0 35 -9 14 -10 11 -10
-18z"/>
<path d="M16085 13900 c-3 -5 -1 -10 4 -10 6 0 11 5 11 10 0 6 -2 10 -4 10 -3
0 -8 -4 -11 -10z"/>
<path d="M16051 13854 c0 -11 3 -14 6 -6 3 7 2 16 -1 19 -3 4 -6 -2 -5 -13z"/>
<path d="M3042 13835 c-15 -33 -15 -35 3 -35 10 0 15 10 15 30 0 37 -3 37 -18
5z"/>
<path d="M16130 13839 c0 -5 5 -7 10 -4 6 3 10 8 10 11 0 2 -4 4 -10 4 -5 0
-10 -5 -10 -11z"/>
<path d="M3116 13742 c-2 -4 -1 -14 5 -22 7 -12 9 -10 9 8 0 23 -5 28 -14 14z"/>
<path d="M2971 13724 c0 -11 3 -14 6 -6 3 7 2 16 -1 19 -3 4 -6 -2 -5 -13z"/>
<path d="M16155 13720 c3 -5 10 -10 16 -10 5 0 9 5 9 10 0 6 -7 10 -16 10 -8
0 -12 -4 -9 -10z"/>
<path d="M16340 13570 c0 -5 5 -10 10 -10 6 0 10 5 10 10 0 6 -4 10 -10 10 -5
0 -10 -4 -10 -10z"/>
<path d="M2890 13445 c0 -8 5 -15 10 -15 6 0 10 7 10 15 0 8 -4 15 -10 15 -5
0 -10 -7 -10 -15z"/>
<path d="M2840 13331 c0 -11 -11 -33 -25 -49 -18 -21 -25 -42 -25 -71 0 -31
-3 -39 -14 -35 -12 5 -15 -3 -13 -37 2 -39 0 -43 -22 -44 -25 0 -53 -45 -28
-45 8 0 7 -3 -2 -9 -8 -5 -20 -7 -28 -4 -7 3 -13 -2 -13 -11 0 -9 8 -16 20
-16 11 0 30 -10 43 -22 l22 -23 6 44 c3 25 11 47 17 49 6 2 14 20 18 40 4 20
17 56 30 80 13 24 20 50 17 59 -3 8 0 19 7 23 8 5 15 18 17 31 2 12 8 28 13
34 12 14 3 25 -22 25 -11 0 -18 -7 -18 -19z"/>
<path d="M2976 13341 c-4 -7 -5 -15 -2 -18 9 -9 19 4 14 18 -4 11 -6 11 -12 0z"/>
<path d="M2695 13271 c-3 -5 -1 -12 5 -16 5 -3 10 1 10 9 0 18 -6 21 -15 7z"/>
<path d="M2671 13214 c0 -11 3 -14 6 -6 3 7 2 16 -1 19 -3 4 -6 -2 -5 -13z"/>
<path d="M16510 13221 c0 -6 5 -13 10 -16 6 -3 10 1 10 9 0 9 -4 16 -10 16 -5
0 -10 -4 -10 -9z"/>
<path d="M16561 13134 c0 -11 3 -14 6 -6 3 7 2 16 -1 19 -3 4 -6 -2 -5 -13z"/>
<path d="M18541 13114 c0 -11 3 -14 6 -6 3 7 2 16 -1 19 -3 4 -6 -2 -5 -13z"/>
<path d="M12040 13056 c-76 -22 -98 -34 -146 -78 -117 -107 -149 -239 -104
-426 11 -46 20 -86 20 -90 0 -4 -17 -16 -37 -27 -148 -76 -257 -173 -303 -270
-27 -57 -31 -76 -31 -150 -1 -74 3 -94 29 -148 53 -113 144 -178 276 -198 139
-21 298 19 432 107 28 19 57 34 65 34 8 0 32 -18 54 -41 22 -22 69 -54 105
-72 110 -54 215 -42 306 35 38 32 137 187 130 204 -9 22 -30 16 -62 -17 -16
-17 -44 -37 -63 -45 -30 -12 -38 -12 -76 5 -46 20 -141 87 -164 115 -13 15
-12 21 4 49 10 18 31 48 46 67 15 19 55 85 89 145 72 128 99 160 158 186 42
18 52 32 32 44 -6 4 -90 7 -188 7 -152 1 -177 -1 -180 -15 -2 -9 13 -24 37
-38 48 -27 65 -64 58 -125 -8 -72 -96 -234 -128 -234 -11 0 -161 187 -207 260
-20 30 -46 71 -59 91 -30 46 -29 67 5 80 107 40 221 130 256 204 10 21 21 64
23 96 16 175 -178 302 -377 245z m87 -89 c85 -48 129 -238 74 -316 -28 -39
-107 -92 -126 -85 -11 5 -35 55 -76 164 -7 19 -13 67 -14 106 0 64 3 76 25 99
40 44 78 54 117 32z m-247 -654 c19 -37 45 -82 57 -101 13 -18 23 -35 23 -39
0 -10 114 -168 149 -206 44 -47 62 -79 53 -94 -12 -20 -111 -53 -158 -53 -175
0 -354 276 -290 445 18 47 87 115 116 115 10 0 29 -26 50 -67z"/>
<path d="M2576 13033 c-6 -14 -5 -15 5 -6 7 7 10 15 7 18 -3 3 -9 -2 -12 -12z"/>
<path d="M2666 12944 c-3 -9 -6 -24 -6 -35 0 -10 -4 -19 -10 -19 -5 0 -10 -6
-10 -13 0 -8 -9 -22 -20 -32 -15 -13 -18 -26 -14 -51 4 -25 1 -36 -10 -40 -18
-7 -22 -34 -6 -34 6 0 10 4 10 9 0 5 13 12 29 16 20 4 30 13 34 31 2 13 0 24
-5 24 -5 0 -7 4 -3 10 3 5 12 7 20 3 18 -6 19 10 3 38 -11 17 -10 22 5 33 9 7
17 20 17 29 0 22 -11 47 -20 47 -4 0 -11 -7 -14 -16z"/>
<path d="M16790 12830 c0 -5 5 -10 10 -10 6 0 10 5 10 10 0 6 -4 10 -10 10 -5
0 -10 -4 -10 -10z"/>
<path d="M16740 12818 c0 -9 5 -20 10 -23 13 -8 13 5 0 25 -8 13 -10 13 -10
-2z"/>
<path d="M16836 12761 c-4 -7 -5 -15 -2 -18 9 -9 19 4 14 18 -4 11 -6 11 -12
0z"/>
<path d="M2415 12700 c3 -5 8 -10 11 -10 2 0 4 5 4 10 0 6 -5 10 -11 10 -5 0
-7 -4 -4 -10z"/>
<path d="M2550 12684 c0 -31 23 -28 28 4 2 15 -2 22 -12 22 -11 0 -16 -9 -16
-26z"/>
<path d="M18570 12648 c0 -28 2 -49 4 -47 8 9 13 99 5 99 -5 0 -9 -23 -9 -52z"/>
<path d="M2358 12556 c-10 -7 -18 -16 -18 -19 0 -13 35 2 38 16 4 20 2 20 -20
3z"/>
<path d="M16920 12460 c0 -5 5 -10 10 -10 6 0 10 5 10 10 0 6 -4 10 -10 10 -5
0 -10 -4 -10 -10z"/>
<path d="M16960 12420 c0 -5 5 -10 11 -10 5 0 7 5 4 10 -3 6 -8 10 -11 10 -2
0 -4 -4 -4 -10z"/>
<path d="M2156 12104 c-8 -21 -8 -24 3 -24 12 0 22 28 12 35 -5 3 -12 -2 -15
-11z"/>
<path d="M2120 11990 c0 -11 2 -20 4 -20 2 0 6 9 9 20 3 11 1 20 -4 20 -5 0
-9 -9 -9 -20z"/>
<path d="M18561 11564 c0 -11 3 -14 6 -6 3 7 2 16 -1 19 -3 4 -6 -2 -5 -13z"/>
<path d="M1927 11440 c-3 -11 -1 -23 4 -26 5 -3 9 -1 9 5 0 5 3 16 6 25 3 9 2
16 -4 16 -5 0 -12 -9 -15 -20z"/>
<path d="M1935 11310 c3 -5 8 -10 11 -10 2 0 4 5 4 10 0 6 -5 10 -11 10 -5 0
-7 -4 -4 -10z"/>
<path d="M17350 11231 c0 -6 5 -13 10 -16 6 -3 10 1 10 9 0 9 -4 16 -10 16 -5
0 -10 -4 -10 -9z"/>
<path d="M1835 11200 c-3 -5 -1 -10 4 -10 6 0 11 5 11 10 0 6 -2 10 -4 10 -3
0 -8 -4 -11 -10z"/>
<path d="M2451 11144 c0 -11 3 -14 6 -6 3 7 2 16 -1 19 -3 4 -6 -2 -5 -13z"/>
<path d="M18540 11060 c0 -5 5 -10 11 -10 5 0 7 5 4 10 -3 6 -8 10 -11 10 -2
0 -4 -4 -4 -10z"/>
<path d="M2422 10845 c0 -16 2 -22 5 -12 2 9 2 23 0 30 -3 6 -5 -1 -5 -18z"/>
<path d="M17442 10844 c-1 -13 3 -24 8 -24 12 0 14 37 2 44 -4 2 -9 -6 -10
-20z"/>
<path d="M1677 10623 c-4 -3 -7 -11 -7 -17 0 -6 5 -5 12 2 6 6 9 14 7 17 -3 3
-9 2 -12 -2z"/>
<path d="M18492 10410 c0 -19 2 -27 5 -17 2 9 2 25 0 35 -3 9 -5 1 -5 -18z"/>
<path d="M1560 10141 c0 -5 5 -13 10 -16 6 -3 10 -2 10 4 0 5 -4 13 -10 16 -5
3 -10 2 -10 -4z"/>
<path d="M1530 10073 c0 -5 5 -15 10 -23 8 -12 10 -11 10 8 0 12 -4 22 -10 22
-5 0 -10 -3 -10 -7z"/>
<path d="M17587 9920 c-3 -11 -1 -23 4 -26 5 -3 9 6 9 20 0 31 -6 34 -13 6z"/>
<path d="M1451 9640 c0 -37 2 -41 9 -22 6 13 6 31 0 45 -7 18 -9 14 -9 -23z"/>
<path d="M18346 9525 c-3 -9 -2 -24 3 -32 7 -14 10 -13 16 6 8 27 -9 51 -19
26z"/>
<path d="M2410 9405 c0 -8 5 -15 10 -15 6 0 10 7 10 15 0 8 -4 15 -10 15 -5 0
-10 -7 -10 -15z"/>
<path d="M2440 9215 c0 -5 5 -17 10 -25 5 -8 10 -10 10 -5 0 6 -5 17 -10 25
-5 8 -10 11 -10 5z"/>
<path d="M18271 9054 c0 -11 3 -14 6 -6 3 7 2 16 -1 19 -3 4 -6 -2 -5 -13z"/>
<path d="M18221 8794 c0 -11 3 -14 6 -6 3 7 2 16 -1 19 -3 4 -6 -2 -5 -13z"/>
<path d="M18180 8705 c0 -8 5 -15 10 -15 6 0 10 7 10 15 0 8 -4 15 -10 15 -5
0 -10 -7 -10 -15z"/>
<path d="M2480 8650 c0 -5 5 -10 10 -10 6 0 10 5 10 10 0 6 -4 10 -10 10 -5 0
-10 -4 -10 -10z"/>
<path d="M2601 8274 c0 -11 3 -14 6 -6 3 7 2 16 -1 19 -3 4 -6 -2 -5 -13z"/>
<path d="M2640 8220 c0 -5 5 -10 10 -10 6 0 10 5 10 10 0 6 -4 10 -10 10 -5 0
-10 -4 -10 -10z"/>
<path d="M2660 8170 c0 -5 5 -10 11 -10 5 0 7 5 4 10 -3 6 -8 10 -11 10 -2 0
-4 -4 -4 -10z"/>
<path d="M17592 7960 c0 -14 2 -19 5 -12 2 6 2 18 0 25 -3 6 -5 1 -5 -13z"/>
<path d="M2700 7876 c0 -23 16 -27 17 -5 1 10 -2 19 -8 19 -5 0 -9 -6 -9 -14z"/>
<path d="M1231 7744 c0 -11 3 -14 6 -6 3 7 2 16 -1 19 -3 4 -6 -2 -5 -13z"/>
<path d="M2786 7746 c3 -9 11 -16 16 -16 13 0 5 23 -10 28 -7 2 -10 -2 -6 -12z"/>
<path d="M1231 7694 c0 -11 3 -14 6 -6 3 7 2 16 -1 19 -3 4 -6 -2 -5 -13z"/>
<path d="M2817 7665 c-4 -8 -2 -17 3 -20 6 -4 10 3 10 14 0 25 -6 27 -13 6z"/>
<path d="M17910 7630 c0 -5 5 -10 11 -10 5 0 7 5 4 10 -3 6 -8 10 -11 10 -2 0
-4 -4 -4 -10z"/>
<path d="M2855 7610 c3 -5 8 -10 11 -10 2 0 4 5 4 10 0 6 -5 10 -11 10 -5 0
-7 -4 -4 -10z"/>
<path d="M1232 7575 c0 -16 2 -22 5 -12 2 9 2 23 0 30 -3 6 -5 -1 -5 -18z"/>
<path d="M2965 7360 c3 -5 8 -10 11 -10 2 0 4 5 4 10 0 6 -5 10 -11 10 -5 0
-7 -4 -4 -10z"/>
<path d="M17792 7210 c0 -14 2 -19 5 -12 2 6 2 18 0 25 -3 6 -5 1 -5 -13z"/>
<path d="M17501 7184 c0 -11 3 -14 6 -6 3 7 2 16 -1 19 -3 4 -6 -2 -5 -13z"/>
<path d="M3111 7074 c0 -11 3 -14 6 -6 3 7 2 16 -1 19 -3 4 -6 -2 -5 -13z"/>
<path d="M1272 6975 c0 -16 2 -22 5 -12 2 9 2 23 0 30 -3 6 -5 -1 -5 -18z"/>
<path d="M17600 6930 c0 -17 2 -19 14 -8 14 13 12 28 -5 28 -5 0 -9 -9 -9 -20z"/>
<path d="M17570 6866 c0 -2 7 -9 15 -16 12 -10 15 -10 15 4 0 9 -7 16 -15 16
-8 0 -15 -2 -15 -4z"/>
<path d="M17680 6854 c0 -8 5 -12 10 -9 6 3 10 10 10 16 0 5 -4 9 -10 9 -5 0
-10 -7 -10 -16z"/>
<path d="M3237 6840 c3 -11 9 -20 14 -20 5 0 9 9 9 20 0 11 -6 20 -14 20 -9 0
-12 -7 -9 -20z"/>
<path d="M17441 6844 c0 -11 3 -14 6 -6 3 7 2 16 -1 19 -3 4 -6 -2 -5 -13z"/>
<path d="M3280 6776 c0 -8 5 -18 10 -21 6 -3 10 1 10 9 0 8 -4 18 -10 21 -5 3
-10 -1 -10 -9z"/>
<path d="M3330 6691 c0 -6 5 -13 10 -16 6 -3 10 1 10 9 0 9 -4 16 -10 16 -5 0
-10 -4 -10 -9z"/>
<path d="M17390 6554 c0 -8 5 -12 10 -9 6 4 8 11 5 16 -9 14 -15 11 -15 -7z"/>
<path d="M3412 6528 c-14 -14 -16 -28 -2 -28 5 0 14 9 20 20 12 22 1 27 -18 8z"/>
<path d="M6835 6476 c-64 -30 -127 -91 -161 -158 -24 -45 -28 -66 -28 -138 0
-98 8 -124 75 -230 59 -93 69 -119 69 -179 0 -59 -32 -95 -112 -127 -29 -12
-54 -29 -56 -38 -4 -18 64 -184 84 -205 19 -21 74 -6 136 36 128 86 178 181
178 335 0 48 -4 89 -9 92 -5 3 -12 18 -16 33 -3 15 -28 64 -54 109 -27 44 -55
101 -63 126 -15 42 -15 49 2 84 19 42 71 80 97 70 26 -10 45 12 31 38 -6 11
-23 55 -37 96 -24 70 -28 75 -56 77 -17 1 -52 -9 -80 -21z"/>
<path d="M7324 6476 c-28 -13 -76 -49 -106 -80 -72 -72 -93 -135 -85 -247 7
-81 23 -125 77 -204 56 -82 73 -125 68 -177 -6 -61 -39 -98 -114 -129 -64 -25
-66 -35 -27 -129 34 -83 60 -120 82 -120 30 0 124 46 157 77 41 39 99 124 116
170 7 22 13 79 13 133 -1 91 -2 98 -39 165 -21 39 -42 75 -46 80 -18 24 -57
102 -63 127 -12 48 3 88 46 119 23 17 48 27 57 24 10 -3 22 1 28 8 9 10 3 36
-22 108 -31 87 -36 94 -62 97 -16 1 -52 -9 -80 -22z"/>
<path d="M11694 6470 c-102 -51 -167 -129 -179 -217 -3 -21 -8 -48 -10 -60 -9
-40 24 -156 60 -213 51 -81 95 -172 95 -198 0 -60 -64 -130 -136 -148 -49 -12
-49 -39 1 -149 33 -71 52 -95 76 -95 42 0 115 44 174 105 81 83 108 153 108
275 0 94 -7 112 -99 269 -40 70 -49 94 -49 133 0 40 5 53 32 79 22 23 40 32
62 31 50 -1 54 16 19 104 -17 43 -34 86 -38 94 -12 26 -52 22 -116 -10z"/>
<path d="M12194 6480 c-64 -26 -147 -104 -176 -167 -17 -37 -22 -67 -22 -133
-1 -99 7 -122 82 -245 90 -146 83 -227 -22 -279 -28 -14 -59 -27 -68 -30 -11
-3 -18 -15 -17 -28 1 -33 71 -189 91 -201 25 -16 85 6 151 55 108 82 157 177
157 309 0 91 -14 136 -76 238 -26 42 -55 98 -65 126 -15 44 -16 53 -3 84 8 18
14 35 14 36 0 11 61 39 85 40 26 0 30 4 29 25 -1 14 -14 61 -30 105 -34 92
-45 98 -130 65z"/>
<path d="M12773 6491 c-109 -28 -220 -140 -273 -275 -40 -101 -53 -192 -45
-321 10 -158 59 -283 147 -376 57 -61 92 -84 157 -103 288 -85 532 218 492
611 -21 203 -120 372 -256 438 -60 30 -161 41 -222 26z m157 -288 c37 -26 67
-63 91 -113 29 -60 32 -205 6 -264 -33 -75 -78 -124 -130 -142 -45 -15 -52
-15 -91 0 -81 31 -134 113 -143 224 -10 121 36 244 110 291 41 26 122 28 157
4z"/>
<path d="M13640 6491 c-136 -45 -225 -152 -281 -341 -26 -86 -28 -306 -4 -394
73 -273 275 -412 482 -334 64 24 158 111 170 156 5 22 -15 74 -66 172 -15 28
-42 22 -85 -18 -63 -58 -121 -69 -198 -37 -20 8 -57 55 -83 105 -15 28 -19 59
-19 150 -1 106 1 119 26 166 15 28 43 65 63 82 31 27 43 32 89 32 49 0 59 -4
106 -42 80 -65 78 -64 93 -48 24 26 79 171 73 194 -8 34 -85 104 -145 133 -60
28 -172 40 -221 24z"/>
<path d="M16705 6470 c-109 -51 -172 -140 -182 -257 -7 -88 9 -164 49 -222 17
-25 46 -75 65 -111 31 -57 34 -71 29 -114 -3 -31 -14 -58 -27 -72 -25 -26 -96
-64 -121 -64 -28 0 -27 -26 0 -97 39 -99 67 -143 93 -143 33 0 132 57 178 103
87 86 131 238 102 354 -7 26 -38 93 -70 148 -81 141 -86 156 -72 208 14 48 45
75 93 81 18 2 36 4 41 5 10 1 9 39 -2 45 -5 3 -16 29 -25 58 -32 101 -36 108
-65 107 -14 0 -53 -13 -86 -29z"/>
<path d="M6074 6478 c-4 -6 -10 -24 -15 -42 -22 -83 -39 -146 -54 -201 -10
-33 -21 -73 -25 -90 -5 -16 -23 -79 -40 -140 -90 -313 -152 -556 -146 -571 4
-10 29 -14 96 -14 106 0 123 11 134 84 11 71 20 76 149 76 62 0 117 -4 124 -8
14 -9 43 -85 43 -113 0 -29 32 -39 128 -39 111 0 121 8 99 77 -8 26 -20 68
-27 93 -6 25 -20 72 -30 105 -24 76 -79 269 -90 315 -4 19 -22 80 -39 135 -18
55 -41 132 -53 170 -30 103 -51 159 -61 166 -16 11 -186 8 -193 -3z m140 -460
c30 -133 33 -153 24 -177 -7 -20 -14 -22 -65 -19 -57 3 -58 3 -61 35 -2 18 6
67 18 110 44 162 57 169 84 51z"/>
<path d="M7857 6482 c-7 -13 -83 -279 -118 -412 -11 -41 -34 -122 -50 -180
-127 -452 -125 -441 -102 -458 19 -14 184 -14 198 0 4 4 11 28 16 54 17 91 22
94 160 91 137 -2 142 -5 153 -84 9 -69 15 -73 122 -73 97 0 132 14 119 48 -3
8 -14 47 -25 86 -56 211 -73 268 -119 416 -17 52 -48 160 -71 240 -48 173 -73
247 -89 263 -12 12 -189 20 -194 9z m120 -409 c6 -16 16 -50 23 -78 40 -160
36 -175 -46 -175 -75 0 -79 13 -42 154 17 61 32 114 34 118 10 15 22 8 31 -19z"/>
<path d="M10943 6482 c-5 -4 -18 -36 -27 -72 -20 -75 -22 -80 -71 -255 -20
-71 -43 -155 -51 -185 -8 -30 -20 -68 -25 -85 -6 -16 -17 -57 -24 -90 -8 -33
-20 -78 -28 -100 -8 -22 -18 -59 -22 -83 -4 -23 -11 -44 -16 -48 -5 -3 -9 -15
-9 -26 0 -12 -5 -36 -12 -54 -19 -53 -2 -64 101 -64 47 0 91 4 98 8 15 10 33
57 33 88 0 13 9 33 20 44 18 18 33 20 128 20 73 0 114 -4 126 -13 10 -7 22
-35 27 -62 15 -79 27 -86 137 -83 120 4 124 8 93 109 -25 80 -34 113 -50 174
-11 40 -78 270 -130 445 -65 218 -92 303 -100 318 -7 12 -29 17 -98 18 -49 2
-94 0 -100 -4z m142 -498 c15 -63 24 -126 21 -140 -6 -22 -11 -24 -66 -24 -56
0 -60 2 -66 27 -4 14 -2 40 4 57 6 17 13 47 17 66 12 66 37 130 49 130 8 0 23
-43 41 -116z"/>
<path d="M14673 6477 c-6 -6 -24 -64 -41 -127 -43 -161 -95 -348 -127 -460
-15 -52 -34 -120 -42 -150 -15 -55 -25 -90 -58 -205 -9 -34 -15 -72 -13 -85 3
-24 6 -25 97 -28 58 -2 98 1 106 8 8 7 19 36 25 66 17 81 23 84 153 84 62 0
117 -4 124 -8 7 -4 19 -34 27 -66 9 -32 21 -65 27 -72 17 -21 207 -20 215 1 6
15 -10 104 -26 140 -5 11 -11 31 -13 45 -3 14 -26 97 -52 185 -26 88 -50 171
-52 185 -2 14 -9 34 -14 45 -9 21 -55 175 -69 233 -5 19 -13 46 -18 60 -5 15
-18 53 -28 86 -11 32 -23 60 -29 61 -5 2 -49 6 -96 9 -63 4 -89 3 -96 -7z
m126 -414 c23 -85 41 -171 41 -194 0 -37 -18 -49 -72 -49 -79 0 -80 7 -17 243
5 21 16 37 24 37 8 0 19 -17 24 -37z"/>
<path d="M8507 6471 c-71 -6 -90 -19 -82 -56 9 -47 14 -556 7 -735 -5 -107 -6
-206 -2 -220 6 -24 9 -25 108 -28 98 -3 102 -2 107 20 3 13 1 129 -3 258 -9
226 -6 260 19 260 5 0 21 -23 35 -52 15 -29 36 -68 49 -88 12 -19 68 -117 125
-216 114 -202 105 -194 221 -194 82 0 76 -38 80 535 l4 510 -105 0 -105 0 0
-275 c0 -238 -2 -275 -15 -275 -9 0 -48 59 -96 145 -44 80 -98 177 -119 215
-22 39 -47 86 -58 105 -57 107 -48 102 -170 91z"/>
<path d="M9870 6473 c-35 -7 -89 -60 -112 -113 -25 -56 -29 -179 -9 -267 l15
-63 -65 -63 c-36 -36 -77 -88 -93 -121 -25 -50 -29 -69 -30 -149 -1 -108 16
-177 56 -228 75 -97 192 -92 299 13 33 32 67 58 77 58 9 0 28 -16 42 -35 14
-19 43 -47 64 -61 34 -23 46 -26 104 -22 43 3 68 9 76 20 6 8 11 49 10 93 -2
83 -8 95 -56 95 -33 0 -98 54 -98 80 0 28 46 76 89 94 45 17 61 54 61 137 0
54 -13 69 -58 69 -49 0 -103 -34 -136 -86 -16 -25 -35 -44 -45 -44 -17 0 -91
105 -91 129 0 6 20 32 45 58 85 91 111 180 80 281 -34 110 -101 147 -225 125z
m112 -140 c34 -31 16 -105 -40 -165 -33 -35 -44 -35 -65 1 -31 53 -17 164 22
174 35 10 65 6 83 -10z m-112 -527 c0 -4 14 -28 30 -53 38 -56 38 -81 -1 -121
-39 -40 -85 -43 -126 -8 -24 21 -28 31 -27 82 0 63 29 134 61 153 14 8 23 5
40 -17 13 -15 23 -31 23 -36z"/>
<path d="M15660 6469 c-36 -5 -148 -8 -250 -6 l-185 2 -12 -85 c-6 -47 -12
-100 -12 -118 l-1 -33 84 2 c46 1 90 -2 96 -6 10 -6 12 -88 6 -392 -5 -288 -4
-388 5 -399 15 -18 189 -20 207 -2 9 9 11 101 5 395 -5 315 -4 385 7 399 12
13 26 15 86 9 62 -6 74 -4 82 10 12 23 2 218 -12 227 -12 9 -16 9 -106 -3z"/>
<path d="M15878 6467 c-19 -7 -20 -13 -14 -125 4 -64 6 -236 5 -382 -2 -146
-3 -323 -3 -395 l-1 -130 265 -6 c187 -4 268 -3 277 5 17 16 32 224 18 243
-10 13 -21 14 -77 4 -103 -18 -222 -15 -240 7 -20 22 -30 95 -18 128 l10 26
135 -3 c77 -2 139 1 144 6 5 6 11 61 13 124 l3 115 -140 -2 c-77 -2 -146 1
-153 6 -15 10 -20 121 -7 143 6 9 47 10 162 6 120 -4 155 -3 159 7 7 18 -13
207 -23 217 -10 10 -488 16 -515 6z"/>
<path d="M4969 6468 c-7 -22 -3 -1026 4 -1035 6 -9 39 -13 98 -13 128 0 123
-8 115 216 -5 152 -4 183 8 193 16 14 236 19 274 7 22 -7 22 -9 22 -206 l0
-200 25 -6 c46 -11 185 0 196 16 5 9 7 58 4 120 -10 193 -12 433 -5 660 4 140
3 230 -3 238 -7 9 -38 12 -111 10 l-101 -3 0 -175 c0 -96 -4 -181 -8 -187 -10
-15 -273 -18 -296 -4 -11 7 -13 43 -10 187 l4 179 -107 3 c-60 1 -108 1 -109
0z"/>
<path d="M14095 6458 c-2 -7 -6 -241 -8 -520 -4 -442 -3 -507 10 -512 8 -3 54
-6 103 -6 66 0 91 4 100 15 10 12 11 76 6 293 -4 154 -2 374 3 496 8 158 7
223 -1 233 -15 18 -207 19 -213 1z"/>
<path d="M17330 6309 c0 -11 5 -17 10 -14 6 3 10 13 10 21 0 8 -4 14 -10 14
-5 0 -10 -9 -10 -21z"/>
<path d="M17385 6270 c-3 -5 -1 -10 4 -10 6 0 11 5 11 10 0 6 -2 10 -4 10 -3
0 -8 -4 -11 -10z"/>
<path d="M17438 6224 c-5 -4 -8 -16 -8 -28 0 -14 3 -17 11 -9 6 6 9 19 7 28
-1 9 -6 13 -10 9z"/>
<path d="M3671 6204 c0 -11 3 -14 6 -6 3 7 2 16 -1 19 -3 4 -6 -2 -5 -13z"/>
<path d="M1423 6185 c0 -8 4 -15 9 -15 4 0 8 7 8 15 0 8 -4 15 -8 15 -5 0 -9
-7 -9 -15z"/>
<path d="M3631 6174 c0 -11 3 -14 6 -6 3 7 2 16 -1 19 -3 4 -6 -2 -5 -13z"/>
<path d="M17445 6171 c-3 -5 -2 -12 3 -15 5 -3 9 1 9 9 0 17 -3 19 -12 6z"/>
<path d="M3715 6150 c3 -5 8 -10 11 -10 2 0 4 5 4 10 0 6 -5 10 -11 10 -5 0
-7 -4 -4 -10z"/>
<path d="M3750 6110 c0 -10 36 -50 44 -50 2 0 -1 11 -7 25 -12 25 -37 42 -37
25z"/>
<path d="M3850 5976 c0 -9 7 -16 16 -16 17 0 14 22 -4 28 -7 2 -12 -3 -12 -12z"/>
<path d="M1431 5944 c0 -11 3 -14 6 -6 3 7 2 16 -1 19 -3 4 -6 -2 -5 -13z"/>
<path d="M17292 5790 c0 -14 2 -19 5 -12 2 6 2 18 0 25 -3 6 -5 1 -5 -13z"/>
<path d="M4020 5720 c0 -5 5 -10 11 -10 5 0 7 5 4 10 -3 6 -8 10 -11 10 -2 0
-4 -4 -4 -10z"/>
<path d="M17240 5701 c-5 -11 -10 -28 -10 -37 0 -16 2 -16 14 -4 19 20 30 60
17 60 -6 0 -15 -9 -21 -19z"/>
<path d="M4075 5650 c3 -5 8 -10 11 -10 2 0 4 5 4 10 0 6 -5 10 -11 10 -5 0
-7 -4 -4 -10z"/>
<path d="M17200 5618 c0 -9 -6 -19 -12 -21 -10 -4 -10 -6 0 -6 14 -1 28 26 18
36 -3 4 -6 -1 -6 -9z"/>
<path d="M4205 5520 c3 -5 11 -10 16 -10 6 0 7 5 4 10 -3 6 -11 10 -16 10 -6
0 -7 -4 -4 -10z"/>
<path d="M17121 5501 c-22 -31 -27 -46 -11 -36 17 10 52 65 41 65 -5 0 -19
-13 -30 -29z"/>
<path d="M1650 5210 c0 -5 5 -10 10 -10 6 0 10 5 10 10 0 6 -4 10 -10 10 -5 0
-10 -4 -10 -10z"/>
<path d="M4745 5140 c3 -5 10 -10 16 -10 5 0 9 5 9 10 0 6 -7 10 -16 10 -8 0
-12 -4 -9 -10z"/>
<path d="M5225 4810 c-3 -5 1 -13 10 -16 22 -9 29 1 11 15 -10 8 -16 9 -21 1z"/>
<path d="M5305 4760 c3 -5 10 -10 16 -10 5 0 9 5 9 10 0 6 -7 10 -16 10 -8 0
-12 -4 -9 -10z"/>
<path d="M1940 4591 c0 -10 19 -25 25 -20 1 2 -3 10 -11 17 -8 7 -14 8 -14 3z"/>
<path d="M2002 4530 c0 -14 2 -19 5 -12 2 6 2 18 0 25 -3 6 -5 1 -5 -13z"/>
<path d="M5830 4460 c20 -13 40 -13 40 0 0 6 -12 10 -27 10 -22 0 -25 -2 -13
-10z"/>
<path d="M2035 4370 c3 -5 8 -10 11 -10 2 0 4 5 4 10 0 6 -5 10 -11 10 -5 0
-7 -4 -4 -10z"/>
<path d="M6045 4330 c3 -5 13 -10 21 -10 8 0 14 5 14 10 0 6 -9 10 -21 10 -11
0 -17 -4 -14 -10z"/>
<path d="M2080 4305 c0 -8 4 -15 10 -15 5 0 7 7 4 15 -4 8 -8 15 -10 15 -2 0
-4 -7 -4 -15z"/>
<path d="M2117 4253 c-4 -3 -7 -11 -7 -17 0 -6 5 -5 12 2 6 6 9 14 7 17 -3 3
-9 2 -12 -2z"/>
<path d="M6778 4083 c7 -3 16 -2 19 1 4 3 -2 6 -13 5 -11 0 -14 -3 -6 -6z"/>
<path d="M2397 3844 c-8 -8 1 -24 14 -24 5 0 9 7 9 15 0 15 -12 20 -23 9z"/>
<path d="M8108 3633 c7 -3 16 -2 19 1 4 3 -2 6 -13 5 -11 0 -14 -3 -6 -6z"/>
<path d="M2670 3590 c0 -5 5 -10 11 -10 5 0 7 5 4 10 -3 6 -8 10 -11 10 -2 0
-4 -4 -4 -10z"/>
<path d="M8270 3570 c0 -5 5 -10 10 -10 6 0 10 5 10 10 0 6 -4 10 -10 10 -5 0
-10 -4 -10 -10z"/>
<path d="M8980 3300 c0 -5 15 -10 33 -10 24 0 28 3 17 10 -20 13 -50 13 -50 0z"/>
<path d="M3037 3128 c18 -18 35 -29 39 -25 9 9 -15 37 -32 37 -8 0 -14 5 -14
10 0 6 -6 10 -12 10 -7 0 2 -14 19 -32z"/>
<path d="M9425 2960 c-3 -5 -1 -10 4 -10 6 0 11 5 11 10 0 6 -2 10 -4 10 -3 0
-8 -4 -11 -10z"/>
<path d="M3245 2940 c3 -5 8 -10 11 -10 2 0 4 5 4 10 0 6 -5 10 -11 10 -5 0
-7 -4 -4 -10z"/>
<path d="M3286 2907 c2 -7 14 -13 25 -13 19 0 19 1 3 13 -10 7 -21 13 -26 13
-4 0 -5 -6 -2 -13z"/>
<path d="M3342 2868 c5 -15 28 -23 28 -10 0 5 -7 13 -16 16 -10 4 -14 1 -12
-6z"/>
<path d="M9523 2863 c-15 -6 -17 -49 -3 -58 6 -3 10 -1 10 4 0 6 14 11 30 11
17 0 30 -5 30 -11 0 -6 5 -7 13 -2 6 4 17 8 22 9 6 0 16 2 23 2 10 2 10 7 2
22 -8 15 -17 19 -31 15 -11 -4 -19 -2 -19 4 0 11 -54 14 -77 4z"/>
<path d="M9470 2810 c0 -5 5 -10 11 -10 5 0 7 5 4 10 -3 6 -8 10 -11 10 -2 0
-4 -4 -4 -10z"/>
<path d="M9660 2808 c-25 -10 -25 -10 -3 -18 16 -7 21 -17 21 -39 -1 -31 -13
-41 -21 -18 -2 6 -7 9 -10 6 -6 -4 10 -64 21 -79 2 -3 10 4 18 15 15 19 16 19
29 2 7 -11 11 -25 8 -33 -5 -15 22 -13 55 5 11 6 21 8 24 6 2 -2 5 7 6 20 2
23 -15 32 -50 26 -5 0 -8 12 -8 28 0 22 -6 31 -29 41 -17 6 -31 20 -33 30 -2
14 -7 16 -28 8z"/>
<path d="M3465 2800 c-3 -5 -1 -10 4 -10 6 0 11 5 11 10 0 6 -2 10 -4 10 -3 0
-8 -4 -11 -10z"/>
<path d="M9615 2770 c3 -5 13 -10 21 -10 8 0 14 5 14 10 0 6 -9 10 -21 10 -11
0 -17 -4 -14 -10z"/>
<path d="M9850 2770 c0 -5 5 -10 10 -10 6 0 10 5 10 10 0 6 -4 10 -10 10 -5 0
-10 -4 -10 -10z"/>
<path d="M9164 2691 c-2 -2 -4 -12 -4 -22 0 -19 46 -28 95 -18 17 4 22 7 13 8
-22 1 -24 21 -3 21 8 0 15 3 15 8 0 7 -108 10 -116 3z"/>
<path d="M9905 2690 c3 -5 8 -10 11 -10 2 0 4 5 4 10 0 6 -5 10 -11 10 -5 0
-7 -4 -4 -10z"/>
<path d="M9080 2639 c0 -5 5 -7 10 -4 6 3 10 8 10 11 0 2 -4 4 -10 4 -5 0 -10
-5 -10 -11z"/>
<path d="M9662 2645 c10 -11 48 -14 48 -4 0 5 -12 9 -27 9 -14 0 -24 -2 -21
-5z"/>
<path d="M9770 2625 c-10 -12 -10 -19 -2 -27 7 -7 12 -10 13 -7 0 2 2 14 5 27
5 26 1 28 -16 7z"/>
<path d="M9965 2600 c3 -5 8 -10 11 -10 2 0 4 5 4 10 0 6 -5 10 -11 10 -5 0
-7 -4 -4 -10z"/>
<path d="M3695 2580 c3 -5 8 -10 11 -10 2 0 4 5 4 10 0 6 -5 10 -11 10 -5 0
-7 -4 -4 -10z"/>
<path d="M9610 2570 c-10 -7 9 -10 63 -10 45 0 77 4 77 10 0 13 -120 13 -140
0z"/>
<path d="M3735 2556 c11 -8 27 -16 35 -16 20 0 1 16 -30 25 -24 7 -24 7 -5 -9z"/>
<path d="M9785 2550 c10 -11 27 -20 38 -20 15 0 18 -5 15 -25 -3 -13 -2 -23 2
-22 4 1 17 -9 29 -22 19 -21 22 -22 36 -7 9 9 18 16 21 16 9 0 3 -20 -12 -34
-16 -16 -8 -21 20 -10 9 3 16 17 16 30 0 21 -4 24 -40 24 -36 0 -40 3 -40 25
0 15 -6 25 -14 25 -7 0 -16 9 -19 20 -4 15 -14 20 -38 20 -31 0 -32 0 -14 -20z"/>
<path d="M8903 2520 c0 -25 2 -35 4 -22 2 12 2 32 0 45 -2 12 -4 2 -4 -23z"/>
<path d="M8758 2473 c23 -2 61 -2 85 0 23 2 4 4 -43 4 -47 0 -66 -2 -42 -4z"/>
<path d="M9940 2409 c0 -5 -3 -8 -7 -6 -5 3 -9 -16 -10 -41 -1 -34 1 -41 7
-27 7 17 9 17 9 3 1 -10 3 -18 5 -18 2 0 11 -3 20 -6 28 -11 19 35 -8 48 -22
9 -23 13 -10 25 16 17 18 33 4 33 -5 0 -10 -5 -10 -11z"/>
<path d="M10091 2384 c0 -11 3 -14 6 -6 3 7 2 16 -1 19 -3 4 -6 -2 -5 -13z"/>
<path d="M8518 2293 c23 -2 61 -2 85 0 23 2 4 4 -43 4 -47 0 -66 -2 -42 -4z"/>
<path d="M9923 2249 c-1 -12 4 -15 17 -12 27 7 31 28 6 28 -13 0 -23 -7 -23
-16z"/>
<path d="M8328 2222 c-42 -3 -48 -6 -47 -25 1 -17 2 -18 6 -4 6 21 26 22 43 2
14 -17 30 -20 30 -5 0 6 -8 11 -17 11 -10 1 -2 4 17 8 47 8 26 17 -32 13z"/>
<path d="M9997 2223 c-15 -4 -16 -7 -6 -20 10 -11 10 -19 1 -33 -7 -12 -8 -21
-2 -25 6 -3 10 -18 10 -32 0 -20 3 -23 14 -14 7 6 20 9 28 6 12 -5 15 4 14 42
-1 42 -3 48 -21 45 -19 -2 -19 -2 -2 12 16 12 16 14 1 20 -8 3 -16 5 -17 5 -1
-1 -10 -3 -20 -6z"/>
<path d="M8400 2210 c0 -13 11 -13 30 0 12 8 11 10 -7 10 -13 0 -23 -4 -23
-10z"/>
<path d="M8460 2180 c0 -5 5 -10 10 -10 6 0 10 5 10 10 0 6 -4 10 -10 10 -5 0
-10 -4 -10 -10z"/>
<path d="M9920 2181 c0 -5 9 -7 20 -4 11 3 20 7 20 9 0 2 -9 4 -20 4 -11 0
-20 -4 -20 -9z"/>
<path d="M4385 2160 c-3 -5 3 -10 15 -10 12 0 18 5 15 10 -3 6 -10 10 -15 10
-5 0 -12 -4 -15 -10z"/>
<path d="M10152 2140 c0 -14 2 -19 5 -12 2 6 2 18 0 25 -3 6 -5 1 -5 -13z"/>
<path d="M8270 2140 c-8 -5 -24 -7 -35 -4 -15 5 -17 3 -9 -5 11 -13 74 -4 74
10 0 12 -11 11 -30 -1z"/>
<path d="M8190 2124 c0 -8 5 -12 10 -9 6 3 10 10 10 16 0 5 -4 9 -10 9 -5 0
-10 -7 -10 -16z"/>
<path d="M8300 2100 c0 -11 5 -20 10 -20 6 0 10 9 10 20 0 11 -4 20 -10 20 -5
0 -10 -9 -10 -20z"/>
<path d="M8070 2091 c0 -6 -6 -11 -14 -11 -11 0 -13 -10 -9 -42 6 -44 24 -75
40 -65 12 8 7 121 -6 125 -6 2 -11 -1 -11 -7z"/>
<path d="M9944 2089 c-3 -6 1 -18 9 -27 13 -13 19 -13 32 -2 12 10 13 16 4 26
-14 17 -35 18 -45 3z"/>
<path d="M10053 2058 c-17 -22 -23 -47 -13 -53 6 -4 6 -14 -1 -26 -7 -14 -7
-24 0 -33 6 -7 8 -16 4 -19 -3 -4 -1 -7 5 -7 13 0 26 36 17 49 -3 5 -1 12 5
16 12 8 14 85 1 85 -5 0 -13 -6 -18 -12z"/>
<path d="M9954 2016 c-23 -18 1 -16 31 2 15 8 16 11 4 12 -8 0 -24 -6 -35 -14z"/>
<path d="M7960 1990 c0 -5 6 -10 14 -10 8 0 18 5 21 10 3 6 -3 10 -14 10 -12
0 -21 -4 -21 -10z"/>
<path d="M7905 1970 c-3 -5 -1 -10 4 -10 6 0 11 5 11 10 0 6 -2 10 -4 10 -3 0
-8 -4 -11 -10z"/>
<path d="M7849 1959 c16 -6 28 -6 35 1 7 7 -1 10 -24 9 -33 0 -34 -1 -11 -10z"/>
<path d="M8125 1960 c-3 -5 -1 -10 4 -10 6 0 11 5 11 10 0 6 -2 10 -4 10 -3 0
-8 -4 -11 -10z"/>
<path d="M7883 1933 c9 -2 23 -2 30 0 6 3 -1 5 -18 5 -16 0 -22 -2 -12 -5z"/>
<path d="M10067 1904 c-4 -4 -7 -16 -7 -26 0 -20 25 -25 36 -7 8 13 -19 43
-29 33z"/>
<path d="M7660 1880 c0 -5 5 -10 10 -10 6 0 10 5 10 10 0 6 -4 10 -10 10 -5 0
-10 -4 -10 -10z"/>
<path d="M7695 1880 c8 -13 35 -13 55 0 11 7 5 10 -23 10 -23 0 -36 -4 -32
-10z"/>
<path d="M7780 1880 c0 -5 5 -10 10 -10 6 0 10 5 10 10 0 6 -4 10 -10 10 -5 0
-10 -4 -10 -10z"/>
<path d="M10010 1880 c0 -5 5 -10 10 -10 6 0 10 5 10 10 0 6 -4 10 -10 10 -5
0 -10 -4 -10 -10z"/>
<path d="M7650 1852 c0 -4 -10 -12 -21 -17 -25 -11 -27 -28 -6 -33 9 -2 22 11
30 27 9 17 11 31 6 31 -5 0 -9 -3 -9 -8z"/>
<path d="M7815 1840 c3 -5 10 -10 16 -10 5 0 9 5 9 10 0 6 -7 10 -16 10 -8 0
-12 -4 -9 -10z"/>
<path d="M10036 1843 c-11 -11 -6 -23 9 -23 8 0 15 4 15 9 0 13 -16 22 -24 14z"/>
<path d="M7698 1833 c6 -2 18 -2 25 0 6 3 1 5 -13 5 -14 0 -19 -2 -12 -5z"/>
<path d="M9962 1805 c-17 -21 -19 -32 -11 -58 13 -45 13 -45 -25 -68 -34 -20
-34 -21 -17 -38 10 -10 21 -25 24 -32 6 -16 41 20 57 59 6 13 18 22 30 22 19
0 21 5 19 60 -1 33 -6 60 -11 60 -4 0 -8 -5 -8 -10 0 -6 -6 -5 -14 2 -10 9
-11 15 -2 20 7 5 5 8 -6 8 -9 0 -26 -11 -36 -25z"/>
<path d="M7730 1805 c-7 -8 -10 -24 -7 -35 3 -11 1 -23 -5 -26 -18 -11 15 -24
65 -24 l47 0 0 44 c0 31 -5 46 -16 50 -28 11 -71 6 -84 -9z"/>
<path d="M7677 1796 c-4 -10 -1 -13 8 -9 8 3 12 9 9 14 -7 12 -11 11 -17 -5z"/>
<path d="M7570 1789 c0 -5 5 -7 10 -4 6 3 10 8 10 11 0 2 -4 4 -10 4 -5 0 -10
-5 -10 -11z"/>
<path d="M9881 1741 c-18 -12 -6 -61 15 -61 14 0 14 2 -1 16 -15 15 -15 18 1
35 18 20 9 25 -15 10z"/>
<path d="M7520 1710 c0 -5 5 -10 10 -10 6 0 10 5 10 10 0 6 -4 10 -10 10 -5 0
-10 -4 -10 -10z"/>
<path d="M7738 1683 c7 -3 16 -2 19 1 4 3 -2 6 -13 5 -11 0 -14 -3 -6 -6z"/>
<path d="M7395 1630 c3 -5 13 -10 21 -10 8 0 12 5 9 10 -3 6 -13 10 -21 10 -8
0 -12 -4 -9 -10z"/>
<path d="M9866 1632 c-2 -4 -1 -14 3 -21 6 -9 10 -7 14 8 5 20 -7 29 -17 13z"/>
<path d="M7448 1623 c6 -2 18 -2 25 0 6 3 1 5 -13 5 -14 0 -19 -2 -12 -5z"/>
<path d="M10087 1624 c-4 -4 -7 -14 -7 -23 0 -11 3 -12 11 -4 6 6 10 16 7 23
-2 6 -7 8 -11 4z"/>
<path d="M7290 1575 c0 -23 4 -25 44 -25 76 0 72 42 -4 47 -37 2 -40 0 -40
-22z"/>
<path d="M9892 1567 c-17 -19 -106 -49 -126 -41 -9 4 -18 0 -22 -10 -3 -9 -11
-13 -17 -9 -6 3 -7 1 -3 -5 9 -15 12 -15 30 4 15 14 16 14 16 0 0 -15 -8 -18
-55 -20 -13 -1 -21 -9 -23 -23 -2 -12 -11 -23 -20 -25 -10 -2 -13 -6 -6 -10 6
-4 32 4 57 17 26 13 49 19 52 15 8 -13 35 0 35 16 0 8 14 17 30 21 17 3 30 9
30 14 0 5 9 18 21 30 11 11 19 25 17 31 -2 6 -9 4 -16 -5z"/>
<path d="M7181 1550 c-11 -6 -4 -10 25 -15 75 -12 83 -12 78 -4 -3 5 -23 9
-44 9 -21 0 -40 4 -42 10 -2 6 -9 6 -17 0z"/>
<path d="M9970 1520 c0 -5 5 -10 10 -10 6 0 10 5 10 10 0 6 -4 10 -10 10 -5 0
-10 -4 -10 -10z"/>
<path d="M9615 1500 c2 -11 0 -20 -6 -20 -5 0 -9 -5 -9 -12 0 -9 3 -9 12 0 7
7 26 12 43 12 30 0 55 15 55 32 0 4 -7 8 -15 8 -8 0 -15 -5 -15 -11 0 -5 5 -7
12 -3 7 4 8 3 4 -5 -6 -8 -12 -9 -20 -2 -7 6 -16 8 -19 4 -4 -3 -7 -1 -7 5 0
7 -9 12 -19 12 -14 0 -19 -6 -16 -20z"/>
<path d="M9505 1500 c-3 -5 -1 -10 4 -10 6 0 11 5 11 10 0 6 -2 10 -4 10 -3 0
-8 -4 -11 -10z"/>
<path d="M10000 1480 c0 -5 5 -10 10 -10 6 0 10 5 10 10 0 6 -4 10 -10 10 -5
0 -10 -4 -10 -10z"/>
<path d="M7075 1460 c3 -5 8 -10 11 -10 2 0 4 5 4 10 0 6 -5 10 -11 10 -5 0
-7 -4 -4 -10z"/>
<path d="M9480 1456 c0 -9 5 -16 10 -16 6 0 10 4 10 9 0 6 -4 13 -10 16 -5 3
-10 -1 -10 -9z"/>
<path d="M9945 1440 c3 -5 8 -10 11 -10 2 0 4 5 4 10 0 6 -5 10 -11 10 -5 0
-7 -4 -4 -10z"/>
<path d="M7140 1401 c0 -22 -5 -42 -12 -44 -7 -3 10 -5 37 -5 28 0 40 3 28 5
-13 3 -20 10 -17 18 3 7 1 16 -5 20 -6 3 -11 15 -11 26 0 10 -4 19 -10 19 -5
0 -10 -18 -10 -39z"/>
<path d="M7520 1420 c0 -24 6 -25 26 -6 19 20 18 26 -6 26 -13 0 -20 -7 -20
-20z"/>
<path d="M7760 1430 c0 -5 18 -10 40 -10 22 0 40 5 40 10 0 6 -18 10 -40 10
-22 0 -40 -4 -40 -10z"/>
<path d="M8520 1430 c0 -5 18 -10 40 -10 22 0 40 5 40 10 0 6 -18 10 -40 10
-22 0 -40 -4 -40 -10z"/>
<path d="M8620 1430 c0 -5 5 -10 11 -10 5 0 7 5 4 10 -3 6 -8 10 -11 10 -2 0
-4 -4 -4 -10z"/>
<path d="M8650 1430 c0 -5 11 -10 25 -10 14 0 25 5 25 10 0 6 -11 10 -25 10
-14 0 -25 -4 -25 -10z"/>
<path d="M8900 1430 c0 -5 14 -10 30 -10 17 0 30 5 30 10 0 6 -13 10 -30 10
-16 0 -30 -4 -30 -10z"/>
<path d="M9120 1420 c0 -24 6 -25 26 -6 19 20 18 26 -6 26 -13 0 -20 -7 -20
-20z"/>
<path d="M9502 1413 c2 -14 -5 -19 -29 -21 -35 -3 -48 -32 -15 -32 10 0 23 -5
30 -12 9 -9 13 -8 17 3 4 10 19 13 53 11 31 -2 54 2 67 12 20 16 20 16 -2 22
-13 3 -23 13 -23 20 0 10 -14 14 -50 14 -43 0 -50 -3 -48 -17z"/>
<path d="M7185 1410 c3 -5 8 -10 11 -10 2 0 4 5 4 10 0 6 -5 10 -11 10 -5 0
-7 -4 -4 -10z"/>
<path d="M7662 1400 c0 -14 2 -19 5 -12 2 6 2 18 0 25 -3 6 -5 1 -5 -13z"/>
<path d="M9280 1375 c0 -27 3 -28 38 -19 13 4 22 14 22 25 0 14 -7 19 -30 19
-25 0 -30 -4 -30 -25z"/>
<path d="M6898 1383 c-2 -4 -4 -21 -3 -38 0 -23 6 -31 23 -33 19 -3 22 1 22
27 0 17 1 34 3 39 3 10 -40 15 -45 5z"/>
<path d="M7520 1371 c0 -5 -6 -11 -12 -14 -7 -2 -4 -3 7 -1 11 2 30 4 43 4 12
0 22 5 22 10 0 6 -13 10 -30 10 -16 0 -30 -4 -30 -9z"/>
<path d="M9180 1364 c0 -8 -4 -12 -10 -9 -15 9 -12 -4 4 -21 13 -12 18 -11 40
11 33 33 32 35 -4 35 -21 0 -30 -5 -30 -16z"/>
<path d="M7760 1350 c0 -5 18 -10 40 -10 22 0 40 5 40 10 0 6 -18 10 -40 10
-22 0 -40 -4 -40 -10z"/>
<path d="M8483 1345 c-8 -23 5 -31 27 -17 11 7 42 12 69 12 28 0 53 5 56 10 4
6 -22 10 -70 10 -59 0 -77 -3 -82 -15z"/>
<path d="M8920 1347 c0 -8 9 -17 21 -20 15 -4 19 -1 17 11 -4 21 -38 29 -38 9z"/>
<path d="M7252 1339 c-13 -5 -34 -6 -47 -3 -12 3 -26 1 -29 -5 -4 -6 2 -8 14
-6 11 2 22 0 25 -5 8 -13 -36 -23 -48 -11 -14 14 -30 14 -22 1 3 -5 -1 -10
-10 -10 -11 0 -15 5 -12 14 4 10 1 13 -9 9 -16 -6 -19 -23 -4 -23 6 0 10 -8 8
-17 -2 -15 5 -19 40 -21 25 -2 42 1 42 8 0 6 12 5 30 -5 17 -9 28 -20 25 -24
-9 -15 21 -20 64 -10 27 6 48 6 60 -1 10 -5 45 -14 77 -20 33 -6 71 -14 87
-17 17 -3 27 -1 27 7 0 7 8 9 20 5 16 -5 19 -3 14 12 -6 17 -6 17 8 0 12 -16
16 -17 26 -5 9 11 9 15 -1 16 -60 9 -87 16 -87 23 0 5 -11 9 -25 9 -31 0 -33
-20 -2 -21 21 -1 21 -1 -3 -8 -35 -11 -54 -3 -39 15 9 11 7 14 -12 16 -36 2
-120 6 -153 7 -25 1 -27 4 -22 25 6 23 4 25 -31 21 -28 -4 -31 -3 -14 3 14 4
26 13 29 20 4 14 5 14 -26 1z"/>
<path d="M7423 1334 c-4 -11 -13 -13 -34 -9 -19 4 -29 3 -29 -5 0 -10 60 -10
98 -1 1 1 2 5 2 10 0 17 -31 21 -37 5z"/>
<path d="M9220 1343 c1 -19 19 -35 36 -31 15 3 14 6 -9 21 -15 10 -27 14 -27
10z"/>
<path d="M9423 1342 c-13 -2 -23 -7 -23 -12 0 -5 8 -7 18 -4 14 5 14 4 3 -4
-11 -7 -23 -6 -42 3 -26 14 -39 11 -39 -8 0 -5 9 -7 20 -4 11 3 20 2 20 -3 0
-4 -20 -11 -44 -14 -25 -4 -47 -13 -50 -22 -3 -8 -9 -13 -14 -10 -12 7 -38
-12 -29 -21 4 -4 17 -2 27 5 11 7 35 12 54 12 19 0 41 7 50 15 8 8 26 15 41
15 26 0 40 17 33 42 -2 7 -13 12 -25 10z"/>
<path d="M8213 1333 c-21 -8 -15 -19 11 -19 15 0 22 5 19 13 -5 14 -10 15 -30
6z"/>
<path d="M8998 1333 c7 -3 16 -2 19 1 4 3 -2 6 -13 5 -11 0 -14 -3 -6 -6z"/>
<path d="M6815 1320 c-3 -5 1 -10 9 -10 9 0 16 5 16 10 0 6 -4 10 -9 10 -6 0
-13 -4 -16 -10z"/>
<path d="M9280 1320 c0 -5 5 -10 10 -10 6 0 10 5 10 10 0 6 -4 10 -10 10 -5 0
-10 -4 -10 -10z"/>
<path d="M8171 1311 c-11 -7 -12 -14 0 -39 16 -38 40 -49 99 -47 67 2 112 15
103 28 -4 7 -6 20 -4 31 3 22 -15 36 -49 36 -22 -1 -23 -2 -7 -11 30 -17 19
-29 -28 -29 -25 0 -45 4 -45 9 0 10 -19 9 -37 -2 -6 -4 -15 -2 -19 4 -4 8 -3
9 4 5 8 -5 10 -2 6 8 -7 19 -5 18 -23 7z"/>
<path d="M9006 1311 c-4 -5 -2 -12 3 -15 5 -4 12 -2 15 3 4 5 2 12 -3 15 -5 4
-12 2 -15 -3z"/>
<path d="M9124 1303 c-8 -8 -14 -22 -14 -32 0 -9 -5 -22 -10 -27 -7 -7 3 -16
32 -27 34 -14 45 -15 54 -5 17 18 27 58 16 58 -6 0 -8 8 -5 19 4 15 -2 19 -27
23 -20 3 -37 -1 -46 -9z"/>
<path d="M6975 1300 c28 -12 55 -12 55 0 0 6 -17 10 -37 9 -31 0 -34 -2 -18
-9z"/>
<path d="M8880 1302 c0 -5 6 -16 13 -25 17 -24 87 -13 87 14 0 16 -8 19 -50
19 -27 0 -50 -4 -50 -8z"/>
<path d="M9044 1268 c1 -20 -4 -23 -29 -21 -25 2 -31 -1 -32 -19 -1 -12 -7
-24 -13 -28 -13 -8 -120 -5 -171 5 -20 4 -84 7 -141 8 -81 2 -104 -1 -101 -10
4 -10 -3 -11 -26 -7 -27 6 -31 4 -31 -15 0 -11 5 -21 11 -21 5 0 8 -4 4 -10
-9 -15 178 -18 190 -2 7 8 54 14 138 19 70 3 127 10 127 14 0 4 21 9 48 11
l47 3 -3 40 c-4 43 -19 71 -18 33z m-344 -88 c0 -5 -5 -10 -11 -10 -5 0 -7 5
-4 10 3 6 8 10 11 10 2 0 4 -4 4 -10z"/>
<path d="M7528 1273 c7 -3 16 -2 19 1 4 3 -2 6 -13 5 -11 0 -14 -3 -6 -6z"/>
<path d="M8063 1263 c20 -5 23 -20 5 -26 -7 -2 -5 -3 5 -1 9 1 24 -7 32 -19
12 -18 15 -18 15 -5 0 22 -39 58 -59 57 -13 -1 -12 -2 2 -6z"/>
<path d="M8008 1243 c7 -3 16 -2 19 1 4 3 -2 6 -13 5 -11 0 -14 -3 -6 -6z"/>
<path d="M7688 1233 c12 -2 32 -2 45 0 12 2 2 4 -23 4 -25 0 -35 -2 -22 -4z"/>
<path d="M8480 1230 c0 -5 6 -10 14 -10 8 0 23 -3 33 -6 16 -6 16 -5 -2 9 -23
19 -45 22 -45 7z"/>
<path d="M8000 1220 c0 -6 -50 -10 -130 -10 -109 0 -132 -3 -137 -15 -3 -9 -4
-18 -1 -20 2 -3 60 -7 129 -11 123 -6 124 -5 152 20 29 25 29 46 1 46 -8 0
-14 -4 -14 -10z"/>
<path d="M8064 1170 c-38 -15 -38 -30 -1 -30 38 0 48 6 40 26 -6 16 -9 16 -39
4z"/>
<path d="M8126 1163 c-8 -20 -3 -25 21 -21 17 3 17 4 1 20 -15 15 -17 15 -22
1z"/>
<path d="M8402 1151 c-9 -5 6 -9 40 -9 37 -1 49 1 38 8 -19 12 -60 13 -78 1z"/>
<path d="M9160 1130 c0 -5 5 -10 10 -10 6 0 10 5 10 10 0 6 -4 10 -10 10 -5 0
-10 -4 -10 -10z"/>
<path d="M9040 1080 c0 -5 7 -10 15 -10 8 0 15 5 15 10 0 6 -7 10 -15 10 -8 0
-15 -4 -15 -10z"/>
</g>
</svg>
