<?xml version="1.0" standalone="no"?>
<!DOCTYPE svg PUBLIC "-//W3C//DTD SVG 20010904//EN"
 "http://www.w3.org/TR/2001/REC-SVG-20010904/DTD/svg10.dtd">
<svg version="1.0" xmlns="http://www.w3.org/2000/svg"
 width="2000.000000pt" height="2000.000000pt" viewBox="0 0 2000.000000 2000.000000"
 preserveAspectRatio="xMidYMid meet">
<metadata>
Created by potrace 1.11, written by Peter Selinger 2001-2013
</metadata>
<g transform="translate(0.000000,2000.000000) scale(0.100000,-0.100000)"
fill="#000000" stroke="none">
<path d="M11618 18673 c7 -3 16 -2 19 1 4 3 -2 6 -13 5 -11 0 -14 -3 -6 -6z"/>
<path d="M12198 18643 c7 -3 16 -2 19 1 4 3 -2 6 -13 5 -11 0 -14 -3 -6 -6z"/>
<path d="M11583 18558 c-2 -5 -28 -8 -56 -8 -40 -1 -48 -3 -34 -11 9 -5 58
-10 108 -10 69 0 90 -3 86 -12 -3 -9 6 -13 29 -14 18 -1 41 -9 51 -19 17 -17
17 -18 0 -11 -14 5 -18 3 -15 -11 2 -9 11 -15 19 -13 8 2 34 6 59 9 45 5 70
20 70 42 0 6 7 18 15 26 12 13 15 13 15 1 0 -16 0 -16 99 -22 41 -3 78 -10 82
-16 11 -18 17 4 8 29 -7 18 -16 22 -56 23 -26 0 -70 4 -98 8 -41 6 -55 3 -79
-13 -29 -20 -30 -20 -23 0 6 17 6 17 -6 3 -7 -9 -30 -19 -52 -21 -22 -3 -32
-3 -22 -1 20 5 22 16 4 31 -14 12 -197 21 -204 10z"/>
<path d="M11291 18551 c-21 -14 6 -26 59 -26 41 0 45 -2 48 -26 2 -20 10 -28
28 -32 18 -3 24 -1 20 9 -3 7 -1 16 5 19 5 4 7 11 3 16 -3 5 -10 6 -16 3 -7
-5 -9 -2 -6 8 5 12 -4 16 -45 21 -29 3 -59 8 -67 11 -8 3 -21 2 -29 -3z"/>
<path d="M11195 18541 c-3 -6 -26 -13 -50 -17 -25 -3 -45 -11 -45 -16 0 -5 5
-6 12 -2 7 5 8 3 3 -6 -6 -10 -11 -10 -20 3 -14 20 -27 21 -43 5 -20 -20 -82
-36 -123 -32 -27 3 -44 0 -54 -10 -13 -13 -13 -15 5 -21 11 -4 18 -10 15 -14
-2 -5 7 -6 20 -3 14 2 32 -1 40 -8 14 -12 54 -6 42 7 -10 10 13 32 28 27 7 -3
11 -14 8 -25 -5 -19 -5 -19 42 1 33 14 52 17 59 10 16 -16 25 -12 19 10 -4 16
0 20 20 20 28 0 60 30 40 37 -21 7 -15 23 8 23 11 0 17 5 14 10 -8 13 -32 13
-40 1z"/>
<path d="M12270 18520 c-8 -5 -28 -7 -45 -4 -18 3 -38 -1 -50 -9 -17 -13 -17
-17 -5 -32 10 -11 21 -14 39 -9 36 10 84 6 92 -8 6 -9 11 -9 22 0 7 7 17 9 20
5 4 -3 7 -1 7 6 0 9 5 9 22 0 21 -11 21 -12 3 -25 -17 -12 -17 -14 -1 -20 9
-4 24 0 34 8 9 9 23 13 31 10 8 -3 11 0 7 7 -4 6 -1 12 6 12 7 1 23 3 35 4 12
1 24 -4 27 -11 7 -17 -23 -27 -40 -13 -12 10 -13 9 -8 -5 4 -9 17 -16 34 -16
29 0 55 21 42 34 -4 4 2 15 13 23 19 15 18 15 -17 10 -23 -3 -38 -1 -41 6 -3
10 -33 16 -172 33 -22 2 -47 0 -55 -6z"/>
<path d="M11281 18489 c-15 -16 -26 -20 -46 -15 -22 6 -26 4 -23 -11 4 -24 34
-28 54 -8 9 9 24 13 35 10 24 -8 61 3 54 16 -3 5 0 6 8 3 8 -3 17 1 20 9 4 10
-6 14 -38 16 -34 1 -48 -3 -64 -20z"/>
<path d="M11525 18470 c-3 -5 -15 -10 -26 -10 -24 0 -36 -27 -20 -43 10 -9 16
-7 29 8 9 12 25 24 35 28 9 3 17 11 17 17 0 13 -27 13 -35 0z"/>
<path d="M11987 18471 c-10 -4 -17 -11 -15 -16 4 -12 39 -15 57 -5 20 11 -18
30 -42 21z"/>
<path d="M12573 18454 c-9 -23 13 -40 32 -24 12 10 13 16 4 26 -15 18 -28 18
-36 -2z"/>
<path d="M12674 18451 c19 -21 19 -21 -13 -21 -19 0 -30 -4 -26 -10 7 -11 57
-2 66 13 4 5 11 7 17 3 6 -3 9 2 8 11 -2 12 -14 19 -37 21 -33 4 -33 4 -15
-17z"/>
<path d="M11905 18448 c-4 -9 -3 -24 2 -33 8 -14 11 -14 21 -2 9 10 8 18 -2
33 -13 17 -15 18 -21 2z"/>
<path d="M12044 18428 c-23 -24 -25 -29 -9 -23 11 4 30 10 43 12 25 6 28 16 9
32 -11 8 -20 3 -43 -21z"/>
<path d="M12745 18450 c-3 -5 0 -10 7 -10 7 0 4 -6 -7 -12 -11 -6 -23 -16 -27
-22 -5 -7 -8 -7 -8 -1 0 6 -4 4 -9 -4 -7 -11 -15 -11 -42 -2 -42 14 -49 8 -9
-9 16 -7 30 -16 30 -20 0 -4 19 -6 42 -6 31 1 42 5 44 19 1 9 -3 17 -9 17 -5
0 -8 3 -4 6 3 3 15 3 28 -1 17 -6 19 -9 8 -16 -15 -10 89 -4 129 7 18 5 22 2
22 -15 0 -11 -4 -21 -9 -21 -5 0 -17 -8 -27 -17 -10 -10 -22 -18 -28 -18 -6 0
-12 -8 -14 -17 -2 -10 1 -18 7 -18 18 0 60 23 56 30 -3 4 6 15 20 24 20 13 30
14 46 5 11 -6 31 -8 42 -6 12 3 38 0 58 -7 28 -10 42 -10 59 -1 19 10 20 13 6
24 -9 7 -33 15 -53 17 -21 3 -58 9 -82 15 -24 5 -46 7 -49 4 -3 -3 -15 1 -26
8 -12 8 -47 15 -80 16 -55 1 -104 20 -89 34 3 4 -1 7 -10 7 -9 0 -19 -4 -22
-10z"/>
<path d="M11585 18440 c3 -5 8 -10 11 -10 2 0 4 5 4 10 0 6 -5 10 -11 10 -5 0
-7 -4 -4 -10z"/>
<path d="M11700 18437 c0 -19 10 -27 26 -20 21 8 17 33 -6 33 -11 0 -20 -6
-20 -13z"/>
<path d="M11860 18430 c-12 -7 -12 -12 -3 -21 10 -10 14 -9 19 5 8 22 2 27
-16 16z"/>
<path d="M12220 18430 c0 -5 7 -10 15 -10 8 0 15 5 15 10 0 6 -7 10 -15 10 -8
0 -15 -4 -15 -10z"/>
<path d="M10740 18415 c0 -18 21 -28 47 -23 14 3 11 8 -14 21 -29 15 -33 16
-33 2z"/>
<path d="M11425 18420 c-8 -13 -1 -24 14 -19 6 3 7 10 2 18 -6 10 -10 10 -16
1z"/>
<path d="M10824 18397 c-12 -12 -29 -37 -38 -54 -9 -18 -23 -33 -32 -33 -8 0
-12 5 -8 11 4 7 -2 9 -17 7 -16 -2 -25 -11 -27 -26 -3 -20 0 -23 16 -18 15 5
21 1 24 -19 3 -14 1 -25 -4 -25 -5 0 -6 -4 -3 -10 9 -15 45 -12 51 4 3 8 12
12 20 9 8 -3 14 -2 13 3 -3 19 1 34 11 34 6 0 10 -9 10 -20 0 -30 42 -44 52
-18 4 11 12 16 18 13 6 -4 8 -10 5 -15 -3 -4 1 -13 9 -19 11 -9 17 -8 29 4 9
8 25 15 36 15 11 0 23 5 26 10 3 6 21 10 40 10 19 0 37 5 41 11 4 8 9 7 15 -2
6 -10 9 -11 9 -1 0 21 73 15 90 -8 8 -11 18 -20 22 -20 4 0 8 9 8 20 0 13 -7
20 -18 20 -10 0 -22 3 -26 7 -9 10 -106 14 -106 5 0 -5 -22 -8 -50 -7 -41 0
-50 3 -50 18 0 16 -15 21 -52 18 -10 -1 -18 3 -18 9 0 6 -12 9 -27 8 -19 -2
-28 2 -31 15 -2 11 3 17 16 17 18 0 19 3 9 25 -15 30 -35 31 -63 2z"/>
<path d="M12168 18403 c6 -2 18 -2 25 0 6 3 1 5 -13 5 -14 0 -19 -2 -12 -5z"/>
<path d="M11620 18385 c0 -8 2 -15 4 -15 2 0 6 7 10 15 3 8 1 15 -4 15 -6 0
-10 -7 -10 -15z"/>
<path d="M10581 18364 c-13 -7 -28 -20 -33 -28 -5 -9 -20 -16 -34 -16 -21 0
-25 -4 -22 -22 2 -13 11 -24 23 -27 11 -2 27 -12 36 -22 17 -20 55 -25 78 -10
10 6 10 13 3 28 -8 15 -18 19 -41 15 -23 -3 -31 0 -31 10 0 18 44 40 65 32 8
-4 15 -1 15 6 0 10 3 10 15 0 13 -10 18 -11 28 -1 9 9 7 16 -13 31 -28 21 -53
22 -89 4z"/>
<path d="M11520 18360 c0 -19 3 -21 12 -12 9 9 9 15 0 24 -9 9 -12 7 -12 -12z"/>
<path d="M11560 18360 c0 -13 5 -20 13 -17 6 2 12 10 12 17 0 7 -6 15 -12 18
-8 2 -13 -5 -13 -18z"/>
<path d="M12600 18350 c0 -5 7 -10 15 -10 9 0 20 -10 26 -22 9 -22 9 -22 4 2
-2 14 -5 28 -5 33 0 11 -40 8 -40 -3z"/>
<path d="M11646 18335 c-3 -8 -1 -15 4 -15 6 0 10 7 10 15 0 8 -2 15 -4 15 -2
0 -6 -7 -10 -15z"/>
<path d="M13220 18340 c0 -5 5 -10 10 -10 6 0 10 5 10 10 0 6 -4 10 -10 10 -5
0 -10 -4 -10 -10z"/>
<path d="M12053 18325 c-17 -19 -17 -71 0 -78 24 -9 47 19 47 57 0 28 -4 36
-17 36 -10 -1 -24 -7 -30 -15z"/>
<path d="M12684 18312 c-3 -9 -12 -29 -20 -43 -7 -14 -11 -29 -7 -33 3 -3 0
-6 -7 -6 -7 0 -28 -10 -47 -21 -30 -19 -33 -23 -19 -31 12 -7 25 -5 42 6 21
15 24 15 24 1 0 -8 5 -15 10 -15 6 0 10 -11 10 -24 0 -29 14 -40 37 -32 12 5
14 9 5 18 -15 15 -16 38 -2 38 6 0 10 -7 10 -15 0 -8 7 -16 15 -16 8 -1 21 -2
28 -3 6 -1 13 9 13 22 2 33 10 37 38 18 29 -18 44 -5 20 18 -13 13 -13 20 -4
31 10 12 15 12 36 -2 22 -14 24 -14 24 0 0 20 -30 30 -100 32 -57 2 -90 11
-90 25 0 26 13 37 38 32 15 -3 24 -1 20 3 -5 5 -22 10 -38 12 -22 2 -32 -2
-36 -15z"/>
<path d="M12003 18280 c0 -25 2 -35 4 -22 2 12 2 32 0 45 -2 12 -4 2 -4 -23z"/>
<path d="M12801 18294 c-12 -14 -11 -16 4 -12 10 1 20 9 23 16 5 17 -10 15
-27 -4z"/>
<path d="M10640 18274 c0 -9 5 -14 12 -12 18 6 21 28 4 28 -9 0 -16 -7 -16
-16z"/>
<path d="M11410 18280 c0 -5 7 -10 15 -10 8 0 15 5 15 10 0 6 -7 10 -15 10 -8
0 -15 -4 -15 -10z"/>
<path d="M12480 18280 c0 -6 33 -10 80 -10 47 0 80 4 80 10 0 6 -33 10 -80 10
-47 0 -80 -4 -80 -10z"/>
<path d="M11355 18270 c3 -5 -3 -10 -14 -10 -12 0 -21 -4 -21 -10 0 -5 -13
-10 -30 -10 -34 0 -37 -5 -16 -26 19 -19 86 -19 86 0 0 8 8 17 18 19 16 4 16
5 0 6 -19 1 -26 21 -7 21 5 0 7 5 4 10 -3 6 -11 10 -16 10 -6 0 -7 -4 -4 -10z"/>
<path d="M11840 18260 c0 -17 7 -20 40 -20 43 0 47 4 26 26 -23 22 -66 18 -66
-6z"/>
<path d="M10432 18254 c-7 -8 -17 -12 -23 -9 -5 4 -9 2 -9 -4 0 -6 -6 -8 -14
-5 -8 3 -16 -4 -20 -20 -3 -14 -13 -26 -21 -26 -20 0 -105 -89 -105 -110 0 -9
5 -21 11 -27 15 -15 4 -43 -16 -43 -9 0 -13 4 -10 10 3 5 2 18 -4 27 -8 16
-10 16 -16 2 -3 -8 -1 -27 4 -41 8 -22 6 -27 -14 -36 -23 -10 -24 -16 -20 -74
3 -47 0 -67 -11 -80 -13 -14 -14 -29 -6 -98 6 -45 14 -86 19 -90 13 -13 47 16
37 32 -10 15 -12 23 -20 66 -4 20 -2 32 5 32 6 0 11 -6 11 -14 0 -8 9 -21 21
-29 11 -8 19 -23 17 -33 -2 -13 4 -20 20 -22 18 -3 22 1 22 25 0 15 2 37 4 48
2 11 1 14 -1 8 -6 -19 -30 -16 -42 5 -8 13 -10 13 -11 2 0 -13 -2 -13 -14 0
-17 18 -30 110 -16 110 6 0 10 -7 10 -16 0 -9 5 -12 12 -8 8 5 9 -2 5 -27 -4
-20 -3 -28 2 -19 18 33 20 88 3 103 -9 9 -21 16 -27 16 -5 0 -11 5 -14 12 -2
6 1 9 7 5 6 -4 8 2 5 14 -4 14 0 20 10 20 9 0 19 9 22 20 3 11 15 20 26 20 16
0 19 7 19 40 0 45 29 81 85 106 27 12 28 13 7 14 -13 0 -20 4 -17 10 9 14 58
13 73 -2 9 -9 16 -7 31 9 11 12 26 23 33 26 10 4 8 10 -6 21 -13 11 -23 13
-30 6 -13 -13 -36 -13 -36 0 0 6 7 10 15 10 8 0 15 7 15 15 0 19 -11 19 -28
-1z m-12 -39 c0 -8 -7 -15 -16 -15 -14 0 -14 3 -4 15 7 8 14 15 16 15 2 0 4
-7 4 -15z"/>
<path d="M10663 18233 c-13 -13 -23 -31 -23 -40 0 -14 2 -14 18 -1 18 15 52
13 52 -3 0 -5 5 -9 12 -9 9 0 9 3 1 11 -6 6 -9 18 -6 27 5 11 3 13 -7 7 -10
-6 -12 -4 -7 8 9 25 -16 25 -40 0z"/>
<path d="M12310 18243 l-35 -14 33 5 c24 4 32 2 32 -9 0 -8 7 -15 16 -15 10 0
14 6 10 15 -4 11 1 15 17 15 18 0 19 2 7 10 -19 12 -37 11 -80 -7z"/>
<path d="M12160 18230 c0 -5 4 -10 9 -10 6 0 13 5 16 10 3 6 -1 10 -9 10 -9 0
-16 -4 -16 -10z"/>
<path d="M12550 18223 c0 -10 4 -14 8 -8 4 6 11 13 16 18 5 4 2 7 -7 7 -10 0
-17 -8 -17 -17z"/>
<path d="M12920 18225 c0 -8 7 -15 15 -15 9 0 12 6 9 15 -4 8 -10 15 -15 15
-5 0 -9 -7 -9 -15z"/>
<path d="M12384 18193 c1 -32 -3 -38 -24 -43 -17 -4 -24 -12 -24 -30 0 -13 5
-25 12 -28 8 -2 11 5 10 20 -2 18 2 23 20 22 20 -1 22 4 22 48 0 26 -4 48 -9
48 -5 0 -8 -17 -7 -37z"/>
<path d="M12493 18204 c-9 -20 -9 -26 3 -31 8 -3 22 -2 32 2 15 6 15 8 1 18
-9 7 -18 17 -20 24 -2 7 -9 1 -16 -13z"/>
<path d="M10520 18210 c0 -5 5 -10 10 -10 6 0 10 5 10 10 0 6 -4 10 -10 10 -5
0 -10 -4 -10 -10z"/>
<path d="M10798 18202 c-4 -15 0 -17 29 -14 35 4 43 16 17 26 -27 10 -41 7
-46 -12z"/>
<path d="M11428 18213 c-10 -3 -18 -8 -18 -13 0 -12 39 -19 46 -8 9 14 -8 25
-28 21z"/>
<path d="M11480 18200 c0 -13 5 -20 13 -17 6 2 12 10 12 17 0 7 -6 15 -12 18
-8 2 -13 -5 -13 -18z"/>
<path d="M10542 18198 c-7 -7 -12 -19 -12 -27 0 -11 5 -8 16 7 18 25 15 39 -4
20z"/>
<path d="M12215 18201 c-10 -17 15 -23 63 -16 37 6 43 9 27 16 -28 11 -83 11
-90 0z"/>
<path d="M11040 18180 c0 -5 18 -10 40 -10 22 0 40 5 40 10 0 6 -18 10 -40 10
-22 0 -40 -4 -40 -10z"/>
<path d="M11200 18180 c0 -5 18 -10 40 -10 22 0 40 5 40 10 0 6 -18 10 -40 10
-22 0 -40 -4 -40 -10z"/>
<path d="M11368 18163 c7 -3 16 -2 19 1 4 3 -2 6 -13 5 -11 0 -14 -3 -6 -6z"/>
<path d="M10410 18149 c0 -5 5 -7 10 -4 6 3 10 8 10 11 0 2 -4 4 -10 4 -5 0
-10 -5 -10 -11z"/>
<path d="M10480 18126 c4 -20 12 -31 23 -31 9 0 17 3 17 8 0 4 0 15 0 26 0 12
-9 20 -23 23 -22 4 -23 2 -17 -26z"/>
<path d="M12565 18136 l-30 -13 39 -7 c42 -8 51 -4 43 19 -7 18 -13 18 -52 1z"/>
<path d="M12288 18133 c-19 -5 -25 -23 -9 -23 5 0 16 -3 25 -6 12 -4 16 0 16
15 0 21 -2 22 -32 14z"/>
<path d="M10540 18100 c0 -5 5 -10 10 -10 6 0 10 5 10 10 0 6 -4 10 -10 10 -5
0 -10 -4 -10 -10z"/>
<path d="M12630 18090 c0 -5 5 -10 11 -10 5 0 7 5 4 10 -3 6 -8 10 -11 10 -2
0 -4 -4 -4 -10z"/>
<path d="M10360 18066 c-12 -16 -13 -27 -5 -43 11 -25 35 -31 35 -9 0 8 5 16
12 18 12 4 20 47 9 49 -3 0 -13 2 -21 4 -8 1 -22 -7 -30 -19z"/>
<path d="M12385 18070 c-3 -5 3 -10 15 -10 12 0 18 5 15 10 -3 6 -10 10 -15
10 -5 0 -12 -4 -15 -10z"/>
<path d="M12528 18063 c-29 -7 -21 -23 11 -23 34 0 49 15 25 24 -9 3 -16 5
-17 5 -1 -1 -10 -3 -19 -6z"/>
<path d="M10460 18040 c0 -5 5 -10 10 -10 6 0 10 5 10 10 0 6 -4 10 -10 10 -5
0 -10 -4 -10 -10z"/>
<path d="M12344 18014 c3 -8 0 -14 -6 -14 -6 0 -8 -3 -5 -7 4 -3 2 -12 -4 -19
-14 -17 12 -30 37 -20 13 5 14 9 4 21 -13 16 -1 21 16 6 5 -4 23 -11 40 -14
31 -6 32 -5 31 27 l-1 34 -59 0 c-46 0 -57 -3 -53 -14z"/>
<path d="M10281 17976 c-7 -9 -8 -17 -2 -20 13 -9 43 4 38 17 -5 17 -23 19
-36 3z"/>
<path d="M10400 17980 c0 -5 9 -10 19 -10 11 0 23 5 26 10 4 6 -5 10 -19 10
-14 0 -26 -4 -26 -10z"/>
<path d="M10471 17951 c-7 -5 -9 -11 -4 -14 4 -3 17 1 28 9 21 16 0 20 -24 5z"/>
<path d="M12301 17907 c-19 -19 -12 -28 22 -25 17 2 31 7 30 13 -3 15 -40 24
-52 12z"/>
<path d="M10578 17863 c12 -2 32 -2 45 0 12 2 2 4 -23 4 -25 0 -35 -2 -22 -4z"/>
<path d="M10300 17850 c0 -5 5 -10 10 -10 6 0 10 -8 10 -17 0 -15 2 -15 9 -4
6 9 4 19 -4 28 -16 16 -25 17 -25 3z"/>
<path d="M12283 17843 c9 -2 23 -2 30 0 6 3 -1 5 -18 5 -16 0 -22 -2 -12 -5z"/>
<path d="M10380 17810 c-13 -9 -13 -11 0 -20 10 -6 16 -6 18 0 7 20 -3 30 -18
20z"/>
<path d="M12166 17791 c-3 -5 1 -11 9 -15 15 -6 29 7 18 18 -9 9 -21 8 -27 -3z"/>
<path d="M10320 17776 c0 -16 26 -40 33 -29 2 4 -4 16 -15 26 -13 13 -18 14
-18 3z"/>
<path d="M10413 17748 c-5 -7 -12 -20 -16 -29 -4 -12 0 -15 19 -11 32 6 40 20
22 38 -12 12 -17 13 -25 2z"/>
<path d="M10548 17753 c6 -2 18 -2 25 0 6 3 1 5 -13 5 -14 0 -19 -2 -12 -5z"/>
<path d="M11550 17743 l-35 -14 34 6 c18 3 42 5 53 5 10 0 16 5 13 10 -8 13
-21 11 -65 -7z"/>
<path d="M12108 17753 c7 -3 16 -2 19 1 4 3 -2 6 -13 5 -11 0 -14 -3 -6 -6z"/>
<path d="M10473 17740 c2 -8 12 -16 23 -17 13 -2 15 -1 4 4 -8 3 -19 11 -23
17 -6 7 -7 6 -4 -4z"/>
<path d="M11639 17736 c11 -13 11 -19 0 -32 -12 -14 -11 -16 6 -13 13 3 19 12
19 29 0 17 -6 26 -19 29 -17 3 -18 1 -6 -13z"/>
<path d="M10618 17723 c7 -3 16 -2 19 1 4 3 -2 6 -13 5 -11 0 -14 -3 -6 -6z"/>
<path d="M11559 17695 c31 -12 46 -14 54 -6 8 8 5 11 -10 11 -11 0 -36 2 -54
5 -30 5 -29 4 10 -10z"/>
<path d="M10510 17690 c-19 -4 -29 -8 -22 -9 7 0 12 -16 12 -41 0 -22 5 -40
10 -40 6 0 10 18 10 40 l0 40 62 0 c34 0 59 2 57 4 -10 9 -97 13 -129 6z"/>
<path d="M11895 17691 c-6 -10 25 -31 44 -31 6 0 11 9 11 20 0 15 -7 20 -24
20 -14 0 -27 -4 -31 -9z"/>
<path d="M10283 17625 c-3 -9 -3 -18 0 -22 10 -10 37 6 37 22 0 20 -29 20 -37
0z"/>
<path d="M10241 17613 c-1 -15 -6 -21 -16 -17 -23 9 -30 -39 -10 -70 10 -14
21 -26 26 -26 5 0 9 -9 9 -20 0 -12 10 -25 25 -32 31 -14 29 -42 -3 -46 -13
-2 -21 -9 -19 -15 2 -7 14 -11 25 -9 26 4 28 -6 6 -22 -14 -11 -13 -16 10 -50
14 -22 26 -45 26 -52 0 -16 39 -64 52 -64 12 0 10 44 -3 57 -8 8 -9 25 -4 50
5 21 7 45 6 53 -2 10 2 9 13 -5 l15 -20 1 20 c0 11 -4 26 -9 34 -7 11 -12 10
-22 -8 -8 -11 -23 -21 -34 -21 -18 0 -21 6 -19 48 1 31 -4 53 -15 65 -15 17
-14 20 4 33 12 9 16 18 10 22 -6 4 -10 13 -11 20 -3 36 -5 42 -15 42 -13 0
-34 20 -42 40 -4 10 -6 8 -6 -7z m109 -293 c0 -5 -7 -10 -15 -10 -8 0 -15 5
-15 10 0 6 7 10 15 10 8 0 15 -4 15 -10z"/>
<path d="M11950 17620 c0 -5 7 -10 16 -10 8 0 12 5 9 10 -3 6 -10 10 -16 10
-5 0 -9 -4 -9 -10z"/>
<path d="M11891 17601 c-10 -7 -7 -9 12 -8 14 1 23 5 20 10 -6 9 -15 9 -32 -2z"/>
<path d="M10353 17586 c-7 -8 -8 -18 -2 -27 5 -8 9 -30 9 -50 0 -42 17 -61 47
-53 14 4 22 16 25 35 3 16 1 29 -4 29 -4 0 -8 7 -8 16 0 11 -6 15 -18 12 -15
-4 -17 0 -14 23 5 31 -14 39 -35 15z"/>
<path d="M10420 17586 c0 -9 5 -16 10 -16 6 0 10 4 10 9 0 6 -4 13 -10 16 -5
3 -10 -1 -10 -9z"/>
<path d="M10538 17593 c7 -3 16 -2 19 1 4 3 -2 6 -13 5 -11 0 -14 -3 -6 -6z"/>
<path d="M11745 17580 c-15 -16 -16 -22 -5 -35 11 -13 14 -12 27 12 17 34 3
50 -22 23z"/>
<path d="M10470 17580 c-8 -5 -11 -10 -6 -10 5 0 3 -7 -4 -15 -22 -26 -2 -29
25 -4 13 13 25 27 25 32 0 10 -22 9 -40 -3z"/>
<path d="M11800 17580 c0 -5 7 -10 15 -10 8 0 15 5 15 10 0 6 -7 10 -15 10 -8
0 -15 -4 -15 -10z"/>
<path d="M10540 17550 c-13 -8 -12 -10 3 -10 9 0 17 5 17 10 0 12 -1 12 -20 0z"/>
<path d="M10512 17508 c6 -18 28 -21 28 -4 0 9 -7 16 -16 16 -9 0 -14 -5 -12
-12z"/>
<path d="M10655 17510 c3 -5 15 -10 25 -10 10 0 22 5 25 10 4 6 -7 10 -25 10
-18 0 -29 -4 -25 -10z"/>
<path d="M11112 17503 c5 -25 28 -28 28 -4 0 12 -6 21 -16 21 -9 0 -14 -7 -12
-17z"/>
<path d="M11482 17498 c2 -13 8 -23 13 -23 6 0 11 10 13 23 2 15 -2 22 -13 22
-11 0 -15 -7 -13 -22z"/>
<path d="M10480 17473 c0 -18 5 -33 10 -33 13 0 13 30 0 50 -7 11 -10 7 -10
-17z"/>
<path d="M10718 17478 c-7 -17 8 -46 18 -35 4 4 3 17 -3 29 -7 17 -11 19 -15
6z"/>
<path d="M10562 17460 c0 -14 2 -19 5 -12 2 6 2 18 0 25 -3 6 -5 1 -5 -13z"/>
<path d="M10598 17458 c-5 -28 11 -80 21 -73 6 3 7 50 2 88 -2 17 -20 5 -23
-15z"/>
<path d="M11080 17450 c0 -5 5 -10 10 -10 6 0 10 5 10 10 0 6 -4 10 -10 10 -5
0 -10 -4 -10 -10z"/>
<path d="M11510 17455 c0 -5 5 -17 10 -25 5 -8 10 -10 10 -5 0 6 -5 17 -10 25
-5 8 -10 11 -10 5z"/>
<path d="M10332 17429 c2 -6 8 -10 13 -10 5 0 11 4 13 10 2 6 -4 11 -13 11 -9
0 -15 -5 -13 -11z"/>
<path d="M10428 17428 c9 -9 15 -9 24 0 9 9 7 12 -12 12 -19 0 -21 -3 -12 -12z"/>
<path d="M10648 17433 c7 -3 16 -2 19 1 4 3 -2 6 -13 5 -11 0 -14 -3 -6 -6z"/>
<path d="M11560 17404 c0 -8 5 -12 10 -9 6 3 10 10 10 16 0 5 -4 9 -10 9 -5 0
-10 -7 -10 -16z"/>
<path d="M10665 17400 c-8 -13 25 -13 45 0 12 8 9 10 -12 10 -15 0 -30 -4 -33
-10z"/>
<path d="M11410 17400 c0 -5 18 -10 39 -10 22 0 43 5 46 10 4 6 -12 10 -39 10
-25 0 -46 -4 -46 -10z"/>
<path d="M10400 17390 c0 -5 5 -10 10 -10 6 0 10 5 10 10 0 6 -4 10 -10 10 -5
0 -10 -4 -10 -10z"/>
<path d="M10460 17390 c0 -5 5 -10 10 -10 6 0 10 5 10 10 0 6 -4 10 -10 10 -5
0 -10 -4 -10 -10z"/>
<path d="M10560 17376 c0 -9 5 -16 10 -16 6 0 10 4 10 9 0 6 -4 13 -10 16 -5
3 -10 -1 -10 -9z"/>
<path d="M10525 17330 c-4 -6 -3 -16 3 -22 6 -6 12 -6 17 2 4 6 3 16 -3 22 -6
6 -12 6 -17 -2z"/>
<path d="M11043 17280 c0 -25 2 -35 4 -22 2 12 2 32 0 45 -2 12 -4 2 -4 -23z"/>
<path d="M11080 17280 c0 -33 11 -38 30 -15 10 12 10 18 0 30 -19 23 -30 18
-30 -15z"/>
<path d="M11138 17283 c7 -3 16 -2 19 1 4 3 -2 6 -13 5 -11 0 -14 -3 -6 -6z"/>
<path d="M11237 17270 c3 -11 9 -20 13 -20 4 0 10 9 13 20 4 15 0 20 -13 20
-13 0 -17 -5 -13 -20z"/>
<path d="M11280 17286 c0 -2 18 -6 40 -8 22 -2 40 0 40 4 0 5 -18 8 -40 8 -22
0 -40 -2 -40 -4z"/>
<path d="M10720 17269 c0 -5 5 -7 10 -4 6 3 10 8 10 11 0 2 -4 4 -10 4 -5 0
-10 -5 -10 -11z"/>
<path d="M11200 17230 c0 -5 5 -10 10 -10 6 0 10 5 10 10 0 6 -4 10 -10 10 -5
0 -10 -4 -10 -10z"/>
<path d="M10440 17220 c0 -5 7 -7 15 -4 8 4 15 8 15 10 0 2 -7 4 -15 4 -8 0
-15 -4 -15 -10z"/>
<path d="M10538 17223 c7 -3 16 -2 19 1 4 3 -2 6 -13 5 -11 0 -14 -3 -6 -6z"/>
<path d="M10500 17172 c0 -11 -7 -25 -16 -33 -10 -8 -13 -21 -9 -36 4 -16 1
-23 -10 -23 -26 0 -14 -31 16 -42 9 -4 19 -20 22 -37 4 -18 13 -31 21 -31 18
0 48 39 40 52 -7 10 14 38 28 38 6 0 8 -9 5 -20 -4 -17 0 -20 28 -20 19 0 37
5 40 10 3 6 1 10 -5 10 -6 0 -18 7 -27 15 -18 18 -73 16 -73 -3 0 -7 -5 -10
-12 -6 -6 4 -8 3 -4 -4 11 -18 -11 -23 -25 -6 -11 14 -11 18 4 29 23 17 22 35
-3 35 -23 0 -26 13 -7 29 16 13 15 53 -1 59 -7 2 -12 -5 -12 -16z"/>
<path d="M11004 17176 c-8 -21 3 -49 16 -41 5 3 10 15 10 25 0 25 -18 36 -26
16z"/>
<path d="M10411 17149 c-18 -41 -7 -47 23 -13 30 34 32 44 8 44 -10 0 -23 -13
-31 -31z"/>
<path d="M10962 17160 c0 -14 2 -19 5 -12 2 6 2 18 0 25 -3 6 -5 1 -5 -13z"/>
<path d="M11120 17170 c0 -5 5 -10 11 -10 5 0 7 5 4 10 -3 6 -8 10 -11 10 -2
0 -4 -4 -4 -10z"/>
<path d="M10700 17116 c0 -2 7 -7 16 -10 8 -3 12 -2 9 4 -6 10 -25 14 -25 6z"/>
<path d="M10630 17100 c0 -5 5 -10 11 -10 5 0 7 5 4 10 -3 6 -8 10 -11 10 -2
0 -4 -4 -4 -10z"/>
<path d="M10670 17064 c0 -12 7 -15 25 -12 19 4 25 1 25 -13 0 -12 5 -16 14
-13 17 7 15 32 -5 45 -24 15 -59 11 -59 -7z"/>
<path d="M10342 17028 c2 -6 10 -14 16 -16 7 -2 10 2 6 12 -7 18 -28 22 -22 4z"/>
<path d="M10670 17003 c0 -4 4 -14 8 -21 10 -15 45 -5 39 12 -4 13 -47 21 -47
9z"/>
<path d="M10575 16990 c3 -5 0 -10 -7 -10 -10 0 -10 -2 1 -9 9 -6 10 -11 2
-15 -19 -12 -13 -46 9 -46 11 0 20 1 20 3 0 1 -4 17 -9 35 -10 34 3 46 14 12
7 -21 25 -28 25 -10 0 6 3 9 8 9 19 -3 23 2 13 15 -7 8 -20 12 -30 9 -10 -3
-22 0 -25 6 -4 6 -12 11 -17 11 -6 0 -7 -4 -4 -10z"/>
<path d="M10740 16976 c0 -16 24 -38 33 -30 7 7 -14 44 -25 44 -5 0 -8 -6 -8
-14z"/>
<path d="M10670 16938 c-14 -13 -28 -22 -31 -21 -4 1 -5 -7 -2 -17 4 -14 14
-20 34 -20 15 0 31 -5 35 -11 4 -7 13 2 22 20 8 17 11 35 7 39 -4 4 -10 1 -12
-5 -3 -7 -12 -13 -20 -13 -11 0 -14 7 -9 25 8 31 6 31 -24 3z"/>
<path d="M16220 16916 c0 -2 7 -7 16 -10 8 -3 12 -2 9 4 -6 10 -25 14 -25 6z"/>
<path d="M10538 16813 c7 -3 16 -2 19 1 4 3 -2 6 -13 5 -11 0 -14 -3 -6 -6z"/>
<path d="M10665 16730 c3 -5 8 -10 11 -10 2 0 4 5 4 10 0 6 -5 10 -11 10 -5 0
-7 -4 -4 -10z"/>
<path d="M16477 16679 c4 -13 8 -18 11 -10 2 7 -1 18 -6 23 -8 8 -9 4 -5 -13z"/>
<path d="M16580 16575 c0 -8 5 -15 10 -15 6 0 10 7 10 15 0 8 -4 15 -10 15 -5
0 -10 -7 -10 -15z"/>
<path d="M16850 16209 c0 -5 5 -7 10 -4 6 3 10 8 10 11 0 2 -4 4 -10 4 -5 0
-10 -5 -10 -11z"/>
<path d="M12242 16088 c6 -18 28 -21 28 -4 0 9 -7 16 -16 16 -9 0 -14 -5 -12
-12z"/>
<path d="M17000 16031 c0 -5 5 -13 10 -16 6 -3 10 -2 10 4 0 5 -4 13 -10 16
-5 3 -10 2 -10 -4z"/>
<path d="M17045 15940 c3 -5 8 -10 11 -10 2 0 4 5 4 10 0 6 -5 10 -11 10 -5 0
-7 -4 -4 -10z"/>
<path d="M5810 15921 c0 -5 21 -25 48 -44 206 -153 363 -426 423 -736 21 -106
21 -116 22 -3346 1 -2979 -1 -3253 -16 -3403 -19 -181 -36 -288 -67 -419 -68
-281 -197 -534 -341 -668 -33 -30 -59 -59 -59 -64 0 -8 155 -11 495 -11 l495
0 0 4350 0 4350 -500 0 c-296 0 -500 -4 -500 -9z"/>
<path d="M7235 15918 c-3 -7 -4 -1964 -3 -4348 l3 -4335 528 -3 c310 -1 527 2
527 7 0 5 -35 31 -77 57 -46 29 -121 92 -184 154 -174 173 -270 344 -332 595
-37 149 -38 204 -35 1775 l3 1535 1315 0 1315 0 0 -1420 0 -1420 -28 -130
c-15 -71 -31 -146 -36 -165 -104 -391 -201 -617 -344 -799 -62 -80 -88 -103
-154 -142 -29 -17 -53 -35 -53 -40 0 -5 216 -8 533 -7 l532 3 0 4345 0 4345
-520 2 -520 3 35 -31 c127 -110 159 -142 226 -232 94 -126 165 -269 223 -447
120 -367 144 -629 156 -1670 6 -509 -7 -1397 -20 -1433 -7 -16 -79 -17 -1334
-15 l-1326 3 0 1380 c0 1539 -5 1424 71 1688 42 146 139 352 214 452 71 95
162 187 238 242 34 24 62 49 62 54 0 5 -208 9 -505 9 -395 0 -507 -3 -510 -12z"/>
<path d="M11192 11583 l3 -4348 573 -3 c601 -2 614 -1 545 40 -45 26 -156 138
-207 208 -114 154 -160 310 -137 456 6 38 36 150 67 249 31 99 60 194 64 210
11 39 85 286 200 660 51 165 111 365 135 445 43 145 50 169 122 395 l38 120
779 3 c546 1 783 -1 792 -9 7 -6 22 -43 34 -82 12 -40 41 -135 65 -212 42
-137 92 -298 160 -520 19 -60 56 -182 83 -270 28 -88 69 -221 92 -295 22 -74
45 -146 50 -160 5 -14 20 -65 35 -115 14 -49 30 -101 35 -115 74 -209 79 -559
10 -760 -30 -90 -65 -144 -121 -193 -27 -23 -49 -45 -49 -49 0 -5 191 -8 425
-8 472 0 437 -5 416 65 -5 17 -32 104 -59 195 -28 91 -80 262 -117 380 -117
378 -137 445 -142 465 -3 11 -15 54 -28 95 -32 102 -101 326 -132 430 -14 47
-33 110 -43 140 -18 56 -47 151 -95 315 -15 50 -33 108 -40 130 -8 22 -26 81
-40 130 -15 50 -33 108 -40 130 -17 51 -62 197 -170 555 -47 157 -99 326 -115
375 -26 82 -53 173 -126 415 -14 47 -30 96 -34 110 -4 14 -20 66 -35 115 -15
50 -33 108 -40 130 -8 22 -35 110 -61 195 -67 224 -133 441 -143 470 -5 14
-18 57 -30 95 -20 70 -78 262 -127 425 -14 47 -30 96 -35 110 -8 24 -105 339
-136 445 -8 28 -46 151 -85 275 -38 124 -76 248 -83 275 -40 144 -96 310 -111
326 -9 11 -27 19 -40 19 -12 0 -49 6 -81 14 -72 17 -138 31 -268 56 -55 11
-210 42 -345 70 -135 27 -249 50 -255 50 -11 0 46 -49 58 -50 15 0 212 -123
272 -169 179 -137 326 -292 410 -432 107 -180 140 -288 140 -469 l0 -125 -62
-195 c-52 -165 -132 -425 -164 -535 -4 -16 -16 -55 -24 -85 -9 -30 -20 -68
-25 -85 -4 -16 -28 -95 -53 -175 -25 -80 -64 -208 -86 -285 -23 -77 -46 -151
-50 -165 -5 -14 -17 -52 -26 -85 -9 -33 -25 -85 -35 -115 -10 -30 -25 -82 -35
-115 -9 -33 -35 -118 -56 -190 -22 -71 -50 -166 -63 -210 -29 -96 -93 -308
-105 -350 -5 -16 -26 -84 -46 -150 -44 -145 -85 -281 -119 -395 -14 -47 -57
-188 -95 -315 -114 -378 -162 -536 -186 -620 -12 -44 -53 -179 -90 -300 -97
-320 -166 -546 -175 -580 -5 -16 -15 -54 -23 -83 -16 -60 -33 -84 -45 -65 -5
7 -14 48 -20 90 -7 43 -17 103 -23 133 -5 30 -16 135 -24 233 -22 261 -22
6666 0 6797 53 321 144 534 300 707 36 39 65 74 65 77 0 3 -173 6 -385 6
l-385 0 2 -4347z m2249 847 c22 -70 128 -409 184 -585 34 -110 80 -254 100
-320 20 -66 54 -174 75 -240 44 -137 116 -366 129 -410 5 -16 28 -89 51 -162
23 -73 40 -139 37 -147 -5 -14 -80 -16 -584 -18 -318 -2 -586 -1 -595 1 -20 4
-24 45 -9 83 9 21 24 70 125 393 19 61 57 180 84 265 48 150 96 305 168 535
19 61 40 130 48 155 55 171 135 430 140 453 8 35 36 33 47 -3z"/>
<path d="M17281 15684 c0 -11 3 -14 6 -6 3 7 2 16 -1 19 -3 4 -6 -2 -5 -13z"/>
<path d="M17440 15393 c0 -4 5 -15 10 -23 8 -13 10 -13 10 2 0 9 -4 20 -10 23
-5 3 -10 3 -10 -2z"/>
<path d="M17726 14742 c-9 -26 -1 -41 13 -26 5 5 5 18 1 29 -7 19 -7 19 -14
-3z"/>
<path d="M17802 14520 c0 -14 2 -19 5 -12 2 6 2 18 0 25 -3 6 -5 1 -5 -13z"/>
<path d="M15285 14480 c10 -11 20 -20 23 -20 3 0 -3 9 -13 20 -10 11 -20 20
-23 20 -3 0 3 -9 13 -20z"/>
<path d="M15495 14260 c3 -5 8 -10 11 -10 2 0 4 5 4 10 0 6 -5 10 -11 10 -5 0
-7 -4 -4 -10z"/>
<path d="M4376 14241 c-4 -7 -5 -15 -2 -18 9 -9 19 4 14 18 -4 11 -6 11 -12 0z"/>
<path d="M4337 14193 c-4 -3 -7 -15 -7 -25 0 -17 2 -18 15 -4 8 8 15 19 15 25
0 12 -13 15 -23 4z"/>
<path d="M17851 14164 c0 -11 3 -14 6 -6 3 7 2 16 -1 19 -3 4 -6 -2 -5 -13z"/>
<path d="M13600 14060 c0 -5 15 -58 34 -117 19 -60 50 -160 69 -223 20 -63 65
-209 100 -325 65 -208 106 -343 173 -565 19 -63 41 -133 48 -155 8 -22 21 -67
31 -100 9 -33 25 -85 35 -115 20 -60 53 -167 155 -505 36 -121 72 -238 79
-260 8 -22 26 -80 41 -130 25 -84 74 -245 130 -425 33 -108 93 -301 122 -400
33 -109 88 -288 113 -365 18 -57 54 -176 122 -400 17 -55 36 -118 44 -140 7
-22 27 -85 43 -140 16 -55 42 -138 56 -185 14 -47 40 -130 56 -185 29 -97 52
-171 158 -510 27 -88 66 -214 85 -280 45 -148 75 -247 119 -390 19 -60 47
-150 62 -200 15 -49 40 -130 56 -180 15 -49 34 -112 43 -140 8 -27 35 -117 60
-199 25 -82 46 -155 46 -163 0 -7 12 -18 26 -23 27 -11 744 -14 744 -4 0 3
-25 28 -55 56 -126 115 -310 406 -513 813 -78 156 -106 226 -159 395 -88 281
-183 586 -198 640 -8 25 -24 79 -38 120 -14 41 -39 122 -57 180 -18 58 -42
137 -55 175 -12 39 -32 104 -45 145 -12 41 -33 107 -45 145 -13 39 -35 111
-50 160 -15 50 -54 176 -87 280 -33 105 -77 246 -98 315 -51 168 -68 220 -100
320 -15 47 -38 119 -50 160 -13 41 -40 129 -61 195 -21 66 -46 149 -57 185
-24 79 -135 437 -203 655 -103 329 -148 473 -184 590 -20 66 -52 167 -70 225
-18 58 -45 141 -58 185 -14 44 -44 141 -67 215 -65 210 -140 450 -159 505
l-16 50 -150 48 c-83 26 -170 54 -195 62 -52 17 -80 19 -80 5z"/>
<path d="M4280 14044 c0 -8 5 -12 10 -9 6 3 10 10 10 16 0 5 -4 9 -10 9 -5 0
-10 -7 -10 -16z"/>
<path d="M15785 14000 c3 -5 8 -10 11 -10 2 0 4 5 4 10 0 6 -5 10 -11 10 -5 0
-7 -4 -4 -10z"/>
<path d="M4220 13950 c0 -5 5 -10 10 -10 6 0 10 5 10 10 0 6 -4 10 -10 10 -5
0 -10 -4 -10 -10z"/>
<path d="M17961 13934 c0 -11 3 -14 6 -6 3 7 2 16 -1 19 -3 4 -6 -2 -5 -13z"/>
<path d="M4095 13887 c-4 -10 -5 -21 -1 -24 10 -10 18 4 13 24 -4 17 -4 17
-12 0z"/>
<path d="M4171 13784 c0 -11 3 -14 6 -6 3 7 2 16 -1 19 -3 4 -6 -2 -5 -13z"/>
<path d="M16136 13441 c-3 -5 1 -14 8 -20 12 -10 13 -8 9 8 -6 23 -9 25 -17
12z"/>
<path d="M3934 13432 c-5 -4 -16 -23 -24 -42 -8 -19 -21 -40 -29 -46 -10 -8
-12 -22 -7 -52 5 -34 4 -40 -9 -36 -12 5 -15 -2 -15 -30 0 -30 -3 -36 -17 -34
-15 2 -18 -4 -18 -35 0 -20 -3 -37 -7 -37 -5 0 -8 5 -8 10 0 6 -7 10 -15 10
-17 0 -19 -18 -5 -40 9 -13 11 -13 20 0 9 12 10 10 8 -10 -5 -46 25 -29 40 23
7 26 17 47 21 47 5 0 12 17 16 37 4 20 13 46 21 57 8 11 14 29 14 41 0 11 10
43 22 72 21 51 17 82 -8 65z"/>
<path d="M12210 13147 c-68 -16 -91 -28 -147 -80 -104 -96 -133 -236 -87 -418
8 -31 14 -61 14 -67 0 -6 -25 -24 -56 -42 -111 -62 -200 -145 -242 -224 -67
-125 -45 -295 49 -397 126 -137 395 -130 588 15 19 14 39 26 44 26 6 0 31 -20
57 -44 160 -150 324 -122 441 74 60 101 50 130 -22 65 -47 -42 -75 -50 -117
-32 -47 19 -152 109 -152 130 0 9 17 43 39 75 21 31 64 104 95 162 65 119 95
155 143 171 23 7 33 16 31 27 -3 15 -24 17 -171 20 -160 2 -167 2 -167 -17 0
-11 9 -22 20 -26 10 -3 31 -20 46 -38 22 -27 25 -38 21 -80 -2 -28 -19 -78
-41 -120 -47 -93 -62 -111 -80 -104 -35 14 -260 345 -254 375 2 8 34 31 71 51
123 65 207 174 207 270 0 161 -155 268 -330 228z m64 -88 c27 -13 70 -86 81
-138 12 -55 7 -118 -11 -157 -18 -38 -77 -84 -107 -84 -33 0 -90 160 -90 256
-1 65 15 98 55 121 29 15 41 16 72 2z m-197 -669 c55 -103 144 -239 205 -312
17 -21 28 -43 25 -52 -9 -22 -94 -56 -141 -56 -160 0 -323 264 -262 425 18 46
80 108 105 103 7 -2 38 -50 68 -108z"/>
<path d="M3680 13126 c-6 -9 -10 -21 -8 -28 3 -8 9 -4 17 10 15 28 9 39 -9 18z"/>
<path d="M3760 13045 c0 -8 -4 -23 -9 -33 -23 -45 -31 -69 -29 -89 1 -11 -6
-37 -17 -57 -11 -19 -16 -38 -12 -42 9 -9 47 25 47 43 0 7 4 13 9 13 4 0 16
27 25 59 9 32 23 62 31 65 12 4 10 10 -9 31 -27 29 -36 31 -36 10z"/>
<path d="M3657 12804 c-8 -8 1 -24 14 -24 5 0 9 7 9 15 0 15 -12 20 -23 9z"/>
<path d="M3302 12220 c0 -14 2 -19 5 -12 2 6 2 18 0 25 -3 6 -5 1 -5 -13z"/>
<path d="M3097 11615 c-4 -8 -2 -17 3 -20 6 -4 10 3 10 14 0 25 -6 27 -13 6z"/>
<path d="M17062 11040 c0 -14 2 -19 5 -12 2 6 2 18 0 25 -3 6 -5 1 -5 -13z"/>
<path d="M2741 10304 c0 -11 3 -14 6 -6 3 7 2 16 -1 19 -3 4 -6 -2 -5 -13z"/>
<path d="M2672 9900 c0 -14 2 -19 5 -12 2 6 2 18 0 25 -3 6 -5 1 -5 -13z"/>
<path d="M17878 9804 c-5 -4 -8 -21 -8 -38 0 -21 3 -27 11 -19 6 6 9 23 7 38
-2 15 -6 23 -10 19z"/>
<path d="M3562 9455 c0 -16 2 -22 5 -12 2 9 2 23 0 30 -3 6 -5 -1 -5 -18z"/>
<path d="M3705 8630 c-4 -17 -5 -34 -2 -36 3 -3 8 9 12 26 4 17 5 34 2 36 -3
3 -8 -9 -12 -26z"/>
<path d="M17212 8555 c0 -16 2 -22 5 -12 2 9 2 23 0 30 -3 6 -5 -1 -5 -18z"/>
<path d="M3741 8544 c0 -11 3 -14 6 -6 3 7 2 16 -1 19 -3 4 -6 -2 -5 -13z"/>
<path d="M2471 8004 c0 -11 3 -14 6 -6 3 7 2 16 -1 19 -3 4 -6 -2 -5 -13z"/>
<path d="M4025 7740 c3 -5 8 -10 11 -10 2 0 4 5 4 10 0 6 -5 10 -11 10 -5 0
-7 -4 -4 -10z"/>
<path d="M17182 7280 c-16 -26 -15 -40 3 -40 10 0 15 10 15 30 0 35 -1 36 -18
10z"/>
<path d="M17270 7248 c0 -19 2 -20 10 -8 13 19 13 30 0 30 -5 0 -10 -10 -10
-22z"/>
<path d="M17061 7244 c0 -11 3 -14 6 -6 3 7 2 16 -1 19 -3 4 -6 -2 -5 -13z"/>
<path d="M4275 7230 c-3 -5 1 -10 10 -10 9 0 13 5 10 10 -3 6 -8 10 -10 10 -2
0 -7 -4 -10 -10z"/>
<path d="M4310 7176 c0 -9 5 -16 10 -16 6 0 10 4 10 9 0 6 -4 13 -10 16 -5 3
-10 -1 -10 -9z"/>
<path d="M17011 6964 c0 -11 3 -14 6 -6 3 7 2 16 -1 19 -3 4 -6 -2 -5 -13z"/>
<path d="M7525 6896 c-74 -34 -138 -101 -165 -172 -18 -49 -21 -72 -17 -141 5
-84 6 -88 90 -233 69 -119 46 -208 -66 -251 -23 -9 -44 -24 -45 -34 -4 -19 54
-173 73 -193 21 -23 79 -4 141 47 100 80 144 170 144 295 0 81 -18 135 -78
241 -59 104 -68 136 -53 183 14 43 53 72 95 72 32 0 32 2 -1 103 -39 121 -39
120 -118 83z"/>
<path d="M7954 6891 c-72 -34 -137 -104 -160 -175 -12 -35 -15 -71 -12 -130 5
-83 20 -126 69 -201 45 -69 59 -107 59 -156 0 -40 -6 -55 -30 -83 -17 -19 -50
-41 -73 -49 -53 -17 -57 -37 -22 -125 48 -122 57 -127 134 -90 63 31 137 107
169 176 23 49 27 70 27 154 l0 97 -67 131 c-41 78 -68 142 -68 160 0 57 44
109 92 110 15 0 29 4 33 9 6 10 -42 167 -58 189 -13 17 -25 15 -93 -17z"/>
<path d="M11900 6894 c-143 -66 -208 -200 -175 -359 9 -40 29 -92 49 -125 18
-30 43 -74 55 -97 49 -98 10 -183 -101 -223 -22 -7 -28 -16 -28 -37 1 -35 62
-174 82 -187 26 -16 104 21 162 78 62 61 93 121 107 207 15 91 3 160 -38 238
-20 36 -49 91 -65 121 -25 45 -29 64 -25 104 5 58 42 95 96 96 29 0 33 3 28
23 -14 62 -65 182 -78 185 -8 1 -39 -9 -69 -24z"/>
<path d="M12350 6903 c-29 -11 -66 -37 -105 -77 -71 -72 -91 -124 -89 -233 1
-74 17 -117 93 -249 38 -67 48 -131 27 -172 -18 -35 -60 -68 -99 -77 -49 -13
-52 -27 -22 -107 50 -131 61 -142 121 -115 131 59 203 161 219 312 9 79 -10
147 -66 245 -64 110 -82 165 -69 206 13 39 57 74 93 74 32 0 43 16 28 43 -6
12 -22 54 -34 92 -14 39 -30 71 -38 72 -8 1 -34 -6 -59 -14z"/>
<path d="M16405 6891 c-107 -51 -167 -138 -173 -252 -6 -96 10 -154 69 -254
57 -97 72 -166 47 -215 -15 -27 -85 -79 -109 -80 -37 0 -38 -21 -8 -104 54
-145 68 -152 170 -83 116 77 176 196 167 332 -5 74 -20 114 -100 260 -26 47
-33 72 -33 113 0 48 3 57 30 78 18 14 43 24 63 24 19 0 32 5 32 13 -1 31 -67
192 -80 195 -8 1 -42 -11 -75 -27z"/>
<path d="M8441 6900 c-15 -10 -31 -64 -116 -395 -13 -49 -35 -135 -50 -190
-80 -297 -103 -400 -93 -412 12 -15 155 -18 176 -5 6 5 19 34 27 66 9 32 18
63 21 67 3 5 54 9 113 9 124 0 128 -3 142 -77 13 -69 19 -73 121 -73 69 0 90
3 94 15 7 18 -39 201 -170 670 -68 242 -84 297 -94 311 -7 12 -157 24 -171 14z
m97 -387 c20 -55 43 -171 40 -204 l-3 -34 -55 0 c-52 0 -55 1 -58 27 -2 15 6
62 17 105 11 43 22 90 26 106 3 15 9 27 14 27 5 0 13 -12 19 -27z"/>
<path d="M12820 6892 c-59 -23 -147 -112 -184 -187 -48 -98 -66 -184 -66 -315
0 -189 51 -329 155 -431 199 -193 476 -58 549 268 39 174 3 410 -78 518 -12
16 -25 37 -28 46 -10 26 -91 87 -138 104 -55 19 -153 18 -210 -3z m206 -288
c59 -63 78 -123 72 -233 -8 -157 -94 -259 -199 -236 -65 15 -116 82 -139 186
-24 106 17 241 92 304 23 20 41 25 81 25 47 0 53 -3 93 -46z"/>
<path d="M13595 6888 c-90 -46 -157 -136 -200 -268 -25 -77 -28 -98 -28 -235
0 -135 3 -157 26 -223 52 -151 130 -244 229 -275 113 -35 202 -13 285 71 29
29 55 63 59 77 8 32 -58 179 -83 184 -9 2 -26 -8 -38 -22 -68 -83 -174 -88
-229 -9 -47 68 -59 111 -59 210 0 84 3 98 33 158 63 129 166 141 261 30 15
-17 32 -27 40 -24 8 3 30 45 48 92 l35 87 -19 35 c-22 41 -82 91 -138 117 -56
25 -170 23 -222 -5z"/>
<path d="M6793 6773 c-30 -118 -56 -216 -113 -428 -12 -44 -26 -96 -30 -115
-5 -19 -25 -98 -44 -175 -20 -77 -34 -146 -31 -152 3 -9 31 -13 89 -13 97 0
108 8 121 88 4 26 14 46 25 52 10 6 64 10 119 10 114 0 112 1 132 -89 13 -60
19 -63 134 -59 l80 3 -2 30 c-1 33 -11 73 -42 185 -12 41 -32 116 -45 165 -71
263 -145 526 -163 578 l-17 47 -91 0 -91 0 -31 -127z m167 -351 c12 -57 19
-114 16 -128 -6 -23 -10 -25 -59 -22 -49 3 -52 5 -55 32 -4 29 32 186 50 220
15 28 24 10 48 -102z"/>
<path d="M9060 6890 c-14 -4 -44 -8 -67 -9 -24 -1 -43 -4 -43 -8 -1 -5 -1
-224 -1 -487 -1 -439 0 -480 16 -488 10 -6 51 -7 97 -3 l80 7 -3 252 c-3 208
-2 251 10 251 7 0 72 -108 146 -244 73 -135 141 -250 151 -258 19 -14 149 -19
158 -5 2 4 6 228 8 497 l3 490 -90 -3 c-49 -1 -93 -6 -97 -10 -5 -5 -4 -116 0
-248 5 -131 7 -245 4 -252 -11 -31 -38 0 -94 108 -240 461 -218 429 -278 410z"/>
<path d="M10246 6890 c-37 -12 -73 -45 -99 -95 -18 -33 -21 -57 -21 -135 0
-52 4 -119 9 -147 l8 -53 -56 -55 c-31 -31 -65 -76 -77 -100 -46 -96 -46 -245
2 -342 60 -120 198 -123 298 -4 24 28 48 51 55 51 6 0 26 -19 44 -43 43 -59
78 -77 143 -77 74 0 79 6 80 81 1 105 0 109 -24 109 -31 0 -83 33 -104 65 -16
25 -16 27 3 53 11 15 40 38 64 52 47 28 56 48 58 122 1 67 -5 78 -46 78 -49 0
-98 -33 -129 -86 -14 -24 -32 -44 -39 -44 -15 0 -75 101 -75 126 0 9 20 42 45
72 43 52 75 128 75 180 0 38 -29 125 -50 150 -36 43 -102 60 -164 42z m102
-138 c28 -36 8 -104 -45 -155 -28 -26 -30 -27 -45 -10 -23 25 -33 107 -18 142
20 49 77 61 108 23z m-130 -454 c5 -7 22 -37 37 -66 15 -29 31 -55 36 -58 18
-11 8 -50 -20 -82 -23 -24 -38 -32 -64 -32 -53 0 -72 28 -72 109 0 59 4 73 28
104 30 40 39 44 55 25z"/>
<path d="M11205 6889 c-7 -11 -32 -101 -126 -459 -22 -85 -56 -216 -76 -290
-49 -186 -56 -219 -49 -235 7 -19 154 -21 179 -2 9 6 21 33 26 59 13 75 19 78
136 78 117 0 128 -6 139 -80 10 -66 17 -70 117 -70 110 0 115 5 87 104 -11 39
-30 112 -43 161 -24 88 -42 156 -105 380 -17 61 -39 142 -50 180 -11 39 -27
95 -37 125 l-18 55 -87 3 c-57 2 -89 -1 -93 -9z m134 -477 c28 -133 25 -142
-44 -142 -43 0 -55 4 -59 18 -6 17 20 140 46 221 16 51 32 23 57 -97z"/>
<path d="M14560 6896 c0 -11 -174 -676 -237 -907 -25 -90 -22 -94 76 -97 50
-2 88 2 96 8 8 6 19 34 25 62 6 29 15 58 22 65 12 14 203 19 225 5 6 -4 17
-30 24 -57 21 -88 18 -86 122 -83 l92 3 -2 55 c-2 30 -7 66 -12 80 -5 14 -21
68 -35 120 -43 158 -127 462 -141 510 -7 25 -18 65 -25 90 -7 25 -20 68 -29
95 l-17 50 -92 3 c-51 1 -92 1 -92 -2z m113 -373 c3 -5 15 -56 27 -116 26
-126 22 -137 -46 -137 -61 0 -69 18 -45 112 10 40 21 90 25 111 6 34 27 50 39
30z"/>
<path d="M5835 6880 c-3 -5 -6 -110 -4 -233 1 -122 2 -341 3 -487 l1 -265 83
-3 c58 -2 89 1 99 10 14 11 15 37 10 186 -4 146 -3 175 10 187 12 13 39 15
137 13 l121 -3 3 -190 c2 -136 6 -191 15 -197 17 -11 159 -10 176 1 11 7 13
42 11 183 -5 244 -6 354 -1 586 2 111 1 205 -2 208 -5 5 -139 9 -186 5 -11 -1
-12 -29 -6 -164 9 -206 15 -197 -136 -197 -162 0 -153 -12 -144 191 l7 169
-80 0 c-44 0 -87 3 -95 6 -8 3 -18 0 -22 -6z"/>
<path d="M14045 6880 c-3 -4 -9 -942 -6 -977 2 -20 175 -18 191 2 9 11 11 77
6 282 -3 148 -2 360 3 473 5 113 7 208 3 211 -9 9 -192 17 -197 9z"/>
<path d="M15064 6879 c-8 -14 -26 -211 -19 -217 4 -4 41 -7 83 -7 l77 0 0
-370 c0 -203 4 -376 8 -382 11 -17 168 -18 185 -1 9 9 10 100 5 374 -5 290 -4
366 7 379 10 12 25 14 77 9 45 -5 67 -3 72 5 5 8 7 170 2 211 -1 8 -492 6
-497 -1z"/>
<path d="M15644 6878 c-4 -7 -6 -84 -3 -173 6 -234 5 -428 -4 -615 -4 -91 -4
-170 0 -176 12 -17 478 -27 492 -11 5 7 13 64 17 126 l7 114 -89 -9 c-125 -11
-196 -7 -211 13 -7 9 -13 43 -13 75 0 54 2 58 26 64 14 4 73 4 130 2 58 -3
106 -2 108 1 2 3 7 57 11 119 l7 113 -119 -7 c-158 -9 -165 -6 -161 84 l3 67
145 0 145 0 -3 75 c-2 41 -7 91 -11 110 l-7 35 -231 3 c-174 2 -233 -1 -239
-10z"/>
<path d="M17051 6630 c0 -14 4 -32 9 -40 8 -12 10 -12 9 5 0 11 -4 29 -9 40
-8 18 -9 18 -9 -5z"/>
<path d="M4732 6539 c2 -7 10 -15 17 -17 8 -3 12 1 9 9 -2 7 -10 15 -17 17 -8
3 -12 -1 -9 -9z"/>
<path d="M17030 6510 c0 -5 5 -10 11 -10 5 0 7 5 4 10 -3 6 -8 10 -11 10 -2 0
-4 -4 -4 -10z"/>
<path d="M4835 6410 c3 -5 8 -10 11 -10 2 0 4 5 4 10 0 6 -5 10 -11 10 -5 0
-7 -4 -4 -10z"/>
<path d="M16880 6149 c-13 -24 -4 -41 10 -19 10 16 13 40 5 40 -2 0 -9 -9 -15
-21z"/>
<path d="M16767 5973 c-4 -3 -7 -13 -7 -22 1 -13 3 -13 11 2 11 19 8 33 -4 20z"/>
<path d="M5627 5629 c7 -7 15 -10 18 -7 3 3 -2 9 -12 12 -14 6 -15 5 -6 -5z"/>
<path d="M6130 5266 c0 -2 7 -9 15 -16 9 -7 15 -8 15 -2 0 5 -7 12 -15 16 -8
3 -15 4 -15 2z"/>
<path d="M6808 4853 c7 -3 16 -2 19 1 4 3 -2 6 -13 5 -11 0 -14 -3 -6 -6z"/>
<path d="M8020 4420 c0 -5 5 -10 11 -10 5 0 7 5 4 10 -3 6 -8 10 -11 10 -2 0
-4 -4 -4 -10z"/>
<path d="M4100 3711 c0 -6 4 -13 10 -16 6 -3 7 1 4 9 -7 18 -14 21 -14 7z"/>
<path d="M4180 3630 c0 -5 5 -10 11 -10 5 0 7 5 4 10 -3 6 -8 10 -11 10 -2 0
-4 -4 -4 -10z"/>
<path d="M4324 3501 c21 -23 26 -26 26 -11 0 5 -10 15 -22 21 -23 12 -23 12
-4 -10z"/>
<path d="M4360 3470 c0 -6 7 -13 15 -17 24 -9 27 1 5 15 -13 8 -20 8 -20 2z"/>
<path d="M9928 3441 c-21 -20 -25 -30 -17 -43 5 -10 9 -24 7 -31 -2 -7 2 -12
7 -12 6 0 10 10 9 23 0 26 11 28 33 6 10 -9 25 -13 42 -10 32 7 44 0 65 -41
20 -40 42 -42 49 -5 4 22 -1 32 -31 57 -20 17 -44 37 -53 46 -9 9 -28 15 -43
14 -14 -2 -29 3 -33 10 -6 9 -15 6 -35 -14z"/>
<path d="M10220 3374 c0 -8 5 -12 10 -9 6 4 8 11 5 16 -9 14 -15 11 -15 -7z"/>
<path d="M9745 3346 c-5 -12 -3 -21 5 -26 20 -12 -3 -37 -43 -46 l-32 -7 34
-9 c42 -11 81 -3 81 17 0 8 4 14 9 13 10 -3 11 1 11 33 0 17 -4 20 -24 15 -18
-4 -26 -2 -29 11 -4 17 -4 17 -12 -1z"/>
<path d="M9994 3325 c-1 -15 5 -25 16 -28 13 -3 16 0 13 14 -8 31 -28 40 -29
14z"/>
<path d="M9600 3305 c0 -7 11 -10 30 -7 17 2 30 5 30 7 0 2 -13 5 -30 7 -19 3
-30 0 -30 -7z"/>
<path d="M10134 3295 c-8 -21 6 -41 17 -24 6 10 9 11 9 2 0 -7 5 -13 10 -13
16 0 11 37 -6 44 -22 8 -24 8 -30 -9z"/>
<path d="M9920 3270 c0 -5 5 -10 10 -10 6 0 10 5 10 10 0 6 -4 10 -10 10 -5 0
-10 -4 -10 -10z"/>
<path d="M10133 3220 c-3 -11 -9 -20 -14 -20 -5 0 -9 -9 -9 -20 0 -26 12 -25
28 1 11 16 16 18 28 9 8 -7 14 -18 14 -25 0 -7 7 -15 15 -19 9 -3 15 -18 15
-37 0 -19 7 -37 18 -45 21 -16 40 -18 25 -3 -6 6 -9 26 -6 44 4 27 1 35 -16
44 -11 7 -21 20 -21 31 0 16 -47 60 -65 60 -4 0 -9 -9 -12 -20z"/>
<path d="M10320 3216 c0 -8 5 -18 10 -21 6 -3 10 1 10 9 0 8 -4 18 -10 21 -5
3 -10 -1 -10 -9z"/>
<path d="M4690 3201 c0 -11 59 -55 65 -49 2 2 -11 16 -30 31 -19 15 -35 23
-35 18z"/>
<path d="M9396 3124 c-9 -23 1 -34 29 -32 28 3 31 13 11 34 -19 18 -32 18 -40
-2z"/>
<path d="M10130 3120 c-19 -14 -22 -22 -14 -30 9 -9 16 -6 28 12 14 19 18 21
26 8 11 -17 13 -9 4 14 -8 20 -13 20 -44 -4z"/>
<path d="M9303 3083 c-18 -6 -16 -23 1 -23 17 0 30 16 19 23 -5 2 -14 2 -20 0z"/>
<path d="M9228 3073 c7 -3 16 -2 19 1 4 3 -2 6 -13 5 -11 0 -14 -3 -6 -6z"/>
<path d="M9925 3070 c-8 -14 3 -30 21 -30 18 0 18 8 0 26 -9 9 -17 10 -21 4z"/>
<path d="M10059 3054 c-11 -14 -10 -16 9 -12 13 1 23 7 23 13 1 17 -17 16 -32
-1z"/>
<path d="M10120 3059 c0 -6 9 -13 20 -16 11 -3 20 -11 20 -18 0 -8 9 -17 21
-20 17 -6 19 -12 13 -33 -11 -42 -13 -112 -2 -118 21 -13 33 20 34 91 l0 75
-29 0 c-22 0 -28 4 -23 15 4 11 -3 19 -20 25 -32 12 -34 12 -34 -1z"/>
<path d="M9405 3050 c-3 -5 1 -10 10 -10 9 0 13 5 10 10 -3 6 -8 10 -10 10 -2
0 -7 -4 -10 -10z"/>
<path d="M10290 3038 c0 -19 2 -20 10 -8 13 19 13 30 0 30 -5 0 -10 -10 -10
-22z"/>
<path d="M9230 2990 c0 -5 7 -10 15 -10 8 0 15 5 15 10 0 6 -7 10 -15 10 -8 0
-15 -4 -15 -10z"/>
<path d="M10020 2990 c-21 -7 -22 -8 -5 -9 11 -1 30 -4 43 -7 16 -5 22 -2 22
10 0 17 -19 19 -60 6z"/>
<path d="M10300 2975 c0 -8 5 -15 10 -15 6 0 10 7 10 15 0 8 -4 15 -10 15 -5
0 -10 -7 -10 -15z"/>
<path d="M10296 2938 c-3 -7 -4 -20 -4 -28 0 -8 -3 -23 -7 -32 -8 -19 9 -25
20 -8 11 17 20 11 32 -20 8 -20 8 -30 0 -33 -14 -4 13 -97 29 -97 18 0 44 35
44 61 0 40 -11 69 -26 69 -8 0 -14 9 -14 20 0 10 -6 23 -14 27 -7 4 -18 18
-25 31 -13 24 -29 29 -35 10z"/>
<path d="M10241 2924 c0 -11 3 -14 6 -6 3 7 2 16 -1 19 -3 4 -6 -2 -5 -13z"/>
<path d="M9140 2916 c0 -8 -9 -18 -20 -21 -11 -4 -18 -10 -15 -15 3 -5 -1 -11
-7 -13 -7 -3 1 -6 19 -6 39 -1 65 8 57 20 -3 5 2 9 10 9 9 0 16 9 16 20 0 16
-7 20 -30 20 -19 0 -30 -5 -30 -14z"/>
<path d="M8892 2848 c6 -18 28 -21 28 -4 0 9 -7 16 -16 16 -9 0 -14 -5 -12
-12z"/>
<path d="M8960 2830 c0 -5 5 -10 11 -10 5 0 7 5 4 10 -3 6 -8 10 -11 10 -2 0
-4 -4 -4 -10z"/>
<path d="M9025 2830 c-3 -5 -1 -10 4 -10 6 0 11 5 11 10 0 6 -2 10 -4 10 -3 0
-8 -4 -11 -10z"/>
<path d="M8870 2823 c0 -4 5 -15 10 -23 8 -13 10 -13 10 2 0 9 -4 20 -10 23
-5 3 -10 3 -10 -2z"/>
<path d="M10300 2823 c0 -5 5 -15 10 -23 8 -12 10 -11 10 8 0 12 -4 22 -10 22
-5 0 -10 -3 -10 -7z"/>
<path d="M5315 2800 c-3 -5 -1 -10 4 -10 6 0 11 5 11 10 0 6 -2 10 -4 10 -3 0
-8 -4 -11 -10z"/>
<path d="M10260 2760 c0 -5 5 -10 10 -10 6 0 10 5 10 10 0 6 -4 10 -10 10 -5
0 -10 -4 -10 -10z"/>
<path d="M8908 2748 c9 -9 15 -9 24 0 9 9 7 12 -12 12 -19 0 -21 -3 -12 -12z"/>
<path d="M10304 2713 c-3 -10 -11 -28 -17 -40 -6 -13 -8 -26 -4 -29 10 -10 27
6 27 27 0 11 5 17 10 14 6 -3 10 1 10 9 0 9 0 19 1 23 1 17 -21 13 -27 -4z"/>
<path d="M10072 2700 c14 -22 24 -25 33 -10 3 6 -1 10 -9 10 -9 0 -16 5 -16
10 0 6 -5 10 -10 10 -6 0 -5 -8 2 -20z"/>
<path d="M8624 2692 c-18 -11 -29 -92 -12 -92 32 0 59 13 54 26 -3 9 2 14 13
14 10 0 21 -6 24 -13 7 -19 77 -22 77 -2 0 8 5 15 10 15 6 0 10 14 10 30 l0
30 -82 0 c-46 0 -88 -4 -94 -8z"/>
<path d="M10000 2680 c0 -19 3 -21 12 -12 9 9 9 15 0 24 -9 9 -12 7 -12 -12z"/>
<path d="M10410 2691 c0 -5 -11 -12 -25 -15 -18 -5 -25 -13 -25 -31 0 -13 4
-26 9 -29 12 -8 20 -56 9 -56 -5 0 -7 -4 -3 -9 3 -5 -1 -16 -9 -24 -10 -10
-12 -17 -4 -25 7 -7 3 -19 -16 -38 -14 -16 -22 -32 -17 -37 4 -4 5 -23 2 -40
-5 -25 -12 -33 -34 -35 -19 -2 -27 1 -27 12 0 8 -8 20 -17 25 -10 6 -12 11 -5
11 21 0 13 20 -8 20 -12 0 -20 -6 -19 -12 3 -26 -13 -56 -36 -68 -32 -17 -40
-54 -18 -90 17 -29 43 -41 43 -19 0 6 10 19 23 30 l22 19 -47 -5 c-28 -3 -48
-1 -48 5 0 6 7 10 15 10 8 0 15 5 15 11 0 5 4 8 9 4 6 -3 8 2 7 12 -4 18 10
36 32 41 7 1 19 -16 28 -37 8 -22 22 -42 30 -45 19 -7 54 23 54 46 0 10 7 18
15 18 9 0 17 6 19 13 2 6 9 32 16 57 6 25 19 59 27 77 17 35 11 94 -11 115
-11 10 -10 17 7 40 11 14 17 34 14 42 -7 17 -27 22 -27 7z m-5 -161 c3 -5 3
-15 -1 -21 -6 -11 -23 6 -24 24 0 10 18 9 25 -3z"/>
<path d="M10138 2663 c7 -3 16 -2 19 1 4 3 -2 6 -13 5 -11 0 -14 -3 -6 -6z"/>
<path d="M10064 2649 c-3 -5 9 -9 25 -9 17 0 31 2 31 4 0 8 -51 13 -56 5z"/>
<path d="M10300 2627 c0 -7 9 -13 19 -14 14 -1 18 3 14 13 -6 17 -33 19 -33 1z"/>
<path d="M8488 2623 c-10 -3 -18 -14 -18 -26 0 -13 3 -17 8 -11 4 7 18 14 31
15 14 2 26 10 29 17 4 12 -16 14 -50 5z"/>
<path d="M10040 2620 c0 -5 9 -10 20 -10 11 0 20 5 20 10 0 6 -9 10 -20 10
-11 0 -20 -4 -20 -10z"/>
<path d="M10270 2603 c0 -5 7 -18 15 -29 15 -18 15 -18 13 5 -3 23 -28 44 -28
24z"/>
<path d="M10115 2591 c-3 -6 -4 -15 0 -20 3 -5 -5 -12 -17 -14 -13 -2 -4 -5
19 -6 40 -1 42 0 34 21 -9 25 -26 34 -36 19z"/>
<path d="M8540 2580 c0 -12 8 -12 35 0 18 8 17 9 -7 9 -16 1 -28 -3 -28 -9z"/>
<path d="M10000 2580 c0 -5 9 -10 20 -10 11 0 20 5 20 10 0 6 -9 10 -20 10
-11 0 -20 -4 -20 -10z"/>
<path d="M8618 2563 c7 -3 16 -2 19 1 4 3 -2 6 -13 5 -11 0 -14 -3 -6 -6z"/>
<path d="M10247 2559 c7 -7 15 -10 18 -7 3 3 -2 9 -12 12 -14 6 -15 5 -6 -5z"/>
<path d="M8408 2553 c7 -3 16 -2 19 1 4 3 -2 6 -13 5 -11 0 -14 -3 -6 -6z"/>
<path d="M10303 2545 c-3 -9 -3 -18 0 -21 9 -9 27 6 27 22 0 19 -19 18 -27 -1z"/>
<path d="M10249 2518 c-6 -21 -5 -38 2 -38 5 0 9 9 9 20 0 16 -7 28 -11 18z"/>
<path d="M10283 2468 l0 -43 10 33 c7 23 7 36 0 43 -7 7 -11 -3 -10 -33z"/>
<path d="M8340 2485 c-6 -7 -25 -16 -43 -19 -24 -4 -33 -11 -33 -26 0 -11 8
-23 18 -26 10 -3 18 -12 18 -20 0 -18 24 -18 40 1 11 13 14 13 26 -2 12 -17
14 -17 38 6 14 14 31 21 40 18 9 -4 16 -2 16 3 0 6 -7 10 -15 10 -8 0 -15 5
-15 10 0 6 7 10 15 10 8 0 15 4 15 9 0 5 -8 7 -19 4 -10 -3 -22 0 -25 6 -4 7
1 11 14 11 12 0 19 4 16 9 -9 14 -94 11 -106 -4z m-5 -75 c3 -5 1 -10 -4 -10
-6 0 -11 5 -11 10 0 6 2 10 4 10 3 0 8 -4 11 -10z"/>
<path d="M9770 2410 c0 -5 16 -10 35 -10 19 0 35 -4 35 -10 0 -5 -4 -10 -10
-10 -16 0 -12 -30 7 -48 12 -12 18 -13 21 -4 2 7 21 12 47 12 45 0 56 -11 60
-65 1 -11 5 -19 8 -18 4 2 18 5 32 9 21 5 23 9 14 20 -7 8 -14 12 -17 9 -7 -6
-32 15 -32 26 0 5 12 14 26 19 33 13 24 26 -18 25 -27 0 -35 5 -45 28 -12 26
-15 27 -88 27 -43 0 -75 -4 -75 -10z m150 -30 c0 -13 -7 -20 -20 -20 -13 0
-20 7 -20 20 0 13 7 20 20 20 13 0 20 -7 20 -20z"/>
<path d="M8205 2401 c-3 -5 -1 -12 5 -16 5 -3 10 1 10 9 0 18 -6 21 -15 7z"/>
<path d="M10045 2390 c4 -6 11 -8 16 -5 14 9 11 15 -7 15 -8 0 -12 -5 -9 -10z"/>
<path d="M10116 2384 c-9 -24 -7 -34 7 -34 23 0 38 22 26 37 -15 17 -26 16
-33 -3z"/>
<path d="M9170 2360 c0 -5 7 -10 15 -10 8 0 15 5 15 10 0 6 -7 10 -15 10 -8 0
-15 -4 -15 -10z"/>
<path d="M10036 2362 c-9 -14 34 -71 50 -65 22 8 17 39 -11 57 -28 18 -32 19
-39 8z"/>
<path d="M9507 2306 c-23 -18 -11 -25 31 -19 28 5 47 23 23 23 -5 0 -15 2 -23
5 -7 2 -21 -2 -31 -9z"/>
<path d="M9465 2290 c-3 -5 -1 -10 4 -10 6 0 11 5 11 10 0 6 -2 10 -4 10 -3 0
-8 -4 -11 -10z"/>
<path d="M9460 2256 c0 -11 9 -16 30 -16 17 0 30 4 30 10 0 5 -7 7 -15 4 -8
-4 -22 -1 -30 6 -12 10 -15 9 -15 -4z"/>
<path d="M7939 2250 c-1 -3 -2 -14 -3 -25 -1 -11 -7 -19 -13 -17 -7 1 -13 -2
-13 -8 0 -6 35 -10 85 -10 84 0 85 0 85 25 0 14 1 28 3 32 1 4 -31 8 -70 8
-40 1 -74 -2 -74 -5z m51 -24 c0 -3 -4 -8 -10 -11 -5 -3 -10 -1 -10 4 0 6 5
11 10 11 6 0 10 -2 10 -4z"/>
<path d="M10060 2250 c-19 -6 -21 -8 -6 -9 11 -1 16 -4 13 -8 -12 -11 14 -33
39 -33 17 0 24 -6 24 -19 0 -26 -14 -34 -50 -26 -19 4 -30 13 -32 28 -3 24
-33 33 -74 23 -23 -6 -24 -8 -9 -36 14 -27 18 -28 65 -24 48 4 50 4 38 -15 -9
-15 -9 -23 1 -34 10 -13 15 -13 40 -1 16 8 34 21 41 29 7 8 16 13 20 10 4 -3
13 2 20 10 7 8 18 15 26 15 13 0 67 70 60 78 -2 2 -22 -8 -45 -22 -22 -14 -46
-26 -53 -26 -6 0 -26 16 -44 35 -34 37 -35 38 -74 25z"/>
<path d="M9348 2233 c23 -9 12 -33 -18 -39 -40 -9 -38 -21 5 -26 35 -4 35 -4
35 34 0 30 -4 38 -17 37 -11 0 -13 -3 -5 -6z"/>
<path d="M8720 2214 c0 -14 31 -34 54 -34 30 0 32 5 12 26 -14 13 -66 20 -66
8z"/>
<path d="M9916 2165 c-3 -8 -1 -15 4 -15 6 0 10 7 10 15 0 8 -2 15 -4 15 -2 0
-6 -7 -10 -15z"/>
<path d="M8008 2153 c7 -3 16 -2 19 1 4 3 -2 6 -13 5 -11 0 -14 -3 -6 -6z"/>
<path d="M8320 2144 c0 -8 5 -12 10 -9 6 4 8 11 5 16 -9 14 -15 11 -15 -7z"/>
<path d="M8678 2150 c-74 -9 -85 -30 -12 -23 64 6 68 8 63 20 -2 4 -25 6 -51
3z"/>
<path d="M8385 2140 c3 -5 8 -10 11 -10 2 0 4 5 4 10 0 6 -5 10 -11 10 -5 0
-7 -4 -4 -10z"/>
<path d="M9310 2141 c0 -5 9 -13 20 -16 11 -3 20 -11 20 -17 0 -6 3 -9 6 -6 9
10 -16 48 -31 48 -8 0 -15 -4 -15 -9z"/>
<path d="M9803 2143 c-14 -3 -20 -9 -16 -19 3 -9 -2 -14 -17 -14 -14 0 -24 -8
-27 -21 -5 -17 -12 -20 -38 -17 -23 3 -31 0 -28 -9 12 -32 60 -25 103 14 14
13 33 23 42 23 10 0 18 4 18 9 0 5 3 16 6 25 6 16 1 17 -43 9z"/>
<path d="M7848 2122 c-7 -11 -22 -22 -33 -24 -18 -4 -18 -6 -3 -12 23 -10 79
15 76 33 -5 23 -25 24 -40 3z"/>
<path d="M8096 2124 c-9 -24 0 -31 33 -26 l31 4 -24 19 c-29 23 -32 23 -40 3z"/>
<path d="M8055 2120 c-19 -8 -19 -9 3 -9 12 -1 22 4 22 9 0 6 -1 10 -2 9 -2 0
-12 -4 -23 -9z"/>
<path d="M8530 2126 c0 -2 7 -6 15 -10 8 -3 15 -1 15 4 0 6 -7 10 -15 10 -8 0
-15 -2 -15 -4z"/>
<path d="M8980 2120 c0 -5 9 -10 20 -10 11 0 20 5 20 10 0 6 -9 10 -20 10 -11
0 -20 -4 -20 -10z"/>
<path d="M9460 2115 c-15 -8 -19 -14 -10 -14 18 -1 46 16 40 23 -3 2 -16 -2
-30 -9z"/>
<path d="M9671 2114 c0 -11 3 -14 6 -6 3 7 2 16 -1 19 -3 4 -6 -2 -5 -13z"/>
<path d="M9620 2105 c0 -11 -11 -29 -25 -39 -14 -10 -25 -23 -25 -27 0 -18 27
-8 55 21 27 29 28 31 12 47 -16 16 -17 16 -17 -2z"/>
<path d="M7940 2095 c0 -8 5 -15 10 -15 6 0 10 7 10 15 0 8 -4 15 -10 15 -5 0
-10 -7 -10 -15z"/>
<path d="M8329 2108 c-11 -38 -8 -40 42 -36 54 6 65 11 54 27 -5 9 -93 17 -96
9z"/>
<path d="M9510 2101 c0 -16 18 -22 45 -15 37 9 31 24 -10 24 -19 0 -35 -4 -35
-9z"/>
<path d="M8740 2090 c0 -5 5 -10 10 -10 6 0 10 5 10 10 0 6 -4 10 -10 10 -5 0
-10 -4 -10 -10z"/>
<path d="M9120 2091 c0 -10 26 -9 36 2 4 4 -2 7 -14 7 -12 0 -22 -4 -22 -9z"/>
<path d="M9863 2094 c4 -4 2 -13 -3 -20 -18 -20 33 -53 78 -50 64 5 136 46 80
46 -13 0 -28 4 -33 9 -12 10 -132 25 -122 15z m49 -29 c0 -5 -5 -11 -11 -13
-6 -2 -11 4 -11 13 0 9 5 15 11 13 6 -2 11 -8 11 -13z"/>
<path d="M7620 2070 c0 -5 -16 -10 -35 -10 -19 0 -35 -4 -35 -10 0 -5 7 -10
15 -10 22 0 18 -16 -7 -35 -22 -16 -22 -17 -2 -11 14 4 35 -1 57 -14 29 -17
40 -19 56 -10 12 6 21 20 21 30 0 17 -7 20 -40 20 -22 0 -40 5 -40 10 0 6 3
10 8 10 4 0 13 9 20 20 10 17 10 20 -3 20 -8 0 -15 -4 -15 -10z"/>
<path d="M7890 2060 c13 -23 23 -25 39 -7 14 17 4 27 -26 27 -21 0 -22 -3 -13
-20z"/>
<path d="M7970 2064 c0 -8 5 -12 10 -9 6 4 8 11 5 16 -9 14 -15 11 -15 -7z"/>
<path d="M8097 2066 c-4 -9 -16 -12 -34 -9 -22 3 -25 2 -11 -6 21 -14 78 -3
78 15 0 18 -26 18 -33 0z"/>
<path d="M8975 2070 c3 -5 15 -10 25 -10 10 0 22 5 25 10 4 6 -7 10 -25 10
-18 0 -29 -4 -25 -10z"/>
<path d="M9201 2076 c10 -8 89 -13 83 -5 -3 5 -24 9 -46 9 -23 0 -39 -2 -37
-4z"/>
<path d="M9395 2070 c3 -5 10 -10 16 -10 5 0 9 5 9 10 0 6 -7 10 -16 10 -8 0
-12 -4 -9 -10z"/>
<path d="M8545 2050 c-3 -5 -29 -10 -56 -10 -36 0 -49 -4 -47 -12 7 -20 67
-22 88 -3 10 9 31 20 46 25 l29 8 -27 1 c-15 1 -30 -3 -33 -9z"/>
<path d="M9120 2044 c0 -12 -10 -15 -47 -13 -30 2 -48 -1 -51 -9 -2 -8 12 -12
47 -12 28 0 51 4 51 9 0 5 11 12 25 15 14 4 25 11 25 16 0 6 -11 10 -25 10
-16 0 -25 -6 -25 -16z"/>
<path d="M7805 2040 c-10 -17 6 -32 28 -26 12 3 26 1 31 -3 6 -5 22 -11 36
-14 22 -5 22 -5 -5 -5 -49 0 -56 -1 -50 -12 3 -5 -12 -7 -39 -4 -37 5 -44 3
-42 -10 3 -25 14 -30 56 -28 29 2 45 -3 60 -18 19 -19 29 -21 71 -15 30 4 55
3 62 -3 7 -6 35 -13 62 -15 28 -3 58 -8 68 -12 27 -11 21 20 -8 35 -14 7 -25
17 -25 22 0 4 -6 8 -14 8 -8 0 -16 5 -18 11 -3 9 -10 9 -26 0 -22 -12 -148 -5
-157 9 -2 3 6 6 18 6 16 -1 22 4 20 17 -1 15 4 18 23 14 13 -2 25 1 27 6 2 6
13 1 25 -11 25 -25 54 -30 46 -7 -4 9 0 15 9 15 9 0 18 -8 20 -17 4 -17 5 -17
6 -1 2 35 -97 67 -132 43 -30 -21 -79 -19 -100 5 -18 22 -42 26 -52 10z"/>
<path d="M9320 2030 c0 -17 5 -20 28 -17 15 2 27 10 27 17 0 7 -12 15 -27 17
-23 3 -28 0 -28 -17z"/>
<path d="M8960 2026 c0 -9 5 -16 10 -16 6 0 10 4 10 9 0 6 -4 13 -10 16 -5 3
-10 -1 -10 -9z"/>
<path d="M9520 2021 c0 -11 -3 -27 -7 -36 -5 -15 -3 -16 14 -7 15 8 19 18 16
37 -6 29 -23 34 -23 6z"/>
<path d="M9793 2020 c-3 -11 -10 -20 -17 -21 -6 -1 0 -4 14 -9 19 -5 14 -7
-22 -7 -45 0 -63 10 -35 20 6 2 3 3 -9 1 -12 -2 -24 0 -28 3 -11 11 -76 13
-76 2 0 -5 9 -9 19 -9 10 0 21 -7 25 -15 3 -8 15 -15 26 -15 15 0 20 -5 18
-17 -5 -25 -64 -21 -89 6 -21 22 -79 29 -79 10 0 -15 -25 -37 -54 -49 -14 -5
-26 -16 -26 -25 0 -12 -8 -14 -37 -9 -21 3 -46 10 -55 15 -11 6 -19 5 -23 -2
-4 -6 -13 -8 -19 -6 -7 3 -19 1 -26 -3 -10 -6 -19 -2 -29 12 -14 20 -15 20
-21 3 -9 -25 -40 -29 -40 -4 0 17 -3 18 -20 7 -18 -12 -19 -14 -4 -25 16 -12
17 -12 -88 -12 -18 -1 -34 -1 -100 -4 -22 -1 -34 -5 -30 -12 3 -6 0 -5 -9 1
-8 6 -34 12 -59 12 -25 0 -61 3 -80 5 -19 3 -42 1 -50 -3 -26 -14 -85 -16 -83
-2 3 14 -26 16 -46 3 -20 -13 -41 -2 -41 20 0 10 -6 19 -12 19 -9 0 -8 4 2 10
8 5 11 10 7 10 -4 0 -3 10 4 22 11 21 11 21 -54 15 -38 -4 -67 -2 -69 3 -2 6
-24 6 -56 1 -41 -6 -55 -5 -59 5 -3 8 -22 13 -55 12 -39 0 -48 -3 -44 -15 3
-8 6 -19 6 -25 0 -6 11 -8 25 -6 14 3 28 1 31 -4 3 -5 16 -8 27 -7 46 3 87 -1
87 -10 0 -13 -103 -26 -108 -13 -4 12 -42 4 -42 -9 0 -5 -21 -6 -47 -2 -34 4
-44 3 -39 -5 4 -7 16 -12 26 -12 10 0 21 -4 24 -9 3 -5 35 -9 70 -9 36 0 73
-5 83 -10 18 -10 110 -8 161 2 12 3 20 1 17 -3 -5 -10 24 -26 40 -21 6 1 55 4
110 6 55 1 107 3 115 3 8 1 76 -1 150 -5 79 -3 180 0 243 7 98 11 107 13 107
33 1 21 1 21 19 -1 22 -27 41 -29 81 -8 17 9 30 13 30 10 0 -3 18 2 40 11 22
9 51 13 64 10 14 -3 52 4 92 19 38 14 84 25 102 25 20 0 35 6 38 15 4 8 14 15
23 15 24 0 30 8 24 31 -3 10 -14 19 -24 19 -11 0 -19 5 -19 10 0 18 -22 10
-27 -10z m-1238 -98 c-8 -2 -15 -10 -15 -18 0 -9 -5 -12 -12 -8 -7 4 -28 11
-48 15 l-35 7 43 1 c24 0 41 5 37 10 -8 13 28 19 37 6 4 -5 1 -11 -7 -13z
m1000 8 c3 -5 -1 -10 -10 -10 -9 0 -13 5 -10 10 3 6 8 10 10 10 2 0 7 -4 10
-10z m-20 -28 c-3 -3 -11 0 -18 7 -9 10 -8 11 6 5 10 -3 15 -9 12 -12z"/>
<path d="M8635 2020 c-3 -6 1 -7 9 -4 18 7 21 14 7 14 -6 0 -13 -4 -16 -10z"/>
<path d="M9200 2015 c0 -9 6 -12 15 -9 8 4 15 10 15 15 0 5 -7 9 -15 9 -8 0
-15 -7 -15 -15z"/>
<path d="M9448 2023 c7 -3 16 -2 19 1 4 3 -2 6 -13 5 -11 0 -14 -3 -6 -6z"/>
<path d="M8680 2004 c0 -9 7 -14 17 -12 25 5 28 28 4 28 -12 0 -21 -6 -21 -16z"/>
<path d="M9393 2003 c-13 -2 -23 -7 -23 -11 0 -4 -3 -16 -6 -28 -5 -20 -3 -21
38 -14 72 10 87 28 43 48 -14 7 -27 11 -28 11 -1 -1 -12 -4 -24 -6z"/>
<path d="M8148 1992 c-22 -4 -23 -16 -4 -31 11 -9 15 -7 19 11 7 26 7 26 -15
20z"/>
<path d="M7707 1984 c-8 -8 1 -24 14 -24 5 0 9 7 9 15 0 15 -12 20 -23 9z"/>
<path d="M8186 1965 c4 -8 16 -15 28 -15 14 0 23 6 23 15 0 10 -10 15 -28 15
-21 0 -27 -4 -23 -15z"/>
<path d="M8611 1923 c-14 -11 -13 -12 9 -13 14 0 32 -4 40 -10 9 -5 19 -5 26
1 8 7 14 6 19 -1 4 -7 12 -7 25 0 13 7 21 7 25 0 12 -19 33 -11 28 10 -4 13
-14 20 -32 21 -14 0 -48 2 -75 3 -26 1 -56 -4 -65 -11z"/>
<path d="M8800 1922 c0 -15 26 -22 38 -10 6 6 16 7 24 2 17 -11 88 -14 88 -4
0 4 12 6 27 4 87 -9 163 -8 163 4 0 4 -76 9 -170 11 -104 1 -170 -1 -170 -7z"/>
<path d="M9288 1913 c7 -3 16 -2 19 1 4 3 -2 6 -13 5 -11 0 -14 -3 -6 -6z"/>
<path d="M8883 1703 c9 -2 23 -2 30 0 6 3 -1 5 -18 5 -16 0 -22 -2 -12 -5z"/>
</g>
</svg>
